<svg style="display: none;" aria-hidden="true" xmlns="http://www.w3.org/2000/svg" xmlns:xlink="http://www.w3.org/1999/xlink"><symbol viewBox="0 0 54 8" id="svg-arrow"><path d="M53.3535 4.35356C53.5488 4.1583 53.5488 3.84171 53.3535 3.64645L50.1716 0.46447C49.9763 0.269208 49.6597 0.269208 49.4645 0.46447C49.2692 0.659733 49.2692 0.976315 49.4645 1.17158L52.2929 4L49.4645 6.82843C49.2692 7.02369 49.2692 7.34028 49.4645 7.53554C49.6597 7.7308 49.9763 7.7308 50.1716 7.53554L53.3535 4.35356ZM-4.37114e-08 4.5L53 4.5L53 3.5L4.37114e-08 3.5L-4.37114e-08 4.5Z"/></symbol><symbol viewBox="0 0 20 52" fill="none" id="svg-arrow-slider"><path d="M17 49L3 26L17 3"/></symbol><symbol viewBox="0 0 12 12" id="svg-close"><path d="M11.3398 1L1 11.3398M1 1L11.3398 11.3398"/></symbol><symbol viewBox="0 0 37 28" fill="none" id="svg-contacts-email"><path d="M35.1025 0H1.89748C0.853817 0 0 0.969197 0 2.15381V25.8461C0 27.0306 0.853817 28 1.89748 28H35.1025C36.146 28 37 27.0308 37 25.8461V2.15381C36.9999 0.969197 36.1461 0 35.1025 0ZM34.3904 1.61527L19.5915 14.2154C19.3254 14.4453 18.9169 14.5891 18.4999 14.5869C18.0829 14.5891 17.6745 14.4453 17.4084 14.2154L2.60943 1.61527H34.3904ZM26.4853 15.0468L34.5494 26.3545C34.5575 26.3659 34.5674 26.3745 34.576 26.3847H2.42393C2.43246 26.374 2.44243 26.3659 2.45052 26.3545L10.5146 15.0468C10.7617 14.7001 10.7149 14.1917 10.4088 13.9106C10.1034 13.6301 9.65554 13.6833 9.40839 14.0301L1.42305 25.2274V2.62491L16.555 15.5076C17.1238 15.9884 17.8158 16.2001 18.4998 16.2022C19.1829 16.2006 19.8755 15.9889 20.4446 15.5076L35.5766 2.62491V25.2273L27.5915 14.0301C27.3443 13.6834 26.8961 13.63 26.591 13.9106C26.2851 14.1911 26.2381 14.7001 26.4853 15.0468Z" fill="#CB3B48"/></symbol><symbol viewBox="0 0 24 24" fill="none" id="svg-contacts-inst"><path d="M12.0003 0.84214C7.08512 0.84214 2.41766 0.423454 0.634874 4.80475C-0.101523 6.61431 0.00541729 8.96439 0.00541729 12.3294C0.00541729 15.2823 -0.0934008 18.0575 0.634874 19.8528C2.4136 24.2367 7.11896 23.8167 11.9976 23.8167C16.7043 23.8167 21.5572 24.286 23.3617 19.8528C24.0994 18.0251 23.9911 15.71 23.9911 12.3294C23.9911 7.84185 24.2497 4.94475 21.9769 2.76965C19.6756 0.566041 16.5635 0.84214 11.9949 0.84214H12.0003ZM10.9255 2.91224C21.1782 2.89668 22.4831 1.80525 21.763 16.9674C21.5071 22.3299 17.2431 21.7414 12.0016 21.7414C2.44473 21.7414 2.16994 21.4796 2.16994 12.3243C2.16994 3.0626 2.92799 2.91742 10.9255 2.90965V2.91224ZM18.4032 4.81901C17.6086 4.81901 16.9642 5.43602 16.9642 6.19692C16.9642 6.95781 17.6086 7.57482 18.4032 7.57482C19.1978 7.57482 19.8421 6.95781 19.8421 6.19692C19.8421 5.43602 19.1978 4.81901 18.4032 4.81901ZM12.0003 6.43024C8.59852 6.43024 5.84109 9.07198 5.84109 12.3294C5.84109 15.5869 8.59852 18.2273 12.0003 18.2273C15.4021 18.2273 18.1581 15.5869 18.1581 12.3294C18.1581 9.07198 15.4021 6.43024 12.0003 6.43024ZM12.0003 8.50034C17.2864 8.50034 17.2932 16.1585 12.0003 16.1585C6.71557 16.1585 6.70744 8.50034 12.0003 8.50034Z" fill="#fff"/></symbol><symbol viewBox="0 0 33 40" fill="none" id="svg-contacts-location"><path d="M28.1646 4.83539C21.7178 -1.61145 11.2829 -1.61214 4.83539 4.83539C-1.61129 11.282 -1.6123 21.7171 4.83539 28.1646L15.6282 38.9574C16.1098 39.439 16.8904 39.4389 17.3719 38.9574L28.1647 28.1646C34.6113 21.718 34.6123 11.283 28.1646 4.83539ZM26.4209 26.421L16.5 36.3419L6.57906 26.421C1.10868 20.9506 1.10868 12.0495 6.57906 6.57914C12.0495 1.10883 20.9503 1.10868 26.4209 6.57914C31.8913 12.0494 31.8913 20.9505 26.4209 26.421Z" fill="#CB3B48"/><path d="M16.4999 9.12567C12.4243 9.12567 9.12549 12.4238 9.12549 16.5C9.12549 20.5756 12.4237 23.8744 16.4999 23.8744C20.5756 23.8744 23.8743 20.5761 23.8743 16.5C23.8743 12.4245 20.5762 9.12567 16.4999 9.12567ZM19.9707 19.9708C19.9235 19.9708 18.7613 21.4084 16.4999 21.4084C13.7871 21.4084 11.5915 19.2131 11.5915 16.5C11.5915 13.7873 13.7868 11.5916 16.4999 11.5916C20.9067 11.5916 23.0248 16.9168 19.9707 19.9708Z" fill="#CB3B48"/></symbol><symbol viewBox="0 0 30 31" fill="none" id="svg-contacts-phone"><path d="M23.7221 18.611C23.1071 17.9706 22.3652 17.6282 21.5789 17.6282 20.799 17.6282 20.0507 17.9642 19.4103 18.6047L17.4066 20.602C17.2417 20.5133 17.0768 20.4308 16.9183 20.3484 16.69 20.2343 16.4745 20.1265 16.2906 20.0123 14.4137 18.8202 12.7079 17.2667 11.072 15.2566 10.2794 14.2548 9.74673 13.4114 9.35993 12.5554 9.87989 12.0798 10.3618 11.5852 10.831 11.1097 11.0086 10.9321 11.1861 10.7482 11.3637 10.5707 12.6953 9.23911 12.6953 7.51438 11.3637 6.18278L9.63259 4.45171C9.43602 4.25514 9.23311 4.05223 9.04289 3.84932 8.66243 3.45618 8.26295 3.05036 7.85079 2.66991 7.23572 2.06118 6.50018 1.73779 5.72658 1.73779 4.95299 1.73779 4.20476 2.06118 3.57067 2.66991 3.56433 2.67625 3.56433 2.67625 3.55799 2.68259L1.40207 4.85753C.590434 5.66917.127547 6.65835.026092 7.80606-.12609 9.65761.419229 11.3823.83773 12.511 1.86496 15.282 3.39946 17.8501 5.68854 20.602 8.46586 23.9183 11.8075 26.5371 15.6248 28.3824 17.0832 29.0735 19.0298 29.8915 21.2048 30.031 21.3379 30.0373 21.4774 30.0437 21.6043 30.0437 23.069 30.0437 24.2992 29.5174 25.263 28.4711 25.2693 28.4585 25.282 28.4521 25.2883 28.4394 25.6181 28.0399 25.9985 27.6785 26.398 27.2917 26.6707 27.0317 26.9497 26.7591 27.2223 26.4737 27.8501 25.8206 28.1798 25.0597 28.1798 24.2798 28.1798 23.4935 27.8437 22.7389 27.2033 22.1048L23.7221 18.611zM25.9922 25.288C25.9858 25.288 25.9858 25.2943 25.9922 25.288 25.7449 25.5543 25.4912 25.7953 25.2186 26.0616 24.8064 26.4547 24.3879 26.8669 23.9948 27.3298 23.3544 28.0146 22.5998 28.338 21.6106 28.338 21.5155 28.338 21.414 28.338 21.3189 28.3316 19.4357 28.2112 17.6856 27.4756 16.373 26.8479 12.784 25.1104 9.63259 22.6438 7.01379 19.5177 4.85154 16.9116 3.40581 14.5021 2.44833 11.915 1.85862 10.3361 1.64303 9.10595 1.73814 7.94556 1.80155 7.20367 2.08689 6.5886 2.61319 6.0623L4.77544 3.90005C5.08615 3.60837 5.41588 3.44984 5.73927 3.44984 6.13874 3.44984 6.46213 3.6908 6.66504 3.89371 6.67138 3.90005 6.67772 3.90639 6.68406 3.91273 7.07086 4.27416 7.43863 4.64828 7.82543 5.04776 8.022 5.25067 8.22491 5.45357 8.42782 5.66283L10.1589 7.3939C10.831 8.06604 10.831 8.68745 10.1589 9.35958 9.975 9.54347 9.79746 9.72736 9.61357 9.9049 9.08093 10.4502 8.57366 10.9575 8.022 11.4521 8.00932 11.4648 7.99663 11.4711 7.99029 11.4838 7.44497 12.0291 7.54643 12.5618 7.66057 12.9232 7.66691 12.9422 7.67325 12.9612 7.67959 12.9803 8.12979 14.0709 8.76389 15.0981 9.72771 16.3219L9.73405 16.3283C11.4841 18.4842 13.3294 20.1645 15.3648 21.4517 15.6248 21.6166 15.8911 21.7498 16.1447 21.8766 16.373 21.9907 16.5886 22.0985 16.7725 22.2126 16.7978 22.2253 16.8232 22.2443 16.8486 22.257 17.0642 22.3648 17.2671 22.4155 17.4763 22.4155 18.0026 22.4155 18.3323 22.0858 18.4401 21.978L20.6087 19.8094C20.8243 19.5938 21.1667 19.3339 21.5662 19.3339 21.9594 19.3339 22.2827 19.5812 22.4793 19.7967 22.4856 19.8031 22.4856 19.8031 22.492 19.8094L25.9858 23.3033C26.639 23.9501 26.639 24.6158 25.9922 25.288zM16.2144 7.14657C17.8757 7.42557 19.3848 8.21185 20.5896 9.41662 21.7944 10.6214 22.5743 12.1305 22.8597 13.7919 22.9294 14.2104 23.2909 14.502 23.703 14.502 23.7537 14.502 23.7981 14.4957 23.8489 14.4894 24.3181 14.4133 24.6288 13.9694 24.5527 13.5002 24.2103 11.4901 23.2592 9.65758 21.8071 8.20551 20.355 6.75343 18.5225 5.8023 16.5124 5.45989 16.0432 5.38379 15.6057 5.6945 15.5232 6.15739 15.4408 6.62027 15.7452 7.07048 16.2144 7.14657zM29.9868 13.2529C29.4225 9.94294 27.8626 6.931 25.4658 4.53413 23.0689 2.13726 20.0569.577393 16.747.0130506 16.2841-.0693815 15.8466.247665 15.7641.710552 15.688 1.17978 15.9988 1.6173 16.468 1.69974 19.4229 2.20067 22.1177 3.60201 24.261 5.73891 26.4042 7.88214 27.7992 10.577 28.3001 13.5319 28.3699 13.9504 28.7313 14.2421 29.1435 14.2421 29.1942 14.2421 29.2386 14.2357 29.2893 14.2294 29.7522 14.1597 30.0693 13.7158 29.9868 13.2529z" fill="#CB3B48"/></symbol><symbol viewBox="0 0 25 22" fill="none" id="svg-contacts-tg"><path d="M6.60262 12.5876L6.67798 12.8214L8.90764 19.7394L8.90769 19.7395C8.92319 19.7877 8.96206 19.8276 9.02361 19.8455C9.0854 19.8635 9.14912 19.8524 9.1991 19.813L9.19965 19.8126L12.4107 17.2871L12.4108 17.287C12.921 16.886 13.6424 16.8666 14.1743 17.2391L14.1744 17.2392L19.9659 21.2958L19.9661 21.296C20.0205 21.3342 20.087 21.3408 20.1483 21.318C20.2092 21.2953 20.2435 21.2526 20.2539 21.2042L20.2539 21.204L24.4964 1.51543L6.60262 12.5876ZM6.60262 12.5876L6.37148 12.5043M6.60262 12.5876L6.37148 12.5043M6.37148 12.5043L0.611572 10.4303C0.611407 10.4302 0.611242 10.4301 0.611078 10.4301C0.56265 10.4125 0.538234 10.3883 0.52457 10.3683C0.509277 10.3459 0.500183 10.3176 0.500003 10.2869C0.499823 10.2562 0.508575 10.228 0.523385 10.2058C0.536621 10.186 0.560617 10.1617 0.609184 10.1436L0.609228 10.1436L24.2505 1.34471L24.2509 1.34457M6.37148 12.5043L24.2509 1.34457M24.2509 1.34457C24.3237 1.31741 24.3927 1.33364 24.4428 1.37461M24.2509 1.34457L24.4428 1.37461M7.8166 11.441L7.817 11.4407L19.0752 4.75103L19.0757 4.7507C19.4224 4.54533 19.7943 4.67926 19.9824 4.91755C20.0753 5.03517 20.1387 5.19352 20.1317 5.37079C20.1244 5.55743 20.0401 5.72835 19.9008 5.85303L10.6102 14.1849C10.3694 14.4012 10.2173 14.6873 10.1743 14.9941L9.85793 17.2563L7.8166 11.441ZM7.8166 11.441C7.19619 11.8104 6.89105 12.5446 7.09767 13.2426C7.0977 13.2427 7.09773 13.2428 7.09776 13.2429L8.31485 17.3688L8.31492 17.369M7.8166 11.441L8.31492 17.369M8.31492 17.369C8.43656 17.7806 8.81486 17.951 9.12972 17.9292M8.31492 17.369L9.12972 17.9292M24.4428 1.37461C24.4917 1.41466 24.5075 1.4637 24.4965 1.5152L24.4428 1.37461ZM9.12972 17.9292C9.44536 17.9074 9.79819 17.6849 9.85785 17.2569L9.12972 17.9292ZM19.2335 5.1082L19.2333 5.10843C19.2335 5.10823 19.2337 5.10804 19.2339 5.10785L19.2335 5.1082Z" stroke="#fff"/></symbol><symbol viewBox="0 0 26 26" fill="none" id="svg-contacts-viber"><path d="M2.86189 20.0536L2.94397 19.8089L2.79204 19.6002C1.34878 17.6182 0.5 15.1776 0.5 12.5429C0.5 5.90149 5.90017 0.5 12.5397 0.5H12.546C19.1855 0.5 24.5857 5.90302 24.5857 12.5429C24.5857 19.1827 19.1855 24.5857 12.546 24.5857C10.0961 24.5857 7.82581 23.8574 5.92199 22.5962L5.72205 22.4637L5.49361 22.5368L1.61267 23.7774L2.86189 20.0536ZM20.3157 17.879L20.3158 17.8787C20.4814 17.4102 20.5658 16.9725 20.5963 16.6224C20.6115 16.4479 20.6139 16.288 20.6039 16.1521C20.5957 16.0419 20.5754 15.8689 20.4944 15.7256L20.4944 15.7256L20.4925 15.7223C20.3739 15.5163 20.1816 15.4003 20.0532 15.3302C19.9759 15.2879 19.8708 15.2372 19.7661 15.1866C19.7028 15.156 19.6396 15.1255 19.5827 15.0969L19.5812 15.0961C19.3958 15.0039 18.8538 14.7356 18.3151 14.4754C17.8006 14.2269 17.2397 13.9613 17.0299 13.8869C16.8005 13.8013 16.5313 13.757 16.2527 13.8295C15.9652 13.9043 15.7311 14.0869 15.5518 14.3399C15.5028 14.4085 15.4546 14.4762 15.4073 14.5427C15.1016 14.9723 14.8326 15.3504 14.6143 15.5862C14.5928 15.6087 14.558 15.6296 14.5004 15.6374C14.4393 15.6457 14.3626 15.6371 14.2865 15.6055L14.0951 16.0673L14.2875 15.6059C14.2541 15.592 14.2161 15.5767 14.1738 15.5596C13.7062 15.3708 12.7081 14.9677 11.4862 13.8799L11.4862 13.8799C10.4632 12.9693 9.75893 11.8247 9.55043 11.4723C9.53665 11.4483 9.52993 11.4318 9.52672 11.4223C9.52689 11.422 9.52705 11.4217 9.52723 11.4214C9.53136 11.4138 9.53795 11.4032 9.54838 11.3886C9.57129 11.3565 9.59853 11.3245 9.64357 11.2715L9.64694 11.2676L9.64706 11.2677L9.65491 11.2579C9.7354 11.1584 9.81524 11.0713 9.90338 10.9774C9.91703 10.9629 9.93102 10.948 9.9453 10.9328C10.0208 10.8527 10.1046 10.7638 10.1893 10.6661C10.2019 10.6517 10.2142 10.6375 10.2265 10.6234C10.3902 10.4354 10.5276 10.2777 10.6668 9.98303C10.9032 9.51418 10.7107 9.06591 10.6156 8.86856C10.558 8.7466 10.1973 7.8714 9.8772 7.09467C9.7321 6.74263 9.59535 6.41082 9.49894 6.17853L9.49849 6.17746C9.36819 5.86557 9.21315 5.59551 8.95941 5.42973C8.71472 5.26986 8.44827 5.25898 8.28249 5.25221C8.27609 5.25195 8.26984 5.25169 8.26375 5.25143C8.2531 5.2509 8.24221 5.25035 8.23109 5.24978C8.11555 5.24392 7.97505 5.23679 7.82048 5.23679C7.26761 5.23679 6.61308 5.39563 6.18081 5.83686L6.18071 5.83696C6.1704 5.84748 6.15964 5.85844 6.14845 5.86982C5.73731 6.28814 4.75546 7.28714 4.75546 9.23939C4.75546 10.2519 5.12155 11.2189 5.48784 11.941C5.83798 12.6313 6.20915 13.1375 6.32395 13.294C6.33043 13.3029 6.3361 13.3106 6.3409 13.3172L6.34081 13.3172L6.34707 13.3255C6.34705 13.3254 6.3471 13.3255 6.3472 13.3256C6.3479 13.3266 6.35153 13.3315 6.35967 13.3431L6.39375 13.3921C6.39914 13.3999 6.4049 13.4083 6.41102 13.4172C6.43654 13.4541 6.46828 13.5001 6.5052 13.553C6.59722 13.6848 6.72281 13.8616 6.88002 14.0718C7.19421 14.4917 7.63488 15.0448 8.1884 15.6396C9.2906 16.824 10.8629 18.1984 12.7983 19.0003C14.2556 19.6044 15.2312 19.8916 15.9428 20.0044C16.6758 20.1207 17.1178 20.0498 17.487 19.9712L17.4884 19.9709C18.0325 19.8534 18.6311 19.5982 19.1396 19.254C19.6391 18.916 20.1136 18.4496 20.3157 17.879Z" stroke="#fff"/></symbol><symbol viewBox="0 0 29 26" id="svg-filter-icon"><path d="M27.5398 2.35184H10.8185C10.3588.986467 9.06734 0 7.54892 0 6.0305 0 4.73905.986467 4.27934 2.35184H1.66927C1.06296 2.35184.571411 2.84339.571411 3.44971.571411 4.05602 1.06296 4.54757 1.66927 4.54757H4.27941C4.73912 5.91295 6.03057 6.89941 7.54899 6.89941 9.06741 6.89941 10.3589 5.91295 10.8186 4.54757H27.5398C28.1462 4.54757 28.6377 4.05602 28.6377 3.44971 28.6377 2.84339 28.1462 2.35184 27.5398 2.35184zM7.54892 4.70369C6.85749 4.70369 6.29494 4.14114 6.29494 3.44971 6.29494 2.75827 6.85749 2.19573 7.54892 2.19573 8.24035 2.19573 8.8029 2.75827 8.8029 3.44971 8.8029 4.14114 8.24035 4.70369 7.54892 4.70369zM27.5397 11.7596H24.9296C24.4699 10.3942 23.1783 9.40771 21.66 9.40771 20.1416 9.40771 18.8502 10.3942 18.3905 11.7596H1.66921C1.0629 11.7596.57135 12.2511.57135 12.8574.57135 13.4637 1.0629 13.9553 1.66921 13.9553H18.3905C18.8502 15.3207 20.1417 16.3071 21.6601 16.3071 23.1784 16.3071 24.4699 15.3207 24.9296 13.9553H27.5398C28.1461 13.9553 28.6376 13.4637 28.6376 12.8574 28.6376 12.2511 28.1461 11.7596 27.5397 11.7596zM21.6601 14.1114C20.9686 14.1114 20.4061 13.5489 20.4061 12.8574 20.4061 12.166 20.9686 11.6034 21.6601 11.6034 22.3515 11.6034 22.914 12.166 22.914 12.8574 22.914 13.5489 22.3515 14.1114 21.6601 14.1114zM27.5397 21.1668H15.5222C15.0625 19.8014 13.771 18.8149 12.2526 18.8149 10.7342 18.8149 9.44275 19.8014 8.98303 21.1668H1.66921C1.0629 21.1668.57135 21.6583.57135 22.2646.57135 22.871 1.0629 23.3625 1.66921 23.3625H8.98303C9.44275 24.7279 10.7342 25.7144 12.2526 25.7144 13.771 25.7144 15.0625 24.7279 15.5222 23.3625H27.5398C28.1461 23.3625 28.6376 22.871 28.6376 22.2646 28.6376 21.6583 28.1461 21.1668 27.5397 21.1668zM12.2526 23.5187C11.5612 23.5187 10.9986 22.9562 10.9986 22.2647 10.9986 21.5733 11.5612 21.0107 12.2526 21.0107 12.9441 21.0107 13.5066 21.5732 13.5066 22.2646 13.5066 22.9561 12.9441 23.5187 12.2526 23.5187z"/></symbol><symbol viewBox="0 0 18 18" id="svg-footer-inst"><path d="M8.8982 0.742721C5.48139 0.742721 2.2368 0.439016 0.997487 3.61711C0.485578 4.92972 0.559918 6.63442 0.559918 9.07534C0.559918 11.2173 0.491224 13.2304 0.997487 14.5326C2.23397 17.7126 5.50492 17.408 8.89631 17.408C12.1682 17.408 15.5417 17.7483 16.7961 14.5326C17.3089 13.2069 17.2337 11.5276 17.2337 9.07534C17.2337 5.82015 17.4134 3.71866 15.8334 2.14089C14.2337 0.542445 12.0703 0.742721 8.89443 0.742721H8.8982ZM8.15104 2.24432C15.2782 2.23304 16.1854 1.44134 15.6848 12.4396C15.5069 16.3295 12.5427 15.9026 8.89914 15.9026C2.25562 15.9026 2.06459 15.7127 2.06459 9.07158C2.06459 2.35339 2.59156 2.24808 8.15104 2.24244V2.24432ZM13.3492 3.62745C12.7968 3.62745 12.3489 4.07502 12.3489 4.62695C12.3489 5.17889 12.7968 5.62645 13.3492 5.62645C13.9015 5.62645 14.3495 5.17889 14.3495 4.62695C14.3495 4.07502 13.9015 3.62745 13.3492 3.62745ZM8.8982 4.7962C6.53344 4.7962 4.61661 6.71246 4.61661 9.07534C4.61661 11.4382 6.53344 13.3535 8.8982 13.3535C11.263 13.3535 13.1788 11.4382 13.1788 9.07534C13.1788 6.71246 11.263 4.7962 8.8982 4.7962ZM8.8982 6.2978C12.5728 6.2978 12.5775 11.8529 8.8982 11.8529C5.2245 11.8529 5.21885 6.2978 8.8982 6.2978Z"/></symbol><symbol viewBox="0 0 17 16" id="svg-footer-tg"><path d="M0.554528 7.78195L4.3202 9.18741L5.77774 13.8749C5.871 14.1751 6.23811 14.286 6.48178 14.0868L8.58083 12.3756C8.80086 12.1964 9.11425 12.1874 9.34419 12.3543L13.1301 15.103C13.3908 15.2925 13.7601 15.1496 13.8255 14.8347L16.5989 1.49412C16.6702 1.15005 16.3321 0.86302 16.0045 0.989729L0.550116 6.95158C0.168733 7.09866 0.172056 7.63862 0.554528 7.78195ZM5.54284 8.43925L12.9024 3.90651C13.0346 3.82528 13.1707 4.00413 13.0571 4.10948L6.98339 9.75532C6.7699 9.95404 6.63219 10.22 6.59318 10.5087L6.38629 12.0419C6.35889 12.2466 6.07131 12.267 6.01482 12.0688L5.2191 9.27288C5.12796 8.95398 5.26077 8.61335 5.54284 8.43925Z"/></symbol><symbol viewBox="0 0 17 16" id="svg-footer-viber"><path fill-rule="evenodd" clip-rule="evenodd" d="M13.7747 2.35413C12.2927 0.863147 10.3218 0.0416764 8.22202 0.040802C3.8953 0.040802 0.37398 3.5792 0.37224 7.92819C0.37166 9.31842 0.733074 10.6755 1.42003 11.8717L0.306396 15.9592L4.46768 14.8623C5.61429 15.4908 6.90515 15.822 8.21883 15.8224H8.22212C12.5484 15.8224 16.0701 12.2837 16.0717 7.9345C16.0726 5.82676 15.2568 3.84502 13.7747 2.35413ZM8.22202 14.4902H8.21931C7.04863 14.4898 5.90048 14.1736 4.89862 13.5764L4.66048 13.4342L2.19111 14.0852L2.85022 11.6659L2.69504 11.4178C2.04192 10.3739 1.69704 9.16744 1.69762 7.92867C1.69897 4.31391 4.62586 1.37303 8.22463 1.37303C9.96731 1.37362 11.6055 2.05644 12.8373 3.29569C14.069 4.53494 14.747 6.18216 14.7464 7.93402C14.7449 11.5491 11.8182 14.4902 8.22202 14.4902ZM11.8008 9.57997C11.6047 9.48126 10.6403 9.0046 10.4605 8.93873C10.2809 8.87295 10.1499 8.84021 10.0193 9.03744C9.88851 9.23467 9.51269 9.67868 9.39821 9.81014C9.28373 9.94169 9.16945 9.95821 8.97327 9.85949C8.7771 9.76088 8.14515 9.55267 7.39593 8.88121C6.81291 8.3586 6.4193 7.71317 6.30482 7.51594C6.19054 7.31852 6.30386 7.22214 6.39087 7.11371C6.6032 6.84876 6.81581 6.57099 6.88117 6.43953C6.94663 6.30798 6.91385 6.19285 6.86474 6.09423C6.81581 5.99562 6.42355 5.02549 6.26015 4.63074C6.10082 4.24658 5.93925 4.29846 5.81878 4.29244C5.7045 4.2867 5.57368 4.28554 5.44286 4.28554C5.31214 4.28554 5.09963 4.3348 4.91979 4.53222C4.74005 4.72955 4.23341 5.2063 4.23341 6.17643C4.23341 7.14655 4.93623 8.08374 5.03427 8.21529C5.13231 8.34684 6.41737 10.3376 8.38484 11.1912C8.8528 11.3945 9.21808 11.5156 9.50302 11.6065C9.97291 11.7565 10.4004 11.7353 10.7384 11.6846C11.1153 11.628 11.8987 11.2078 12.0623 10.7474C12.2257 10.287 12.2257 9.89243 12.1766 9.81014C12.1277 9.72794 11.9969 9.67868 11.8008 9.57997Z"/></symbol><symbol viewBox="0 0 28 28" id="svg-header-phone"><path d="M25.5433 18.3006C23.8597 18.3006 22.2065 18.0373 20.64 17.5196C19.8723 17.2577 18.9287 17.4979 18.4602 17.9791L15.3681 20.3133C11.7821 18.3991 9.57326 16.191 7.68522 12.6319L9.95074 9.62041C10.5393 9.0326 10.7505 8.17394 10.4975 7.36828C9.9776 5.79347 9.71348 4.14111 9.71348 2.45673C9.71356 1.23993 8.72363 0.25 7.5069 0.25H2.45665C1.23993 0.25 0.25 1.23993 0.25 2.45666C0.25 16.4036 11.5964 27.75 25.5433 27.75C26.7601 27.75 27.75 26.7601 27.75 25.5433V20.5072C27.7499 19.2905 26.76 18.3006 25.5433 18.3006Z"/></symbol><symbol viewBox="0 0 1246 282" fill="none" id="svg-hero-logo"><g filter="url(#ofilter0_d_97_6719)" fill="#BD2D43"><path d="M186.756 102H173.484 126.544 107.153 100V182H126.544V128.657H173.484V182H200V102H186.756zM991.191 102V127.974H943.781V102H917V182H943.781V154.65H991.191V182H1018V102H991.191zM890 121.966V100H826.989 807.273 800V180H807.273 826.989 890V158.034H826.989V150.983H885.341V129.017H826.989V121.966H890zM443 100H403.075 375.925 336V126.657H375.925V180H403.075V126.657H443V100zM287.111 182H256.917C246.207 181.98 235.93 177.721 228.284 170.134 220.637 162.547 216.228 152.233 216 141.4V140.6C216.221 129.764 220.628 119.447 228.276 111.858 235.924 104.269 246.205 100.013 256.917 100H287.111C297.823 100.005 308.105 104.261 315.75 111.852 323.395 119.443 327.793 129.764 328 140.6V141.4C327.786 152.233 323.385 162.551 315.742 170.14 308.098 177.73 297.82 181.987 287.111 182zM241.961 141C242.064 144.906 243.67 148.617 246.438 151.342 249.205 154.067 252.914 155.591 256.776 155.59H286.97C288.864 155.59 290.739 155.212 292.488 154.479 294.238 153.746 295.827 152.671 297.166 151.317 298.505 149.962 299.567 148.353 300.292 146.583 301.017 144.813 301.39 142.916 301.39 141 301.39 139.084 301.017 137.187 300.292 135.417 299.567 133.647 298.505 132.038 297.166 130.683 295.827 129.329 294.238 128.254 292.488 127.521 290.739 126.788 288.864 126.41 286.97 126.41H256.917C253.055 126.409 249.346 127.933 246.579 130.658 243.811 133.383 242.205 137.094 242.102 141M1105.47 179.889H1075.56C1064.94 179.891 1054.75 175.743 1047.16 168.337 1039.58 160.932 1035.21 150.857 1035 140.279V139.61C1035.21 129.041 1039.57 118.975 1047.14 111.571 1054.71 104.166 1064.9 100.012 1075.5 100H1105.41C1116.03 99.9977 1126.23 104.144 1133.82 111.549 1141.41 118.955 1145.78 129.029 1146 139.61V140.39C1145.78 150.962 1141.42 161.028 1133.84 168.431 1126.26 175.835 1116.08 179.988 1105.47 180V179.889zM1060.74 140C1060.85 143.808 1062.45 147.424 1065.19 150.082 1067.93 152.739 1071.6 154.228 1075.42 154.234H1105.33C1109.12 154.234 1112.75 152.734 1115.43 150.065 1118.11 147.396 1119.61 143.775 1119.61 140 1119.61 136.225 1118.11 132.604 1115.43 129.935 1112.75 127.266 1109.12 125.766 1105.33 125.766H1075.42C1071.6 125.772 1067.93 127.261 1065.19 129.918 1062.45 132.576 1060.85 136.192 1060.74 140zM557 133.882C556.845 125.382 553.339 117.282 547.237 111.321 541.134 105.36 532.922 102.013 524.362 102H462V182H488.868V166.298H524.362C532.922 166.284 541.134 162.938 547.237 156.977 553.339 151.016 556.845 142.915 557 134.416V133.882zM524.362 140.315H488.868V127.955H524.362C526.013 127.955 527.595 128.606 528.762 129.765 529.929 130.924 530.584 132.496 530.584 134.135 530.584 135.774 529.929 137.346 528.762 138.505 527.595 139.664 526.013 140.315 524.362 140.315zM590.088 180L595.184 168.037H638.126L643.222 180H670.395L672 179.324 638.21 100H595.212L561 180H590.088zM616.641 117.847L626.693 141.323H606.616L616.641 117.847zM771.663 102.028H745.35V124.275C744.637 127.558 742.822 130.497 740.205 132.603 737.589 134.709 734.33 135.854 730.972 135.848H712.719C708.823 135.848 705.086 134.306 702.324 131.559 699.561 128.811 697.998 125.082 697.976 121.185 697.976 118.545 697.976 110.68 697.976 102H672C672 110.427 672 118.18 672 121.101V121.86C672.206 132.52 676.583 142.675 684.191 150.143 691.799 157.612 702.031 161.798 712.691 161.803H730.944C735.86 161.805 740.734 160.901 745.322 159.135V182H772V102.028H771.663z"/></g><defs><filter id="ofilter0_d_97_6719" x="0" y="0" width="1246" height="282" filterUnits="userSpaceOnUse" color-interpolation-filters="sRGB"><feFlood flood-opacity="0" result="BackgroundImageFix"/><feColorMatrix in="SourceAlpha" values="0 0 0 0 0 0 0 0 0 0 0 0 0 0 0 0 0 0 127 0" result="hardAlpha"/><feOffset/><feGaussianBlur stdDeviation="50"/><feColorMatrix values="0 0 0 0 0.741176 0 0 0 0 0.176471 0 0 0 0 0.262745 0 0 0 0.7 0"/><feBlend in2="BackgroundImageFix" result="effect1_dropShadow_97_6719"/><feBlend in="SourceGraphic" in2="effect1_dropShadow_97_6719" result="shape"/></filter></defs></symbol><symbol viewBox="0 0 46 12" id="svg-main-slider-arrow"><path d="M0.469669 5.46967C0.176777 5.76256 0.176777 6.23743 0.469669 6.53033L5.24264 11.3033C5.53553 11.5962 6.01041 11.5962 6.3033 11.3033C6.59619 11.0104 6.59619 10.5355 6.3033 10.2426L2.06066 6L6.3033 1.75736C6.5962 1.46446 6.5962 0.989589 6.3033 0.696696C6.01041 0.403802 5.53553 0.403802 5.24264 0.696696L0.469669 5.46967ZM46 5.25L1 5.25L1 6.75L46 6.75L46 5.25Z"/></symbol><symbol viewBox="0 0 31 31" fill="none" id="svg-search"><path d="M12.5556 24.1111C18.9375 24.1111 24.1111 18.9375 24.1111 12.5556 24.1111 6.17361 18.9375 1 12.5556 1 6.17361 1 1 6.17361 1 12.5556 1 18.9375 6.17361 24.1111 12.5556 24.1111zM30 30L21 21"/></symbol></svg>