<svg width="17" height="15" fill="none" xmlns="http://www.w3.org/2000/svg"><path d="M15.732 1.372H5.976A2.015 2.015 0 004.07 0c-.886 0-1.639.575-1.907 1.372H.64a.64.64 0 000 1.28h1.523A2.015 2.015 0 004.07 4.026c.886 0 1.64-.576 1.908-1.372h9.754a.64.64 0 100-1.281zM4.07 2.744a.732.732 0 11.002-1.465.732.732 0 01-.002 1.465zM15.732 6.86h-1.523a2.016 2.016 0 00-1.907-1.372c-.886 0-1.64.575-1.907 1.372H.64a.64.64 0 000 1.28h9.755a2.015 2.015 0 001.907 1.372c.886 0 1.639-.575 1.907-1.372h1.523a.64.64 0 100-1.28zm-3.43 1.371a.732.732 0 11.001-1.464.732.732 0 01-.001 1.464zm3.43 4.116h-7.01a2.015 2.015 0 00-1.908-1.372c-.886 0-1.639.576-1.907 1.372H.64a.64.64 0 100 1.281h4.267A2.015 2.015 0 006.814 15c.886 0 1.64-.575 1.907-1.372h7.01a.64.64 0 100-1.28zM6.814 13.72a.732.732 0 11.002-1.464.732.732 0 01-.002 1.464z" fill="#fff"/></svg>