<svg width="31" height="30" fill="none" xmlns="http://www.w3.org/2000/svg"><circle cx="15.821" cy="15" r="15" fill="#fff"/><path d="M15.898 6.743c-3.417 0-6.662-.304-7.901 2.874-.512 1.313-.438 3.017-.438 5.458 0 2.142-.068 4.155.438 5.458 1.236 3.18 4.507 2.875 7.899 2.875 3.272 0 6.645.34 7.9-2.875.512-1.326.437-3.005.437-5.458 0-3.255.18-5.356-1.4-6.934-1.6-1.598-3.763-1.398-6.94-1.398h.005zm-.748 1.501c7.128-.01 8.035-.803 7.534 10.196-.178 3.89-3.142 3.463-6.785 3.463-6.644 0-6.835-.19-6.835-6.831 0-6.719.527-6.824 6.086-6.83v.002zm5.199 1.384a1 1 0 100 2 1 1 0 000-2zm-4.451 1.168a4.28 4.28 0 100 8.557 4.279 4.279 0 100-8.557zm0 1.502c3.674 0 3.68 5.555 0 5.555-3.674 0-3.68-5.555 0-5.555z" fill="#BD2D43"/></svg>