<svg width="31" height="30" fill="none" xmlns="http://www.w3.org/2000/svg"><circle cx="15.821" cy="15" r="15" fill="#101010"/><path d="M15.898 6.743c-3.417 0-6.661-.304-7.9 2.874-.512 1.313-.438 3.017-.438 5.458 0 2.142-.069 4.155.437 5.458 1.237 3.18 4.508 2.875 7.9 2.875 3.271 0 6.645.34 7.9-2.875.512-1.326.437-3.005.437-5.458 0-3.255.18-5.356-1.4-6.934-1.6-1.599-3.764-1.398-6.94-1.398h.004zm-.747 1.501c7.127-.011 8.034-.803 7.534 10.196-.178 3.89-3.142 3.463-6.786 3.463-6.643 0-6.834-.19-6.834-6.831 0-6.719.527-6.824 6.086-6.83v.002zm5.198 1.383a1 1 0 100 2 1 1 0 000-2zm-4.45 1.17a4.28 4.28 0 100 8.557 4.279 4.279 0 100-8.558zm0 1.5c3.674 0 3.679 5.556 0 5.556-3.674 0-3.68-5.555 0-5.555z" fill="#BD2D43"/></svg>