<svg width="97" height="88" fill="none" xmlns="http://www.w3.org/2000/svg"><g filter="url(#filter0_d)"><path d="M65.103 30H31.898C30.854 30 30 30.97 30 32.154v23.692c0 1.185.854 2.154 1.898 2.154h33.205C66.146 58 67 57.03 67 55.846V32.154C67 30.969 66.146 30 65.103 30zm-.713 1.615l-14.798 12.6c-.267.23-.675.374-1.092.372-.417.002-.825-.142-1.092-.372l-14.799-12.6H64.39zm-7.905 13.432l8.064 11.308.027.03H32.424c.008-.011.018-.02.026-.03l8.065-11.308c.247-.347.2-.855-.106-1.136-.306-.28-.753-.228-1 .12l-7.986 11.196V32.625l15.132 12.883c.569.48 1.26.692 1.945.694a2.991 2.991 0 001.945-.694l15.132-12.883v22.602L57.592 44.03c-.248-.347-.696-.4-1.001-.12-.306.281-.353.79-.106 1.137z" fill="#CB3B48"/></g><defs><filter id="filter0_d" x="0" y="0" width="97" height="88" filterUnits="userSpaceOnUse" color-interpolation-filters="sRGB"><feFlood flood-opacity="0" result="BackgroundImageFix"/><feColorMatrix in="SourceAlpha" values="0 0 0 0 0 0 0 0 0 0 0 0 0 0 0 0 0 0 127 0"/><feOffset/><feGaussianBlur stdDeviation="15"/><feColorMatrix values="0 0 0 0 0.741176 0 0 0 0 0.176471 0 0 0 0 0.262745 0 0 0 1 0"/><feBlend in2="BackgroundImageFix" result="effect1_dropShadow"/><feBlend in="SourceGraphic" in2="effect1_dropShadow" result="shape"/></filter></defs></svg>