<svg width="174" height="38" fill="none" xmlns="http://www.w3.org/2000/svg"><path d="M54.228 5.177H43.285v10.038h3.348V8.522h5.921v6.693H55.9V5.177h-1.67zm100.313.085v3.26h-5.921v-3.26h-3.345v10.041h3.345V11.87h5.921v3.433h3.348V5.263h-3.348zm-12.585 2.594V5.1h-11.165v10.037h11.165v-2.756h-7.817v-.884h7.239V8.74h-7.239v-.885h7.817zM86.084 5.1H72.89v3.345h4.923v6.692h3.349V8.445h4.923V5.1zM66.749 15.293h-3.771a5.121 5.121 0 01-5.11-5.012v-.099a5.117 5.117 0 015.11-5.012h3.77a5.11 5.11 0 015.108 5.012v.099a5.115 5.115 0 01-5.107 5.012zm-5.64-5.061a1.85 1.85 0 001.851 1.8h3.771a1.8 1.8 0 100-3.601h-3.753a1.85 1.85 0 00-1.85 1.8m107.761 4.949h-3.771a5.116 5.116 0 01-5.114-5.012v-.084a5.114 5.114 0 015.107-5.012h3.771a5.119 5.119 0 015.117 5.012v.098a5.115 5.115 0 01-5.11 5.012v-.014zm-5.639-5.047a1.857 1.857 0 001.85 1.801h3.771a1.802 1.802 0 000-3.602H165.1a1.853 1.853 0 00-1.85 1.801zm-62.759-.92a4.072 4.072 0 00-4.067-4h-7.772V15.25h3.349v-1.97h4.423a4.074 4.074 0 004.067-4v-.068zm-4.067.807H92V8.47h4.423a.775.775 0 110 1.55zm8.127 5.107l.638-1.498h5.375l.638 1.498h3.401l.2-.085-4.229-9.931h-5.382l-4.282 10.016h3.641zm3.323-7.782l1.259 2.94h-2.513l1.254-2.94zm19.437-2.132h-3.302v2.792a1.848 1.848 0 01-1.805 1.452h-2.291a1.847 1.847 0 01-1.85-1.84V5.21h-3.26V7.7a5.11 5.11 0 005.107 5.012h2.291a5.02 5.02 0 001.804-.335v2.87h3.348V5.212h-.042z" fill="#BD2D43"/><path d="M45.506 21.781c0 1.057-.032 2.143-.081 3.214-.018.353-.04.73-.067 1.096 0 .152-.025.3-.043.448 0 .032-.028.226 0 .116a1.88 1.88 0 01-.031.205c0 .088-.04.172-.057.257-.017.085 0 0 0 0v.025a.405.405 0 01.617-.11c.025.022.123.219.085.12.028.074 0 .106 0 0v-.169c.128-.643.318-1.272.567-1.878.261-.7.617-1.36 1.057-1.963.177-.248.397-.462.649-.631a.869.869 0 01.303-.134c.12-.035-.088 0 .035 0h.078a.645.645 0 01.116 0h.039a.593.593 0 01.409.328c.133.245.221.513.26.789.105.764.112 1.539.022 2.305 0 .173-.032.352-.053.515v.119c0 .032-.018.117-.025.177-.018.123-.039.246-.06.37a.433.433 0 00.85.172c.252-1.228.306-2.49.162-3.736-.095-.704-.353-1.49-1.005-1.804-.652-.314-1.483.025-2.04.564a6.924 6.924 0 00-1.41 2.178 11.52 11.52 0 00-.776 2.294 1.888 1.888 0 00-.06.78.465.465 0 00.73.292.962.962 0 00.331-.656c.06-.343.1-.689.124-1.036.116-1.438.14-2.88.148-4.314 0-.567-.878-.504-.881.067m6.743.571c0 .705.032 1.438.081 2.15.038.57.103 1.139.198 1.702.045.413.18.811.394 1.167a.437.437 0 00.603.116.466.466 0 00.159-.616 1.273 1.273 0 01-.11-.19c.05.108 0-.029-.017-.05-.018-.021-.032-.095-.046-.141a5.275 5.275 0 01-.141-.631 14.417 14.417 0 01-.166-1.526 30.332 30.332 0 01-.074-2.048c0-.567-.88-.504-.88.067zm.673-3.081c-.13.183-.248.374-.353.571a4.04 4.04 0 00-.254.585 1.41 1.41 0 00-.056.655.388.388 0 00.2.251.436.436 0 00.353.021.504.504 0 00.265-.225.525.525 0 00.045-.353c0 .04 0 .078.018.117a.703.703 0 010-.173c0 .039 0 .078-.018.116a1.85 1.85 0 01.113-.384l-.046.11c.134-.317.302-.619.5-.9a.466.466 0 00.047-.352.406.406 0 00-.379-.296.435.435 0 00-.178.028.578.578 0 00-.264.222m5.402 1.77a2.855 2.855 0 00-1.85.74c-1.152.997-1.572 2.837-1.41 4.23.096.916.758 1.582 1.703 1.078.74-.395.895-1.244 1.12-1.977.314-1.037.6-2.08.875-3.123l-.864-.053a55.854 55.854 0 01-.25 5.787 13.395 13.395 0 01-.744 3.606 6.259 6.259 0 01-.962 1.787c-.038.042-.183.236-.257.236h.021c-.204 0-.352-.48-.391-.635-.155-.666.05-1.41.254-2.086.203-.628.45-1.242.736-1.836a.427.427 0 00-.758-.395c-.592 1.255-1.233 2.7-1.156 4.074.036.656.282 1.354.871 1.674.589.321 1.079-.144 1.41-.588a9.339 9.339 0 001.621-4.124c.233-1.536.372-3.085.416-4.638.039-.973.063-1.949.06-2.922a.437.437 0 00-.867-.053 90.408 90.408 0 01-.56 2.048c-.149.522-.3 1.057-.466 1.554-.06.177-.116.353-.183.522 0 .032-.152.303-.07.187a.73.73 0 01-.434.26h-.081a.541.541 0 01-.13-.24c-.19-.609-.029-1.434.126-2.05a3.336 3.336 0 01.769-1.516 2.012 2.012 0 011.455-.645c.56.021.557-.867 0-.888m2.463-4.236l-.402 8.592c-.02.406-.038.81-.056 1.216-.025.508.733.54.863.057.32-1.33.83-2.606 1.516-3.79a1.85 1.85 0 01.543-.612.162.162 0 01.095-.029h.025a.412.412 0 01.151.194c.3.617.236 1.484.212 2.171-.014.395-.043.79-.085 1.184 0 .138-.028.275-.046.413-.018.137 0-.053 0 .06-.077.567.769.747.85.176.08-.57.14-1.209.165-1.811.039-.871.078-1.907-.317-2.676-.395-.768-1.191-.754-1.801-.165-.705.666-1.082 1.674-1.41 2.54a21.43 21.43 0 00-.726 2.168l.867.057.402-8.596c0-.406.039-.81.056-1.216.029-.575-.852-.504-.88.067m6.041-3.06a111.202 111.202 0 00-.78 12.495 11.98 11.98 0 00.445 3.15c.151.54 1.004.247.849-.296-.536-1.871-.486-3.972-.448-5.935.04-1.963.515-6.344.705-8.275.035-.402.074-.804.12-1.21.064-.574-.817-.5-.881.071" fill="#fff"/><path d="M63.554 21.052l8.998-2.605 1.297-.38a.438.438 0 10-.233-.846l-8.997 2.615-1.297.373a.437.437 0 00.232.843zm16.171.113c-.106-.948-.504-2.076-1.41-2.446-1.445-.589-2.82.842-3.404 2.114a8.81 8.81 0 00-.776 4.406c.11 1.057.642 2.467 1.97 1.988a6.355 6.355 0 001.58-.938 9.384 9.384 0 001.321-1.16 5.17 5.17 0 00.945-1.286c.246-.536-.511-.937-.762-.402-.475 1.03-1.557 1.879-2.491 2.468-.217.146-.442.28-.673.401l-.134.053c-.025 0-.173.05-.096.035a.705.705 0 01-.12 0h-.049c-.102 0-.053 0-.158-.06.052.036-.11-.102-.11-.102s-.095-.151-.13-.222a3.01 3.01 0 01-.176-.606 7.522 7.522 0 01.398-3.62c.328-.969 1.004-2.305 2.164-2.305.507 0 .814.444.987.857.086.214.154.436.2.663l.043.218c.025.14 0-.05 0 0 .064.564.945.508.881-.064m2.104-5.113a62.123 62.123 0 00-.236 4.038c-.064 2.224-.102 4.558.412 6.697.187.775.494 1.737 1.248 2.09.5.236.948-.575.444-.81a1.058 1.058 0 01-.476-.515 4.373 4.373 0 01-.352-.994 15.791 15.791 0 01-.377-2.975c-.085-2.07-.05-4.144.105-6.21.032-.462.064-.923.11-1.385.052-.582-.829-.511-.882.067m2.645 5.237a14.22 14.22 0 000 1.597c.05.772.109 1.737.617 2.326.56.648 1.41.218 1.836-.437.497-.765.683-1.745.828-2.615.115-.674.191-1.355.23-2.037l-.882.063.254 5.382.035.775a.442.442 0 10.881-.063c-.085-1.793-.168-3.587-.25-5.382 0-.26-.025-.518-.039-.775-.025-.582-.85-.518-.881.063a11.299 11.299 0 01-.673 3.676c-.066.162-.145.32-.236.469a1.108 1.108 0 01-.205.236.405.405 0 01-.08.053c.084-.046.017 0 0 0-.11.07 0 0-.089.021.081-.025.046.021 0 0 0 0 .092.025.018 0s-.099-.07 0 0a.43.43 0 01-.13-.162c0-.028-.085-.176-.06-.12a3.02 3.02 0 01-.138-.462 6.745 6.745 0 01-.138-1.057 14.18 14.18 0 010-1.597c.032-.585-.849-.518-.88.064m6.53 3.788c.14-.792.134-1.596.285-2.392.08-.527.235-1.04.462-1.523a1.22 1.22 0 01.317-.423.704.704 0 01.18-.084h-.018c.081.031.103.06.162.169.074.136.13.28.166.43a6.2 6.2 0 01.17 1.35c.047 1.049-.057 2.1-.31 3.119a2.971 2.971 0 01-.378.913c-.085.105 0 0-.085.08.032-.035.082 0 .018 0a1.29 1.29 0 01-.606-.306 3.637 3.637 0 01-.828-1.325c-.057-.138-.1-.282-.152-.42-.053-.137 0 .159 0 .029.081-.571.067-1.163.099-1.73l.18-3.173.296-5.227c.031-.585-.85-.514-.882.067-.098 1.713-.196 3.425-.292 5.135-.067 1.181-.13 2.358-.198 3.525a7.398 7.398 0 00-.07 1.625c.103.398.26.78.469 1.135a3.112 3.112 0 001.258 1.41c.997.49 1.607-.269 1.917-1.213.345-1.142.495-2.333.444-3.525 0-.86-.045-2.114-.704-2.706a1.029 1.029 0 00-1.319 0c-.514.373-.775 1.057-.951 1.628-.19.692-.32 1.4-.388 2.115-.032.274-.056.55-.081.828l-.021.257c0 .085-.025.201 0 .07a.434.434 0 10.85.18m-73.951 12.29c-5.991 0-9.417-3.109-11.222-5.713A15.6 15.6 0 014.27 28.83c-1.9 0-2.223-.148-2.467-.278-.905-.455-1.092-1.385-1.23-2.066-.042-.197-.084-.405-.123-.528-.24-.705-.278-1.681-.31-3.214v-.642c-.021-.79-.06-2.115-.116-2.467a3.525 3.525 0 01.102-1.34c.078-.303.117-.616.116-.93-.046-1.328.208-2.322.75-2.964-.507-2.897-1.057-8.078.836-10.76C4.33.117 8.345-.429 11.263.258c1.218.345 2.393.83 3.5 1.445.807.408 2.153 1.085 2.576 1.057 1.427-.24 6.415-.761 10.447 2.612 3.566 2.981 4.581 5.825 4.934 8.48.828.676 1.166 1.853 1.41 2.713l.123.423c.26.842.24 2.055.215 3.341a15.48 15.48 0 000 1.586c.162 1.22-.148 4.85-1.847 6.196-.398.299-.86.5-1.35.589a17.736 17.736 0 01-2.217 3.299c-2.086 2.435-5.833 5.357-11.831 5.413l-.166-.014zM6.385 25.718l.353 1.057c.388 1.123.924 2.19 1.593 3.172 1.41 2.006 4.032 4.395 8.712 4.395h.145a12.336 12.336 0 009.533-4.345 14.652 14.652 0 002.115-3.345l.373-.814.889-.074c.213-.01.424-.044.63-.099.353-.43.807-2.393.68-3.359-.06-.68-.074-1.364-.042-2.047 0-.8.035-2.01-.077-2.38a24.778 24.778 0 01-.138-.461 8.601 8.601 0 00-.37-1.103l-.937-.134-.117-1.195c-.27-2.738-1.008-4.81-3.965-7.285-3.03-2.534-6.876-2.114-7.979-1.942-1.367.23-2.869-.525-4.458-1.329a14.39 14.39 0 00-2.82-1.201c-1.949-.459-4.613-.127-6.242 2.174-1.1 1.558-.849 5.946-.148 9.365l.303 1.476-1.145.25a4.28 4.28 0 00-.035.762 6.644 6.644 0 01-.183 1.677c-.022.1-.05.23-.06.3.067.483.098 1.3.14 2.784v.666c-.01.768.038 1.535.145 2.295a5.9 5.9 0 01.201.79h1.713l1.191-.05z" fill="#fff"/><path d="M2.836 15.293s-1.68-7.73.353-10.595 5.353-3.26 7.662-2.72c2.308.539 5.117 2.784 6.735 2.512 1.618-.271 5.763-.542 9.09 2.242s4.229 5.286 4.483 8.557c.254 3.27-27.49 1.903-27.49 1.903l-.833-1.9z" fill="#B63847"/><path d="M28.896 16.643c-1.533-5.833-8.349-6.986-10.925-7.402-2.577-.415-5.907-1.762-8.353 0-2.446 1.763-3.24 7.606-3.24 7.606l9.919 2.513 12.6-2.717z" fill="#872446"/><path d="M26.175 11.395c.353.049 1.614 1.952 1.037 3.055-.578 1.103-1.36.836-1.763.166-.402-.67-.543-3.39.73-3.221" fill="#FBFBF2"/><path d="M26.175 11.395c.353.049 1.614 1.952 1.037 3.055-.578 1.103-1.36.836-1.763.166-.402-.67-.543-3.39.73-3.221" fill="#CDCCCD"/><path d="M25.312 14.697c-.32-.529-.51-2.234.021-3.045a.849.849 0 01.864-.412c.264.035.652.56.899 1.036.211.412.666 1.459.253 2.248-.352.67-.754.822-1.032.832h-.025a1.216 1.216 0 01-.98-.659zm.282-2.876c-.444.68-.278 2.277 0 2.714a.902.902 0 00.73.508c.275 0 .54-.24.761-.663.29-.553.042-1.308-.134-1.706a2.608 2.608 0 00-.786-1.124.543.543 0 00-.557.271" fill="#2A1F2E"/><path d="M23.962 9.474c.74 0 1.631 1.878 1.885 3.172.254 1.293-.151 2.446-1.17 2.52-1.018.074-1.635.028-2.196-.391-.56-.42-.352-2.08 0-3.098.353-1.019.353-2.22 1.48-2.21" fill="#FBFBF2"/><path d="M22.474 11.6c.352-1.02.352-2.221 1.477-2.214.74 0 1.631 1.882 1.885 3.172.044.216.068.435.07.655-.37-1.18-1.088-2.467-1.698-2.467-1.124 0-1.12 1.195-1.48 2.214a6.575 6.575 0 00-.353 1.656c-.45-.518-.257-2.051.085-3.017" fill="#DFDFE0"/><path d="M22.379 14.905c-.652-.49-.416-2.242-.053-3.27a8.78 8.78 0 00.194-.677c.215-.808.433-1.643 1.41-1.643.916 0 1.811 2.157 2.037 3.306.172.885.056 1.674-.328 2.175a1.326 1.326 0 01-.983.535c-.25.018-.48.029-.705.029a2.465 2.465 0 01-1.607-.455h.035zm1.537-5.287c-.705 0-.885.536-1.118 1.41a9.82 9.82 0 01-.204.705c-.388 1.103-.494 2.587-.053 2.918.529.402 1.117.437 2.086.353a1.03 1.03 0 00.762-.41 2.485 2.485 0 00.268-1.924c-.261-1.332-1.146-3.052-1.73-3.055" fill="#2A1F2E"/><path d="M26.73 6.792c-3.326-2.784-7.471-2.513-9.089-2.242-1.617.272-4.426-1.966-6.72-2.513-2.295-.546-5.64-.165-7.674 2.718-2.033 2.883-.352 10.594-.352 10.594l.818 1.903s.905.043 2.39.099c.084-.416.175-.81.264-1.191h-.113c.028-.215.74-5.259 3.21-7.05 1.84-1.328 4.18-.838 6.246-.408.73.167 1.469.295 2.213.38 5.523.494 9.164 2.77 10.813 6.764.12.271.216.553.286.842 1.41-.32 2.262-.754 2.213-1.335-.271-3.26-1.156-5.773-4.483-8.558" fill="#B63847"/><path opacity=".38" d="M3.316 15.444s-2.08-7.732.423-10.594C5.5 2.834 8.035 2.03 10.375 1.935c-2.28-.416-5.364.067-7.288 2.795-2.024 2.866-.353 10.595-.353 10.595l.814 1.903.705.032-.937-1.816z" fill="#872446"/><path opacity=".8" d="M6.17 14.341c-.848-.041-4.15-2.276-2.86-1.891 1.501.447 2.048 1.41 3.778.493.416-.222-1.843-.046-3.045-1.685-.183-.246 3.045 1.685 4.508.494.437-.353-1.463-.205-2.115-1.315-.652-1.11-.592-1.762-.592-1.762s1.385 1.48 2.784 1.893c1.4.412 1.89.246 1.95.038.06-.207-3-2.403-2.82-2.706.18-.303 2.893 2.379 3.443 2.114.55-.264-.61-.616-1.34-1.233-.729-.617-1.8-2.291-1.529-2.615.272-.325 1.59 2.368 2.443 2.78.853.413 1.522.705 2.069.328.546-.377-.18-.328-.547-1.41-.366-1.082-.416-2.301-.123-2.301.292 0 .352 1.808.867 2.386.514.578.839 1.11 1.265.863.427-.246-.472-2.82-.098-2.91.373-.092.771 2.632 1.134 2.703.74.148-.056-2.718.303-2.795.36-.078.674 2.713.674 2.713.67.247 1.212-.595 1.258-1.25.046-.596.039-1.481.24-1.71.352-.405 0 3.242.267 3.373.399.194 1.058-.606 1.308-1.347.25-.74.3-1.279.448-1.233.253.081-.504 2.499-.166 2.594a1.995 1.995 0 002.256-.74c.61-.74 1.032-2.037 1.219-1.974.187.064-1.463 3.172-.976 3.394.486.222 1.22-.187 1.889-.927.67-.74.662-1.1.853-.987.19.113-1.586 2.305-1.096 2.633.49.328 1.706.042 2.192-.493.486-.536.923-1.27 1.096-1.153.173.117-1.762 1.893-1.463 2.263.3.37 1.364-.49 1.463-.412.099.077-1.096.704-.793 1.029.303.324.793.444 2.009.236.352-.06 1.057-.374 1.114-.208.056.165-1.763.507-1.763.878 0 .37.804.704.79.82-.014.117-6.76-.204-6.76-.204l-8.416 1.956-7.12-.719z" fill="#872446"/><path d="M3.228 9.523c.388.145-.124-1.762 1.579-4.077a4.13 4.13 0 014.025-1.763c1.135.205 1.882-.409 1.543-.747-.338-.338-3.006.155-4.007.68a5.96 5.96 0 00-2.717 2.552c-.543 1.012-1.17 3.087-.423 3.359m8.398-6.204c.528-.236 1.223 1.104 2.512 1.29.684.1.948.272.744.476-.204.205-1.304.053-2.164-.476-.68-.423-1.706-1.018-1.092-1.29zm6.63 1.985c-.148-.353 1.833-.5 3.122-.282 1.29.218 2.25.92 2.038 1.142-.353.352-1.495-.684-2.57-.705-.704-.025-2.386.373-2.59-.138m5.907 1.259c-.127.33.627.204 1.036.704.194.237.303-.352-.102-.662-.303-.24-.79-.405-.934-.032" fill="#CE9DAD"/><path d="M5.828 8.674c.1.232.218.456.353.67a4.3 4.3 0 00.45.599c.166.186.353.351.558.493l.155.106.165.091c.11.07.23.103.353.163a2.517 2.517 0 01-.705-.307 2.93 2.93 0 01-.582-.5 3.877 3.877 0 01-.447-.61 3.387 3.387 0 01-.3-.705zm2.408-3.091c.106.268.219.532.332.793.112.26.236.518.373.772.134.25.28.492.44.726.166.231.35.45.55.652a2.89 2.89 0 01-.648-.578 4.841 4.841 0 01-.476-.73 5.526 5.526 0 01-.564-1.635m-.671 1.924c.23.296.448.585.705.857.12.134.25.257.384.38.138.121.284.232.437.332a1.664 1.664 0 01-.514-.236 2.361 2.361 0 01-.423-.374 2.992 2.992 0 01-.335-.451 2.231 2.231 0 01-.24-.508m4.559-1.924c.025.204.05.409.07.61.022.2.046.405.078.606.025.199.06.396.106.592.044.198.109.39.194.574a1.497 1.497 0 01-.31-.539c-.07-.196-.12-.4-.145-.606a4.157 4.157 0 010-1.237m2.082.194c.106.39.176.782.25 1.173l.106.585c.031.198.075.393.13.585a2.059 2.059 0 01-.25-.553 5.97 5.97 0 01-.236-1.79zm1.35-.194a6.713 6.713 0 01.42 2.076c.015.236-.001.473-.05.705 0-.233-.042-.465-.07-.705-.028-.24-.067-.462-.102-.705-.067-.462-.141-.923-.184-1.41m2.111-.201a6.991 6.991 0 01.102 2.404 2.93 2.93 0 01-.211.779c.045-.262.075-.525.092-.79 0-.264.02-.529.024-.793s0-.532 0-.796v-.804m1.677 1.146c.046.401.046.807 0 1.209a4.8 4.8 0 01-.113.595 1.978 1.978 0 01-.229.564c.047-.193.083-.388.11-.585.028-.197.052-.395.077-.592.05-.395.091-.793.17-1.191m3.409 0a9.494 9.494 0 01-.56 1.47 7.67 7.67 0 01-.37.704 2.54 2.54 0 01-.494.617c.147-.213.275-.438.384-.673l.352-.705c.226-.469.448-.937.705-1.41m1.819 1.385a6.838 6.838 0 01-.254.571c-.092.187-.198.353-.303.547a5.14 5.14 0 01-.353.514 1.763 1.763 0 01-.461.42c.159-.132.298-.286.412-.459.12-.165.236-.352.352-.514.222-.353.416-.705.624-1.079m2.248.98c-.113.187-.236.353-.352.54-.116.186-.261.352-.398.514a6.231 6.231 0 01-.438.48c-.15.156-.32.293-.507.405a3.99 3.99 0 00.465-.448c.145-.159.286-.32.42-.486.282-.332.542-.67.82-1.005m.118 1.931c-.15.17-.323.317-.514.437a1.645 1.645 0 01-.631.25c.203-.09.4-.196.588-.317.187-.116.37-.243.557-.352m2.568.909a7.291 7.291 0 01-1.18.518c-.205.07-.413.128-.624.173-.21.05-.426.073-.642.067a3.73 3.73 0 00.628-.123c.209-.057.413-.12.613-.19.204-.064.402-.142.603-.216l.602-.229zM3.873 10.99c.219.172.444.327.673.475.227.146.463.279.705.398.245.121.5.222.761.3.264.075.534.123.807.144A3.073 3.073 0 016 12.22a4.424 4.424 0 01-.783-.285 5.58 5.58 0 01-.705-.42 4.804 4.804 0 01-.638-.525z" fill="#1A1219"/><g opacity=".34" fill="#872446"><path opacity=".34" d="M5.426 6.175c.014.28.073.554.176.814.218.599.6 1.124 1.103 1.516a.2.2 0 00.275 0 .197.197 0 000-.279 3.038 3.038 0 01-1.13-1.882.18.18 0 010-.046c0-.038 0 .05 0 0a.388.388 0 010-.063.286.286 0 010-.056c0-.25-.399-.25-.392 0m-.754.694c.067.15.142.295.225.437.139.267.327.507.553.705a.197.197 0 00.319-.063.19.19 0 00-.044-.212 1.367 1.367 0 01-.148-.138l-.074-.088-.031-.038-.018-.022a3.959 3.959 0 01-.451-.778.194.194 0 00-.268-.07.208.208 0 00-.07.267m5.041-2.108c-.01.304.003.608.042.91.038.546.224 1.071.54 1.519a.198.198 0 00.341-.049.198.198 0 00-.063-.226 2.632 2.632 0 01-.437-1.322 5.464 5.464 0 01-.032-.832c0-.25-.38-.25-.391 0zm11.214 1.361a5.562 5.562 0 01-.176.673c-.058.188-.13.372-.215.55a1.81 1.81 0 01-.32.48c-.173.179.102.457.278.278.29-.337.503-.734.62-1.163.08-.23.143-.466.19-.705a.2.2 0 00-.137-.24.197.197 0 00-.24.137m2.115.934c0 .057 0-.053 0 0v.12a3.07 3.07 0 01-.077.353c-.032.105-.035.14-.057.211l-.038.113v.039s-.029.07 0 .02a1.29 1.29 0 01-.092.177l-.028.042c-.018.029.031-.031 0 0l-.064.06a.197.197 0 00.275.279.92.92 0 00.243-.353c.07-.151.124-.31.163-.472.051-.2.089-.402.112-.606a.197.197 0 00-.194-.194.2.2 0 00-.197.194"/><path opacity=".34" d="M23.608 7.574a7.806 7.806 0 01-.493.857c-.046.067-.092.137-.141.204l-.039.053-.081.099a2.047 2.047 0 01-.254.254c.032-.025 0 0 0 0a.204.204 0 01-.046.028.202.202 0 10.198.352c.271-.184.5-.424.67-.705.169-.25.324-.51.468-.779.028-.056.06-.112.088-.172a.205.205 0 00-.07-.268.197.197 0 00-.268.07m2.436.211a5.115 5.115 0 01-.448.769l-.042.06-.025.031c-.028.04-.06.074-.091.113-.061.073-.127.14-.198.205L25.22 9l-.025.022a.983.983 0 01-.11.074.202.202 0 00-.07.267.198.198 0 00.268.071c.267-.179.496-.409.673-.677.147-.205.277-.42.391-.645l.081-.144a.204.204 0 00-.07-.268.198.198 0 00-.268.07m2.66 2.698a1.67 1.67 0 01-.137.134l-.148.133-.091.075-.043.031-.031.025c-.15.11-.307.209-.473.293a1.32 1.32 0 01-.229.088l-.13.031h-.039c.021 0 .021 0 0 0h-.07a.198.198 0 000 .391 2.026 2.026 0 001.124-.461c.197-.14.38-.297.55-.469.172-.183-.103-.458-.279-.278m1.026 2.249c-.13.042-.26.08-.395.112l-.18.039h-.147c-.021 0 .028 0 0 0-.135.014-.27.014-.406 0a.197.197 0 00-.197.194.208.208 0 00.197.197c.28.011.558-.018.829-.088a3.29 3.29 0 00.412-.12.198.198 0 00.134-.24.194.194 0 00-.24-.133m-.007 1.357l-.126.024-.14.025c.024 0 .03 0 0 0h-.131c-.126.01-.252.01-.377 0h-.135l-.077-.021h-.035c-.053 0 .021 0 0 0a.2.2 0 00-.268.07.197.197 0 00.07.268 1.6 1.6 0 00.825.095c.173-.015.345-.04.515-.077a.194.194 0 00.042-.358.197.197 0 00-.148-.02m-25.57 1.178c.13.031.254.084.38.12.252.067.51.108.769.123a.197.197 0 00.197-.194.205.205 0 00-.197-.197h-.36a3.183 3.183 0 01-.317-.07c-.123-.036-.243-.085-.352-.117a.197.197 0 00-.244.134.205.205 0 00.138.243"/></g><path opacity=".38" d="M31.158 15.265c-.271-3.26-1.156-5.773-4.483-8.558a10.841 10.841 0 00-6.894-2.403 12.959 12.959 0 016.245 2.82c3.328 2.783 4.212 5.286 4.484 8.556a.648.648 0 01-.219.515c.582-.254.895-.56.867-.92" fill="#872446"/><path d="M15.598 17.545c-5.992 0-11.48-.26-11.955-.286h-.095l-.864-2.02c-.07-.32-1.674-7.83.353-10.717 2.026-2.886 5.417-3.355 7.849-2.784 1.103.322 2.167.766 3.172 1.325 1.36.684 2.643 1.332 3.524 1.188 1.269-.215 5.685-.68 9.213 2.273 3.415 2.858 4.268 5.435 4.54 8.667a.782.782 0 01-.25.62c-1.35 1.41-8.71 1.734-15.466 1.734h-.021zm-11.821-.592c1.702.077 24.717 1.092 27.085-1.357a.47.47 0 00.159-.38c-.261-3.152-1.093-5.665-4.427-8.46-3.426-2.868-7.726-2.414-8.96-2.206-.972.162-2.3-.507-3.707-1.216a15.1 15.1 0 00-3.09-1.297c-2.337-.55-5.538-.14-7.511 2.654-1.921 2.718-.399 10.08-.317 10.457l.768 1.805z" fill="#2A1F2E"/><path d="M5.021 25.609S6.833 35.755 17.22 35.657c10.386-.099 13.34-9.576 13.34-9.576l-10.778-2.548-14.76 2.076z" fill="#B63847"/><path opacity=".23" d="M28.967 25.795c.236.726.219 1.311-.11 1.597a1.08 1.08 0 01-1.028.106c.574 1.124.705 2.083.257 2.467-.352.317-1.03.204-1.811-.222.105.532.042.955-.219 1.184-.26.229-.832.226-1.463-.053.41.966.518 1.688.23 1.882-.29.194-.758-.088-1.375-.641.116 1.187-.099 2.075-.642 2.276-.458.17-1.057-.186-1.652-.891-.064.627-.226 1.029-.476 1.078-.353.074-.818-.56-1.237-1.593-.113 1.057-.353 1.762-.705 1.79-.353.029-.769-.704-1.058-1.825-.3 1.17-.704 1.924-1.082 1.892-.377-.031-.61-.729-.704-1.793-.42 1.036-.878 1.67-1.234 1.596-.254-.053-.416-.451-.48-1.078-.592.705-1.194 1.057-1.652.888-.543-.201-.755-1.086-.642-2.273-.613.553-1.12.81-1.374.641-.254-.17-.18-.916.229-1.882-.628.278-1.153.317-1.46.05-.306-.268-.327-.65-.221-1.185-.783.43-1.449.54-1.812.226-.451-.392-.314-1.35.26-2.467a1.095 1.095 0 01-1.032-.106c-.38-.331-.352-1.058.025-1.96l-1.435.201s1.812 10.147 12.198 10.048c10.387-.098 13.34-9.58 13.34-9.58l-1.635-.373z" fill="#872446"/><path opacity=".58" d="M5.691 25.796c.705-.307 1.216-.385 1.41-.166.194.218.042.588-.289 1.114.78-.631 1.47-.889 1.914-.631.444.257.574 1.018.398 2.051.987-1.695 1.917-2.735 2.369-2.534.51.229.246 1.998-.571 4.265 1.18-1.33 2.319-2.013 2.957-1.646.507.296.592 1.201.324 2.414.557-.38 1.1-.522 1.572-.353.472.17.853.674 1.057 1.389.497-1.73 1.09-2.848 1.55-2.774.353.057.565.807.618 1.97.423-1.41 1.008-2.287 1.653-2.287.532 0 1.022.592 1.41 1.59.095-.07.201-.123.313-.159.26-.08.537-.08.797 0-.318-1.41-.24-2.407.31-2.72.55-.315 1.41.105 2.442 1.028-.215-.98-.137-1.713.293-1.995.43-.282 1.17-.056 2.012.564-.73-1.117-1.198-2.076-1.304-2.675l-4.391-1.036-16.618 2.337-.208.257" fill="#872446"/><path d="M10.54 25.979s2.002.863 2.665 1.057c.663.194 2.146.155 2.932.307 1.125.127 2.26.127 3.384 0 .916-.103 3.196-.208 4.095-.642.899-.433 1.738-1.907 1.738-1.907L8.877 24.4s.944 1.272 1.663 1.579z" fill="#4B2435"/><path d="M17.597 27.607a8.34 8.34 0 01-1.487-.102 12.162 12.162 0 00-1.315-.12 8.382 8.382 0 01-1.635-.187c-.663-.204-2.594-1.04-2.679-1.078-.754-.318-1.691-1.576-1.73-1.629l-.19-.257 17.058.423-.127.226c-.035.063-.878 1.526-1.808 1.97-.74.352-2.369.497-3.447.592-.271.021-.515.042-.705.063-.645.067-1.293.1-1.942.099h.007zm-8.399-3.045c.31.38.917 1.057 1.41 1.272.018 0 2.002.864 2.647 1.058a8.09 8.09 0 001.561.172c.455.016.908.058 1.357.127a15.06 15.06 0 003.334 0l.705-.067c1.058-.091 2.65-.229 3.341-.56.635-.303 1.259-1.195 1.53-1.614l-15.885-.388z" fill="#2A1F2E"/><path d="M8.7 29.15c-.264-.285 1.276-1.553 2.065-1.12.79.434-.053 4.025-.352 3.947-.3-.077.028-2.368-.331-2.393-.36-.024-.406.814-.705.638-.3-.176.229-1.223.024-1.276-.204-.052-.33.589-.704.205m3.536 2.477c-.173-.352.409-1.223 1.53-.916 1.12.307.705 1.628.585 1.935-.12.306-.41.814-.483.61-.074-.205.331-1.657-.155-1.808-.487-.152-.557 1.057-.864.94-.306-.116.025-.606-.155-.76-.18-.156-.278.352-.458 0zm8.884-2.023c-.292.085-.08 1.333-.229 1.762-.148.43-.518 1.15-.3 1.248.22.099.385-1.18.78-1.131.395.05.197 1.31.48 1.3.281-.01.168-1.23.5-1.247.33-.018-.155 1.149.155 1.16.31.01.458-1.978.127-1.953-.332.024-1.185.352-1.255.02-.07-.33.137-1.275-.258-1.159zm3.801-2.132c-.113-.137.352 2.238.82 2.34.47.103.706-.493-.82-2.34z" fill="#CE9DAD"/><path d="M16.987 28.816c.032.606.032 1.209.046 1.812 0 .3 0 .599.025.898.025.3.025.603.056.903a4.77 4.77 0 01-.18-.892 9.835 9.835 0 01-.056-.91c-.015-.605.022-1.211.11-1.81zm-1.203-.169c-.08.405-.183.8-.275 1.195l-.137.595-.123.6c-.035-.414.002-.83.109-1.23a4.88 4.88 0 01.426-1.16zm-1.621-.395c-.116.165-.222.335-.328.5-.106.166-.204.353-.296.515a5.697 5.697 0 00-.254.532 7.23 7.23 0 00-.215.56c.006-.204.04-.407.099-.602a3.17 3.17 0 01.994-1.505zm-1.532 0c-.183.352-.352.683-.532 1.032-.081.173-.162.353-.236.526a4.185 4.185 0 00-.183.55 2.44 2.44 0 01.127-.572 5.511 5.511 0 01.5-1.05 4.48 4.48 0 01.324-.486zm-1.156-.782c-.264.215-.517.443-.758.683a3.28 3.28 0 00-.61.814c.05-.167.126-.325.226-.468.097-.143.206-.276.328-.399a3.584 3.584 0 01.814-.641m-1.368-.81c-.26.098-.514.21-.762.334a2.554 2.554 0 00-.67.48c.077-.12.173-.225.283-.314.109-.09.227-.168.352-.233a2.21 2.21 0 01.388-.165c.133-.046.27-.08.409-.102zm8.293 2.167c.08.172.142.352.187.536.045.183.079.37.102.557.049.378.02.761-.084 1.128 0-.19 0-.374-.025-.557-.024-.184-.024-.37-.05-.554-.035-.352-.09-.733-.13-1.11zm1.016.151c.087.088.157.191.208.303.053.113.094.231.12.353.054.245.037.5-.05.736 0-.126-.028-.243-.045-.352-.018-.11-.036-.233-.06-.353-.043-.229-.106-.45-.173-.687zm1.549-.514c.051.085.108.166.169.243a4.219 4.219 0 01.455.78c.082.183.147.374.194.57.045.196.063.398.052.6a7.036 7.036 0 00-.169-.565c-.063-.183-.14-.352-.218-.542-.078-.19-.166-.353-.25-.536l-.127-.268-.06-.137a.492.492 0 01-.046-.145zm1.514-.201c.13.083.249.184.352.3.113.113.212.24.296.376.18.27.27.59.257.913a5.274 5.274 0 00-.169-.433 4.388 4.388 0 00-.222-.399c-.159-.26-.352-.503-.532-.757m1.579-.31a2.112 2.112 0 01.732.704c.057.1.1.207.127.318a2.574 2.574 0 00-.391-.54 8.593 8.593 0 00-.469-.482zm1.454-1.149c.123.047.24.105.353.173a2.51 2.51 0 01.62.486c.088.097.162.206.218.324a3.309 3.309 0 00-.556-.532c-.205-.159-.42-.303-.635-.451z" fill="#1A1219"/><path opacity=".42" d="M16.081 30.525c-.138.31-.246.63-.324.96a3.916 3.916 0 00-.067 1.87.194.194 0 00.24.138.196.196 0 00.137-.24 3.524 3.524 0 01.074-1.698 6.23 6.23 0 01.19-.617l.074-.183c.022-.057 0 .028 0-.032a.201.201 0 00-.067-.268.194.194 0 00-.267.07m1.519-.165c.028.31.039.623.042.937a5.47 5.47 0 01-.165 1.607c-.074.24.303.353.377.106.14-.549.2-1.115.18-1.681 0-.324 0-.649-.043-.97-.021-.25-.412-.253-.391 0zm1.367 0c.028.313.046.627.06.94a5.85 5.85 0 01-.053 1.432c-.053.246.32.352.377.105a5.998 5.998 0 00.067-1.508c0-.324-.032-.649-.06-.97a.204.204 0 00-.197-.197.197.197 0 00-.194.198zm4.44-.955c.11.19.208.384.303.585.096.2.145.331.208.51.032.1.06.195.085.293 0 .043.021.088.028.13v.064a.313.313 0 000 .05.197.197 0 00.194.197.2.2 0 00.197-.198 3.959 3.959 0 00-.373-1.205 8.023 8.023 0 00-.321-.624.202.202 0 10-.352.198m2.925-1.294c.039.028-.046-.039 0 0l.088.074c.091.084.177.174.258.268a.457.457 0 01.035.053 1.183 1.183 0 01.187.317c0 .021 0 .021 0 0a.13.13 0 010 .032.76.76 0 01.081.437.197.197 0 00.197.193.194.194 0 00.194-.193 1.973 1.973 0 00-.864-1.533.197.197 0 00-.267.07.205.205 0 00.07.268M8.352 26.215c-.364.192-.707.42-1.025.68a1.16 1.16 0 00-.265.293.19.19 0 00.07.264.194.194 0 00.265-.067.123.123 0 000-.028s.028-.035 0 0l.028-.028a.93.93 0 01.12-.117l.067-.056.032-.025.155-.112c.187-.13.384-.25.582-.353l.123-.07a.197.197 0 00.07-.268.2.2 0 00-.268-.07m1.008 1.349a3.56 3.56 0 00-1.019 1.057 2.342 2.342 0 00-.267.6.198.198 0 00.377.105 2.36 2.36 0 01.645-1.022c.111-.108.229-.209.352-.303 0 0 .053-.042 0 0l.032-.021.046-.035.042-.029a.202.202 0 10-.197-.352" fill="#872446"/><path d="M16.17 30.229c-.233 0-.138 2.957.158 3.415.296.458.18-.987.285-1.762.106-.775.226-1.642-.444-1.635m-7.148-3.789c0-.166-2.573.409-2.249.99.163.3.31-.352 1.125-.567.814-.215 1.145-.11 1.124-.423zm15.931 4.007c.12-.017-.444-1.878-.856-1.607-.212.141.267.212.482.8.216.589.145.839.374.807z" fill="#CE9DAD"/><path d="M17.057 35.868c-5.336 0-8.364-2.742-9.967-5.054a14.59 14.59 0 01-2.228-5.124l-.028-.159 14.947-2.114h.028l10.944 2.586-.05.159a15.335 15.335 0 01-2.82 4.807c-1.878 2.196-5.258 4.829-10.682 4.882h-.155l.01.017zM5.204 25.795a14.468 14.468 0 002.15 4.85c2.29 3.299 5.604 4.934 9.868 4.91 5.287-.053 8.604-2.619 10.443-4.762a15.535 15.535 0 002.7-4.546l-10.573-2.5-14.588 2.049z" fill="#2A1F2E"/><path d="M2.406 15.35c-.373.22-.542.966-.507 1.95.035.983-.307 1.631-.24 2.072.067.44.102 1.494.138 2.682.035 1.188.024 2.75.232 3.363.208.613.243 1.494.515 1.628.271.134 2.717.137 4.176 0 1.46-.138 8.625-.17 9.745-.236 1.121-.067 6.961-.067 8.286.035 1.325.102 5.84.705 6.827-.07.987-.776 1.357-3.634 1.223-4.653-.134-1.018.134-3.665-.173-4.652-.306-.987-.574-2.376-1.357-2.467a39.394 39.394 0 00-4.483 0c-1.223.067-5.128.218-6.248.218-1.121 0-6.552 0-7.437-.07-.885-.07-6.076.19-7.3.225-1.222.036-1.97-.102-2.512-.102-.543 0-.476-.148-.885.088" fill="#D8E0D1"/><path d="M32.812 21.01c-.144 1.201-.528 2.632-1.184 3.15-.983.783-5.502.17-6.823.067-1.322-.102-7.165-.098-8.286-.031-1.121.067-8.286.102-9.749.236-1.462.134-3.905.137-4.176 0-.272-.138-.303-1.019-.511-1.628-.208-.61-.201-2.175-.236-3.363 0-.306 0-.602-.025-.88a2.6 2.6 0 00-.11.845c.068.44.103 1.494.135 2.682.031 1.188.024 2.753.236 3.362.211.61.24 1.495.51 1.632.272.138 2.718.134 4.177 0 1.46-.134 8.628-.169 9.749-.24 1.12-.07 6.96-.066 8.286.036 1.325.102 5.84.705 6.823-.067.983-.772 1.36-3.634 1.223-4.652a8.995 8.995 0 01-.039-1.15zm-.002-2.612c0 .352 0 .705.022.959 0-.353 0-.663-.022-.96z" fill="#BDCBB5"/><path d="M4.69 27.318c-1.198-.296-1.388-2.114-1.536-6.17-.138-3.835.525-6.028.532-6.049l.151.046c0 .021-.662 2.189-.525 5.992.138 3.876.324 5.758 1.41 6.026l-.032.155z" fill="#484152"/><path d="M5.052 27.28c-1.483-.328-1.512-2.15-1.557-4.907 0-.49-.018-.994-.036-1.53-.109-3.601.554-5.765.56-5.786l.149.049c0 .021-.663 2.16-.55 5.73 0 .54.025 1.058.032 1.534.046 2.685.074 4.458 1.434 4.758l-.032.151zm1.901.003c-.215-.353-.352-1.562-.613-5.89-.26-4.144.352-6.206.352-6.227l.148.046c0 .02-.62 2.061-.352 6.17.264 4.198.395 5.502.592 5.82l-.127.08z" fill="#484152"/><path d="M5.69 15.27l-.124.093.886 1.182.124-.093-.885-1.182zm-.606.01l-.129.087 1.407 2.116.13-.086-1.408-2.116zm-.538.09l-.132.082 1.91 3.054.132-.082-1.91-3.054zm-.465.358l-.132.082 2.457 3.94.131-.083-2.456-3.94zm2.241 5.084l-2.619-4.127.13-.085 2.623 4.127-.134.085zM3.795 17.74l-.13.082 2.656 4.212.13-.082-2.656-4.213zm-.143 1.18l-.13.084 2.976 4.68.13-.082-2.976-4.681zm-.062 1.134l-.13.085 3.043 4.673.13-.085-3.042-4.673zm.058 1.591l-.127.09 3.195 4.48.127-.09-3.195-4.48zm-.002 1.147l-.126.09 2.326 3.276.127-.09-2.327-3.276zm2.866 4.424C5.363 26 3.63 24.167 3.541 24.093l.081-.134s.064.032 3.003 3.151l-.113.106zM3.84 25.369l-.13.087 1.217 1.798.128-.086-1.216-1.8z" fill="#484152"/><path d="M4.708 15.35l-.894.67.094.125.893-.672-.093-.124zm1.059-.183L3.78 16.658l.093.124 1.988-1.49-.093-.125zm-2.131 2.787l-.095-.124 3.193-2.48.095.123-3.193 2.48zm0 .941l-.099-.12 2.954-2.47.102.119-2.957 2.47zm2.744-1.521L3.535 19.92l.104.116 2.845-2.545-.104-.116zm-.089 1.396L3.54 21.013l.098.12 2.752-2.241-.098-.12zm.001 1.123l-2.694 1.946.09.126 2.695-1.946-.091-.126zM3.74 23.06l-.1-.12 2.651-2.128.095.12L3.74 23.06zm2.55-1.106l-2.65 2.194.1.119 2.65-2.193-.1-.12zm.206.921L3.64 25.23l.098.12 2.855-2.355-.098-.12zm-.011.839l-2.542 2.462.108.111 2.542-2.462-.108-.111zm0 .926l-2.083 2.226.114.106 2.082-2.227-.113-.105zm.336.69l-1.366 1.875.126.092 1.366-1.876-.126-.091z" fill="#484152"/><path d="M4.846 15.345s1.086-.084 1.078-.06c-.007.025-.12.416-.33.353-.212-.063-.258-.145-.258-.145a.236.236 0 01-.219.149.674.674 0 00-.204 0 .825.825 0 00.416.098 9.8 9.8 0 00.458-.053l-.06.8h-.476l.353-.409h-.272l.057.194-.353-.024.099-.152h-.271l.215.398-.5-.067s.052-.352.101-.616a1.86 1.86 0 01.162-.47" fill="#DEDEDF"/><path d="M5.229 16.597H5.08l-.589-.081v-.078s.053-.352.102-.624a2.08 2.08 0 01.17-.486l.02-.039h.043c1.103-.084 1.114-.07 1.145-.032l.025.036v.039a.956.956 0 01-.151.306h.024l-.07.966h-.582l.01-.007zm-.138-.261l.074.144.113-.13-.187-.014zm.328.085h.236l.021-.296-.193.225v.018H5.46l-.042.053zm-.75-.057l.281.039-.204-.38h.944v-.226l-.353.038a.963.963 0 01-.462-.105l-.077-.046c0 .046-.025.095-.035.148-.036.18-.074.416-.092.536l-.004-.004zm.521-.173h.092l-.029-.102-.063.102zm.162-.556a.306.306 0 01-.05.045h.111a.242.242 0 01-.06-.035v-.01zm-.455-.201a1.56 1.56 0 00-.07.18l.067-.018a.704.704 0 01.233 0c.091 0 .137-.099.14-.102l.04-.085-.41.028v-.003zm.515.06s.039.06.201.098c.077.021.152-.088.2-.215l-.443.028.042.089z" fill="#484152"/><path d="M4.578 16.428a.705.705 0 00.511.289.705.705 0 00.5-.145h.092l-.032.737s-.052.705-.602.705a.624.624 0 01-.596-.592l.127-.994z" fill="#DEDEDF"/><path d="M5.056 18.105a.684.684 0 01-.67-.666l.152-1.22.117.17a.652.652 0 00.45.254.67.67 0 00.445-.124l.02-.02h.205l-.035.817c-.021.275-.187.786-.673.786l-.01.003zm-.514-.673a.543.543 0 00.518.515c.465 0 .514-.614.514-.642l.032-.641a.864.864 0 01-.518.13.722.722 0 01-.448-.19l-.098.828z" fill="#484152"/><path d="M5.447 17.15h-.705v.155h.705v-.155z" fill="#484152"/><path d="M4.578 18.088s.06.398.416.391a.727.727 0 00.553-.331l.032 1.367s-.074.645-.585.578c-.511-.067-.585-.673-.585-.673a7.86 7.86 0 010-.796 1.3 1.3 0 01.169-.536z" fill="#DEDEDF"/><path d="M5.07 20.174h-.084a.828.828 0 01-.652-.74 7.316 7.316 0 010-.814 1.41 1.41 0 01.18-.571l.112-.176.032.208s.056.335.352.324a.656.656 0 00.487-.293l.137-.229.042 1.632a.92.92 0 01-.282.56.504.504 0 01-.31.103l-.014-.004zm-.493-1.882a1.191 1.191 0 00-.081.353 7.7 7.7 0 000 .786c0 .017.077.539.518.599a.354.354 0 00.268-.078.705.705 0 00.218-.44l-.028-1.153a.705.705 0 01-.476.205.458.458 0 01-.43-.265" fill="#484152"/><path d="M4.658 19.092h.737s-.176.279-.353.261c-.176-.018-.352-.26-.352-.26" fill="#DEDEDF"/><path d="M5.042 19.43h-.02a.705.705 0 01-.427-.292l-.064-.088.102-.032c.255-.017.51-.017.765 0h.141l-.077.116c-.021.032-.198.296-.42.296zm-.211-.264a.405.405 0 00.2.11.284.284 0 00.202-.106H4.83" fill="#484152"/><path d="M5.028 20.22c-.226 0-.631.247-.628.941.004.694.332.814.628.832.296.017.624-.198.588-.945-.035-.747-.282-.828-.588-.828z" fill="#DEDEDF"/><path d="M5.057 22.067h-.035c-.469-.025-.705-.325-.705-.91a1.124 1.124 0 01.285-.824.624.624 0 01.42-.194c.387 0 .634.148.67.902a1.12 1.12 0 01-.24.867.556.556 0 01-.399.162l.004-.003zm-.035-1.759a.458.458 0 00-.307.152.937.937 0 00-.24.704c0 .638.282.74.554.755a.407.407 0 00.313-.117.997.997 0 00.194-.747c-.035-.754-.289-.754-.514-.754" fill="#484152"/><path d="M5.394 21.073c0 .056-.165.106-.352.106-.187 0-.353-.05-.353-.106 0-.056.166-.106.353-.106.187 0 .352.046.352.106z" fill="#DEDEDF"/><path d="M5.024 21.256c-.074 0-.444 0-.444-.183s.353-.183.444-.183c.092 0 .448 0 .448.183s-.37.183-.448.183zm-.24-.183a.94.94 0 00.24.028.953.953 0 00.243-.028.953.953 0 00-.243-.028.944.944 0 00-.24.028z" fill="#484152"/><path d="M4.578 21.968a.49.49 0 00.483.296.86.86 0 00.557-.296v1.206s-.286-.353-.592-.353c-.307 0-.261.127-.261.127l.458.44H4.8a.38.38 0 00.353.272.772.772 0 00.528-.204v.986a1.439 1.439 0 00-.55-.197l-.282-.025.55.494-.384.046.92.317v.45l-.902.29c.147.038.3.052.45.042.154-.024.305-.06.452-.109l.137.863a1.04 1.04 0 01-.352 0 .836.836 0 01-.194-.126s-.155.14-.208.144c-.053.004.744.102.744.102l.084.212h-.144l-.137-.032-.705.092s-.353-.145-.543-1.146a14.9 14.9 0 01-.113-2.64c-.005-.416.015-.833.06-1.247" fill="#DEDEDF"/><path d="M5.165 27.082h-.02c-.04-.018-.403-.19-.59-1.206-.11-.699-.15-1.407-.116-2.114v-.546a9.809 9.809 0 01.06-1.252v-.024l.236-.705-.08.73a.426.426 0 00.398.221.751.751 0 00.496-.267l.141-.173v1.579l.057-.053v1.308l-.12-.078a1.36 1.36 0 00-.515-.18h-.049l.508.451-.222.025.652.23v.563l-.631.204h.091a3.27 3.27 0 00.437-.105l.088-.032.163 1.036h-.025l.134.353h-.272l-.12-.032-.7.067zm-.528-4.896a9.502 9.502 0 00-.04 1.026v.557a10.55 10.55 0 00.11 2.072c.152.814.416 1.037.483 1.079l.684-.092.162.035-.025-.06c-.391-.052-.585-.077-.68-.098-.085-.021-.085-.039-.081-.078v-.074h.074a.926.926 0 00.158-.123l.05-.046.053.042a.87.87 0 00.172.117.707.707 0 00.222 0l-.109-.705a2.7 2.7 0 01-.377.084 1.435 1.435 0 01-.483-.046l-.26-.066 1.106-.353v-.352l-1.191-.413.553-.063-.599-.536.518.046c.162.02.32.067.465.141v-.705a.75.75 0 01-.458.123.454.454 0 01-.416-.33l-.024-.096h.33l-.352-.331a.138.138 0 010-.127c.046-.07.148-.106.318-.11a.8.8 0 01.514.237v-.825a.832.832 0 01-.472.19.583.583 0 01-.43-.155l.025.035zm.292 1.29a.304.304 0 00.226.117.68.68 0 00.465-.184l.042-.038-.106-.134s-.264-.353-.528-.328a.448.448 0 00-.17.028l.561.54h-.49z" fill="#484152"/><path d="M7.425 21.192H7.27v-3.369l.151.352c.103.266.255.51.448.72.172.12.705.084 1.142 0 .324-.075.486-.603.486-.61l.11-.37.042.384c.024.216.074.43.148.634.075.135.166.26.27.374l.026.02v1.27h-.085c-.603-.036-1.83-.07-2.14.045a.797.797 0 00-.443.56v-.01zm0-2.636v2.252a.839.839 0 01.387-.314c.353-.137 1.763-.077 2.115-.06v-1.057a1.764 1.764 0 01-.278-.387 1.805 1.805 0 01-.12-.41.817.817 0 01-.49.452c-.353.077-1.008.166-1.269 0a1.513 1.513 0 01-.352-.48" fill="#6F8D90"/><path d="M8.719 24.763a1.33 1.33 0 01-.525-.095 1.166 1.166 0 01-.663-.705c-.257-.705-.395-1.981.099-2.714a1.233 1.233 0 011.057-.55 1.43 1.43 0 011.41 1.29c.134 1.057.219 2.242-.486 2.573a2.138 2.138 0 01-.889.208l-.003-.007zm-.032-3.909a1.086 1.086 0 00-.937.476c-.455.68-.317 1.935-.081 2.57a1.03 1.03 0 00.585.634 1.663 1.663 0 001.286-.11c.663-.31.49-1.677.398-2.41a1.265 1.265 0 00-1.254-1.156m.243 6.076a1.487 1.487 0 01-1.17-.388 1.058 1.058 0 01-.169-1.057c.123-.254.448-.56 1.308-.571.352 0 1.265.099 1.41.634.125.308.125.652 0 .959a.746.746 0 01-.498.317 4.21 4.21 0 01-.877.095l-.004.01zM8.9 25.073c-.613 0-1.018.176-1.166.483a.899.899 0 00.148.881c.306.384 1.194.391 1.892.236a.571.571 0 00.399-.243 1.142 1.142 0 000-.835c-.1-.353-.797-.529-1.259-.522" fill="#6F8D90"/><path d="M8.74 23.166c-.409 0-1.103-.07-1.103-.33 0-.262.705-.353 1.103-.353s1.107.07 1.107.352-.705.331-1.107.331zm0-.51c-.575 0-.924.12-.948.183.293.147.622.207.948.172.326.036.656-.025.948-.176a1.628 1.628 0 00-.948-.18zm.214 3.587c-.26 0-1.106 0-1.106-.257 0-.258.846-.258 1.106-.258.261 0 1.107.018 1.107.258 0 .24-.85.257-1.107.257zm-.913-.257a4.13 4.13 0 001.826 0 4.127 4.127 0 00-1.826 0zm4.171-9.59a.483.483 0 01-.205-.046 1.389 1.389 0 01-.38-.395h-.296v.353h-.16v-.518h.526l.021.035c.09.148.21.277.353.377a.353.353 0 00.3 0 .128.128 0 00.07-.099.09.09 0 00-.032-.074.268.268 0 00-.155-.066c.01.002.021.002.032 0l-.11-.113c.057-.057.177 0 .222 0a.268.268 0 01.05.5.522.522 0 01-.244.064m.336.909l-.046-.021.035-.07-.07-.032a.461.461 0 00-.06-.296.387.387 0 00-.293-.148h-.208a.54.54 0 01.064.24.353.353 0 01-.353.323c-.13 0-.475 0-.486-.352 0-.151.092-.352.582-.352.142-.01.284-.01.426 0a.51.51 0 01.476.352c.032.106.046.293 0 .352l-.067.004zm-.779-.578h-.06c-.2 0-.44.053-.437.204.004.152.123.201.328.201a.187.187 0 00.208-.169.374.374 0 00-.074-.211l.035-.025zm.101 1.741c-.43 0-.755-.166-.755-.388s.325-.387.755-.387.757.165.757.387-.324.388-.757.388zm0-.62c-.353 0-.6.134-.6.232 0 .1.23.233.6.233s.599-.137.599-.233c0-.095-.226-.232-.6-.232zm.064 3.39c-.423 0-.754-.2-.754-.458 0-.257.331-.462.754-.462s.758.201.758.462c0 .26-.331.458-.758.458zm0-.765c-.352 0-.599.163-.599.307 0 .145.247.303.6.303.351 0 .598-.162.598-.303 0-.14-.247-.306-.599-.306zm.306-.595a.475.475 0 01-.25-.07.887.887 0 01-.212-.297c-.07-.13-.17-.31-.254-.327l-.254-.053v.67h-.155v-.857l.092.018.353.067c.155.031.26.225.352.408.04.089.095.17.162.24a.3.3 0 00.275 0 .244.244 0 00.12-.218.353.353 0 00-.293-.353l.029-.155a.497.497 0 01.419.522.38.38 0 01-.388.394m-1.021 3.162l-.043-.152 1.132-.314-.705-.172c-.384-.095-.458-.106-.47-.11v-.063l-.027-.088c.028 0 .032 0 .525.11.437.101 1.004.242 1.004.242l.29.074-1.707.473z" fill="#6F8D90"/><path d="M11.636 22.356h-.155v.44h.155v-.44z" fill="#6F8D90"/><path d="M21.286 18.606c0 .997-1.72 1.808-3.845 1.808s-3.845-.81-3.845-1.808 1.723-1.826 3.845-1.826 3.845.81 3.845 1.812" fill="#DEDEDF"/><path d="M17.442 20.491c-2.164 0-3.922-.846-3.922-1.885 0-1.04 1.762-1.89 3.922-1.89s3.926.846 3.926 1.89c0 1.043-1.762 1.885-3.926 1.885zm0-3.62c-2.076 0-3.767.78-3.767 1.735 0 .955 1.691 1.73 3.767 1.73 2.076 0 3.768-.775 3.768-1.73 0-.956-1.688-1.734-3.768-1.734z" fill="#484152"/><path d="M21.286 18.465c0 .42-1.72.761-3.845.761s-3.845-.352-3.845-.761c0-.409 1.723-.761 3.845-.761s3.845.352 3.845.76z" fill="#DEDEDF"/><path d="M17.442 19.304c-1.9 0-3.922-.296-3.922-.843 0-.546 2.023-.838 3.922-.838 1.9 0 3.926.296 3.926.838 0 .543-2.023.843-3.926.843zm0-1.523c-2.333 0-3.767.398-3.767.68 0 .282 1.434.684 3.767.684s3.768-.398 3.768-.684c0-.285-1.431-.68-3.768-.68z" fill="#484152"/><path d="M17.371 18.229a3.345 3.345 0 01-3.39-3.289h.158a3.232 3.232 0 006.464 0h.159a3.345 3.345 0 01-3.391 3.289z" fill="#6F8D90"/><path d="M17.37 17.298c-1.466 0-2.661-1.022-2.661-2.28h.155c0 1.174 1.124 2.115 2.506 2.115 1.381 0 2.506-.952 2.506-2.115h.155c0 1.258-1.195 2.28-2.661 2.28z" fill="#6F8D90"/><path d="M17.37 17.02c-1.258 0-2.28-.878-2.28-1.957h.155c0 .99.955 1.798 2.115 1.798 1.16 0 2.114-.807 2.114-1.798h.159c0 1.079-1.022 1.957-2.28 1.957" fill="#6F8D90"/><path d="M29.125 27.593l-.053-.148s.388-.155.818-1.247c.43-1.093.796-4.254.624-7.588-.162-3.197-1.191-3.578-1.202-3.581l.05-.148c.045 0 1.138.39 1.31 3.721.177 3.483-.194 6.542-.634 7.655-.469 1.178-.895 1.33-.913 1.336z" fill="#484152"/><path d="M28.897 27.441l-.124-.098a6.837 6.837 0 001.17-2.524 29.54 29.54 0 00.304-6.717c-.198-2.19-1.308-3.077-1.319-3.084l.096-.124c.046.036 1.173.934 1.378 3.193a29.675 29.675 0 01-.307 6.76 7.05 7.05 0 01-1.198 2.594zm-2.233-.148l-.127-.091a7.423 7.423 0 001.005-2.852c.355-1.94.452-3.917.289-5.882-.162-2.657-1.163-3.33-1.174-3.338l.084-.13c.043.028 1.079.723 1.245 3.457.167 1.977.07 3.967-.29 5.918a7.43 7.43 0 01-1.032 2.918zm1.758-12.381l-.75 1.223.132.08.75-1.222-.132-.08z" fill="#484152"/><path d="M27.878 17.178l-.138-.074 1.192-2.188.137.077-1.191 2.185zm.035 1.061l-.142-.07 1.618-3.155.141.07-1.617 3.155zm1.707-2.463l-1.712 3.349.138.07 1.712-3.348-.138-.07zm.29.671l-2.002 3.85.138.07 2.002-3.848-.137-.072zm.111 1.021l-2.14 4.155.138.07 2.14-4.154-.138-.07zm.25.976l-2.533 4.868.138.072 2.533-4.868-.138-.072zm-.074 1.413l-2.57 4.833.137.072 2.57-4.832-.137-.073zm-3.172 7.003l-.134-.081 3.387-5.502.134.081-3.387 5.502zm3.222-4.346L27.295 27.4l.133.08 2.952-4.886-.133-.08zm-2.057 5.143l-.133-.078c2.069-3.648 2.114-3.672 2.114-3.686l.081.133-.042-.067.06.053c-.074.096-1.29 2.231-2.093 3.645" fill="#484152"/><path d="M28.454 14.988l-.104.115 1.578 1.429.104-.115-1.578-1.429zm-1.078-.17l-.107.112 2.893 2.742.107-.112-2.893-2.742zm-.365.402l-.11.108 3.386 3.456.111-.108-3.387-3.457zm.853 1.864l-.114.105 2.586 2.826.114-.104-2.586-2.827zm.077 1.452l-.109.11 2.507 2.492.11-.11-2.508-2.492zm2.323 3.414l-2.266-1.998.106-.116 2.266 1.998-.106.116zm-.191 1.001l-2.108-2.069.11-.109 2.107 2.069-.11.11zm-2.137-1.124l-.11.11 2.243 2.267.11-.11-2.243-2.267zm-.039 1.077l-.11.11 2.14 2.156.11-.11-2.14-2.156zm-.127.746l-.118.1 1.97 2.32.117-.101-1.969-2.319zm.003.943l-.123.094 1.57 2.051.124-.094-1.57-2.051zm.985 2.841l-1.367-2.241.134-.081 1.367 2.238-.134.084zm-1.537-1.464l-.133.08 1.071 1.798.134-.08-1.072-1.798z" fill="#484152"/><path d="M28.896 15.176a1.3 1.3 0 00.352.353c.17.084.392.169.392.169l.373 1.156-1.004-.063s-.441-.022-.543.215a2.39 2.39 0 00-.134.595h-.173a9.163 9.163 0 00-.254-1.216c-.13-.412-.283-.817-.458-1.212h.205s.186.352.352.373c.243.057.495.063.74.018.145-.085.162-.391.162-.391" fill="#DEDEDF"/><path d="M28.335 17.683h-.24v-.067a9.449 9.449 0 00-.257-1.188 11.63 11.63 0 00-.455-1.206l-.049-.109h.37l.025.043c.08.151.211.324.278.33h.106c.193.04.392.04.585 0 .081-.049.116-.242.123-.327v-.23l.13.188c.087.131.198.244.328.331.163.085.381.166.385.17h.035l.42 1.303L29 16.847c-.106 0-.402 0-.465.17a2.195 2.195 0 00-.13.57v.07l-.071.026zm-.102-.156h.031c.022-.188.067-.372.134-.55.12-.281.6-.26.62-.26l.889.056-.328-1.011c-.07-.029-.229-.092-.352-.159a.981.981 0 01-.275-.24.422.422 0 01-.17.272c-.23.064-.474.064-.704 0h-.099c-.159 0-.314-.264-.377-.374h-.039c.092.212.286.705.416 1.114.107.38.19.768.247 1.16" fill="#484152"/><path d="M29.132 17.178c-.328.025-1.036.24-1 2.228.034 1.987-.353 3.817 1 3.905 1.353.088 1.375-2.362 1.357-3.313-.018-.952-.219-2.904-1.357-2.82z" fill="#DEDEDF"/><path d="M29.2 23.388h-.071c-1.153-.074-1.121-1.357-1.086-2.84v-1.142c-.032-1.836.564-2.266 1.057-2.305a.92.92 0 01.705.243c.638.581.733 2.048.744 2.654.028 1.603-.204 2.65-.705 3.119a.955.955 0 01-.677.271h.032zm-.092-6.132c-.8.06-.949 1.202-.931 2.146v1.15c-.039 1.62 0 2.618.941 2.678a.781.781 0 00.627-.226c.314-.3.68-1.057.645-3.006 0-.455-.08-1.98-.704-2.538a.762.762 0 00-.582-.204" fill="#484152"/><path d="M30.234 20.22c0 .233-.43.423-.966.423-.535 0-.965-.19-.965-.423 0-.233.433-.426.965-.426.533 0 .966.19.966.426z" fill="#DEDEDF"/><path d="M29.27 20.72c-.595 0-1.057-.215-1.057-.5 0-.286.447-.504 1.057-.504.61 0 1.058.215 1.058.504 0 .289-.448.5-1.058.5zm0-.85c-.521 0-.888.184-.888.353 0 .17.352.353.888.353s.888-.184.888-.353c0-.169-.352-.352-.888-.352z" fill="#484152"/><path d="M29.15 23.53c-.427 0-.9.373-1.343 1.818-.444 1.445 0 1.695 0 1.695h1.343s.542-.151.764-1.579c.222-1.427-.07-1.952-.764-1.935z" fill="#DEDEDF"/><path d="M29.16 27.12h-1.375c-.05-.031-.483-.33-.035-1.79.387-1.261.835-1.857 1.41-1.871a.807.807 0 01.662.247c.264.303.324.867.183 1.78-.225 1.459-.796 1.635-.821 1.642l-.025-.007zm-1.322-.154h1.3c.064-.025.508-.261.705-1.512.13-.85.085-1.389-.148-1.65a.655.655 0 00-.54-.197c-.493 0-.909.588-1.264 1.762-.356 1.174-.113 1.533-.05 1.597" fill="#484152"/><path d="M29.625 25.831c0 .173-.409.314-.91.314-.5 0-.908-.141-.908-.314 0-.173.409-.314.909-.314s.91.141.91.314z" fill="#DEDEDF"/><path d="M28.715 26.222c-.49 0-.986-.134-.986-.391 0-.515 1.973-.515 1.973 0 0 .257-.497.391-.987.391zm0-.627c-.535 0-.828.155-.828.236 0 .08.293.236.828.236.536 0 .832-.155.832-.236 0-.081-.296-.236-.832-.236z" fill="#484152"/><path d="M26.637 15.067h-.973c.384.456.628 1.013.705 1.604a26.87 26.87 0 01.282 1.885h.835a8.809 8.809 0 00-.187-2.139 4.886 4.886 0 00-.662-1.35z" fill="#DEDEDF"/><path d="M27.564 18.634h-.998v-.07s-.077-.776-.278-1.879a3.172 3.172 0 00-.67-1.565l-.134-.13h1.199l.024.031c.295.42.522.885.674 1.375.151.71.216 1.438.193 2.164l-.01.074zm-.857-.159h.705a8.516 8.516 0 00-.187-2.037 4.89 4.89 0 00-.63-1.293h-.762c.312.452.517.969.6 1.512.169.92.25 1.607.274 1.818z" fill="#484152"/><path d="M26.527 15.233s-.374-.032-.388.085c-.014.116.522.091.522.091" fill="#DEDEDF"/><path d="M26.53 15.49a.705.705 0 01-.437-.088.11.11 0 01-.032-.092c0-.165.303-.169.473-.155v.155a1.097 1.097 0 00-.243 0c.125.012.251.012.377 0v.159h-.134m.05.346H26.4v.155h.184v-.155zm.326 0h-.21v.155h.21v-.155z" fill="#484152"/><path d="M27.134 16.639c0 .067-.112.123-.253.123-.141 0-.254-.056-.254-.123s.113-.127.254-.127c.14 0 .253.056.253.127z" fill="#DEDEDF"/><path d="M26.872 16.84c-.194 0-.335-.084-.335-.204 0-.12.141-.205.335-.205.194 0 .331.088.331.205 0 .116-.14.204-.331.204zm0-.25a.241.241 0 00-.18.053.378.378 0 00.18.042.257.257 0 00.173-.05.286.286 0 00-.173-.045zm.008.863h-.155v.349h.155v-.349zm.363 0h-.155v.349h.155v-.349zm-.109.483h-.155v.497h.155v-.497z" fill="#484152"/><path d="M24.1 15.406a1.12 1.12 0 001.057.38.648.648 0 00.529-.779" fill="#DEDEDF"/><path d="M24.927 15.892a1.165 1.165 0 01-.85-.402l-.024-.021.046-.053v-.088c.045 0 .07.018.105.053a.991.991 0 00.962.328.567.567 0 00.452-.691l.151-.032a.704.704 0 01-.585.867c-.084.02-.17.031-.257.032" fill="#484152"/><path d="M25.392 15.237l-.886.053.009.154.887-.052-.01-.155z" fill="#484152"/><path d="M24.902 15.99h-.666s-.024 1.248.776 1.259c.8.01.68-.705.705-.765.024-.06.282.035.19.278a1.408 1.408 0 01-.285.448h.641s.099-.92-.388-1.103c-.486-.183-.86-.134-.913.109-.08.352-.246.55-.303.3a.47.47 0 01.254-.522" fill="#DEDEDF"/><path d="M25.019 17.33a.681.681 0 01-.508-.215 1.83 1.83 0 01-.352-1.125v-.077h1.096-.021c.225-.016.45.022.659.11.535.204.444 1.145.44 1.183v.07h-.902l.081-.08a.86.86 0 01-.472.12l-.021.014zm-.705-1.255c0 .335.106.663.303.934a.539.539 0 00.398.17.603.603 0 00.469-.149.663.663 0 00.144-.483.416.416 0 010-.067.103.103 0 01.078-.084.228.228 0 01.208.077.3.3 0 01.056.324 1.477 1.477 0 01-.19.353h.402c0-.208 0-.818-.353-.952a.969.969 0 00-.705-.06.159.159 0 00-.088.113c-.024.11-.12.476-.3.476-.052 0-.123-.032-.154-.176a.517.517 0 01.084-.476h-.352zm1.47.49a.99.99 0 01-.057.373c.039-.061.072-.126.099-.193a.16.16 0 000-.145l-.032-.035h-.01zm-.85-.49a.385.385 0 00-.208.433.12.12 0 000 .043.832.832 0 00.134-.353.353.353 0 01.074-.14v.017z" fill="#484152"/><path d="M25.37 17.334h.956l.07 1.762h-.828l.529-.592s-1.146-.134-1.142.19c.004.324 1.498.758 1.498.758v.638s-1.466.623-1.445.923c.021.3 1.152.215 1.152.215s-.683-.44-.67-.458c.015-.018.995-.057.995-.057l-.159 3.719h-.747l.25-.41h-.705l.183.403h-.764c.031-.036.211-.353.2-3.172 0-3.088-.204-3.877-.204-3.877h.31s-.12.32.353.352c.247.027.497.007.736-.06l-.567-.334z" fill="#DEDEDF"/><path d="M26.387 24.534H24.49l-.042-.095.035-.04c0-.027.19-.352.177-3.122 0-3.031-.198-3.877-.201-3.877l-.021-.098h.521l-.039.105a.173.173 0 000 .141c.04.064.13.099.268.11.175.02.35.02.525 0l-.655-.388h1.314l.078 1.931h-.61c.19.074.402.145.606.205h.057v.747l-.046.02c-.768.329-1.41.706-1.41.847 0 0 0 .017.021.035.254.106.53.147.804.12-.483-.317-.49-.353-.497-.374v-.031l.021-.029c.028-.042.035-.052 1.057-.095h.085l-.151 3.888zm-1.15-.413c.04.088.1.212.138.3l.053.113.25-.41h-.44v-.003zm.47.261h.531l.13-3.063h-.218c-.091 0-.923.06-1.16-.144a.215.215 0 01-.073-.145c-.021-.317 1.057-.807 1.445-.98v-.525a7.274 7.274 0 01-.924-.352h-.066v-.021c-.293-.138-.53-.3-.533-.458a.216.216 0 01.07-.159c.233-.211 1.058-.12 1.157-.11h.151l-.493.607h.574l-.067-1.621h-.592l.476.282-.155.056c-.25.071-.513.093-.772.064a.482.482 0 01-.391-.184.31.31 0 01-.046-.172h-.123c.152 1.264.214 2.537.187 3.81 0 1.624-.053 2.72-.163 3.101h.53a5.925 5.925 0 01-.138-.3v-.038l.024-.036c.029-.038.04-.049.758-.035h.138l-.258.423zm-.025-3.524c.13.091.324.218.507.334l.18.117.021-.483-.705.032h-.003zm-.078-2.274a1.058 1.058 0 00-.56.1c-.018.017-.021.027-.018.041 0 .081.197.208.483.335l.416-.461h-.32" fill="#484152"/><path d="M25.262 19.797a.455.455 0 01-.3-.102.274.274 0 01-.077-.208.29.29 0 01.088-.212.473.473 0 01.303-.098h.096v.617h-.092l-.018.003zm-.049-.462a.288.288 0 00-.116.053.135.135 0 00-.04.099.127.127 0 00.033.091.22.22 0 00.123.053v-.296z" fill="#484152"/><path d="M25.502 19.317c0 .032.028.353.028.353l.271-.176-.299-.177z" fill="#DEDEDF"/><path d="M25.46 19.797v-.127c0-.053-.024-.317-.024-.352v-.134l.528.3-.504.313zm.13-.352v.067l.053-.036-.052-.031z" fill="#484152"/><path d="M26.172 22.134c-.025 0-1.223-.19-1.209.352.014.543 1.209.321 1.209.321a5.566 5.566 0 01-.606-.19l.606-.473" fill="#DEDEDF"/><path d="M25.671 22.916c-.227.02-.455-.03-.652-.144a.351.351 0 01-.134-.282.355.355 0 01.113-.275c.264-.247.916-.177 1.131-.152h.035l.353-.088-.293.226-.5.384.472.134.331.091-.352.064c-.17.027-.342.042-.515.042h.011zm.014-.733a.892.892 0 00-.592.134.2.2 0 00-.063.159.198.198 0 00.08.162c.195.105.416.147.635.12-.254-.075-.257-.096-.268-.138v-.046l.039-.032.448-.352h-.272" fill="#484152"/><path d="M25.611 23.593l.268.31.268-.31h-.536z" fill="#DEDEDF"/><path d="M25.879 24.023l-.06-.07-.264-.308-.127-.13h.888l-.437.508zm-.095-.353l.095.113.098-.113h-.193z" fill="#484152"/><path d="M24.846 23.593l.243.271.247-.271h-.49z" fill="#DEDEDF"/><path d="M25.089 23.984l-.423-.472h.839l-.416.472zm-.07-.313l.07.077.07-.077h-.14z" fill="#484152"/><path d="M22.361 15.78c.183.764.3 1.544.353 2.329.028.994.102 2.78.102 2.78s.352-.972.945-.87c.592.102.764.814.764.814s0-2.386-.102-3.203a21.108 21.108 0 00-.486-2.217l-1.576.366z" fill="#DEDEDF"/><path d="M24.588 21.51l-.155-.66s-.162-.662-.705-.753c-.543-.092-.853.81-.856.817l-.134.381-.018-.402s-.074-1.797-.102-2.78a14.106 14.106 0 00-.352-2.316v-.074l1.713-.402.02.07c.202.734.364 1.478.487 2.228.099.814.102 3.12.102 3.214v.677zm-2.136-5.67c.172.745.281 1.505.328 2.269 0 .726.064 1.889.088 2.467.162-.296.462-.705.892-.62a.983.983 0 01.67.5c0-.705-.025-2.2-.1-2.802-.116-.718-.27-1.43-.46-2.132l-1.418.317z" fill="#484152"/><path d="M23.758 15.853a2.426 2.426 0 01-.902 0c.298-.051.603-.051.902 0z" fill="#DEDEDF"/><path d="M23.306 15.973c-.529 0-.529-.053-.529-.12s0-.12.529-.12.532.053.532.12 0 .12-.532.12z" fill="#484152"/><path d="M23.197 16.64l.11.323h-.451a.853.853 0 00.704.353.606.606 0 00.557-.331h-.543l.265-.332-.642-.014z" fill="#DEDEDF"/><path d="M23.504 17.383a.934.934 0 01-.705-.374l-.088-.123h.493l-.105-.328h.895l-.268.335h.493l-.042.105a.669.669 0 01-.624.381h-.042l-.007.004zm-.458-.356a.705.705 0 00.724.137.572.572 0 00.189-.13h-.56l-.353-.007zm.268-.325l.102.31.25-.31h-.352z" fill="#484152"/><path d="M22.729 16.304s.27.307.274.293c.004-.014.31-.3.303-.293-.007.007-.578 0-.578 0z" fill="#DEDEDF"/><path d="M22.997 16.678c-.039 0-.081-.042-.328-.32l-.116-.135h.74l.176-.017-.106.144-.02.018-.276.264v.032h-.066l-.004.014zm-.088-.307l.098.106.103-.102h-.205" fill="#484152"/><path d="M23.86 16.611c-.031 0-.067-.028-.172-.113l-.155-.116h-.205l.173-.13a.081.081 0 01.07 0l.462.031h.05l.02.046c.022.053 0 .07-.088.17a.812.812 0 00-.077.08v.025l-.042.021h-.036v-.014zm-.049-.197l.035.024v-.02h-.053m.131 1.959c-.268 0-.413-.42-.427-.469l-.024-.074.074-.025.733.018h.105l-.035.099c0 .046-.158.447-.426.447v.004zm-.236-.416c.056.12.144.257.236.257.091 0 .183-.134.236-.243h-.472" fill="#484152"/><path d="M23.57 17.883s-.673.067-.88.353l.88-.353z" fill="#DEDEDF"/><path d="M22.752 18.292l-.127-.088c.236-.352.938-.398.945-.398v.158c-.103 0-.652.088-.822.328" fill="#484152"/><path d="M24.466 18.807c0 .035-.166.493-.465.447-.3-.046-.462-.733-.472-.705a2.99 2.99 0 01-.596.593c-.211.105 0 .282 1.057.123" fill="#DEDEDF"/><path d="M23.285 19.399c-.253 0-.461-.039-.497-.155 0-.032-.02-.117.11-.184.215-.16.405-.351.564-.567l.028-.035h.05c.048 0 .059.039.084.113.127.38.257.585.387.602.219.036.353-.331.378-.384l.155.025c0 .07-.19.56-.543.518a5.642 5.642 0 01-.705.063l-.01.004zm-.313-.198c.267.053.543.053.81 0a1.49 1.49 0 01-.271-.514 2.37 2.37 0 01-.532.507" fill="#484152"/><path d="M22.802 20.826s-.109.81.223 1.15c.33.338.433.334.433.334s.215-.335.204-.331c-.01.003-.546-.085-.514-.384.032-.3 1.329-.466 1.255.024a.482.482 0 01-.59.395l-.034.282a.705.705 0 00.705-.353c.15-.275.196-.596.126-.902 0 0-.193-1.011-.849-1.015-.655-.003-.825.377-.944.807" fill="#DEDEDF"/><path d="M23.457 22.391c-.053 0-.187-.05-.49-.352-.352-.353-.25-1.181-.243-1.216.123-.44.307-.87 1.022-.864.716.007.92 1.015.92 1.05.078.326.029.669-.137.96a.75.75 0 01-.705.39h-.134v-.098l.035-.286a2.52 2.52 0 01-.211.353l-.025.035h-.042l.01.028zm-.592-1.579c0 .07-.084.786.205 1.082.103.114.221.212.352.293l.113-.177a.906.906 0 01-.328-.155.325.325 0 01-.141-.296c0-.067.053-.165.243-.246a1.262 1.262 0 011.058 0 .285.285 0 01.112.282.51.51 0 01-.204.352.624.624 0 01-.395.102v.117a.593.593 0 00.532-.318c.14-.257.182-.556.117-.842 0 0-.187-.955-.772-.959-.6 0-.744.353-.86.744l-.032.021zm.846 1.036l.032.043a.05.05 0 01.017.031v-.042h.081a.519.519 0 00.353-.067.378.378 0 00.144-.26.138.138 0 00-.056-.138 1.142 1.142 0 00-.895 0c-.11.046-.148.095-.152.12a.166.166 0 00.039.12.78.78 0 00.388.18l.049.013z" fill="#484152"/><path d="M22.81 21.672l-.12 2.689 1.846-1.075.014-.508-.824-.44-.529-.197-.388-.47z" fill="#DEDEDF"/><path d="M22.605 24.502l.134-3.038.518.603.505.187.88.468-.017.6-2.02 1.18zm.272-2.625l-.102 2.347 1.684-.984v-.415l-.771-.406-.536-.197-.275-.346z" fill="#484152"/><path d="M23.504 23.071v-.634l.613.352-.613.282zm.155-.352v.12l.116-.053-.116-.067z" fill="#484152"/><path d="M23.356 22.536s-.353.067-.314.303c.039.236.314.215.314.215v-.518z" fill="#DEDEDF"/><path d="M23.33 23.124a.352.352 0 01-.352-.289c-.021-.243.225-.352.377-.388l.092-.017v.694h-.117zm-.038-.49c-.078.028-.17.088-.16.187.011.099.092.13.16.14v-.327z" fill="#484152"/><path d="M25.17 24.59h-.658v.822l.352-.057s.258-.779.846-.779c.589 0 .455 1.153.455 1.153h-1.3l-.388-.067" fill="#DEDEDF"/><path d="M26.218 25.806h-1.37l-.403-.067.029-.155.387.067h1.216a1.438 1.438 0 00-.166-.899.275.275 0 00-.215-.098c-.521 0-.764.705-.768.726v.046l-.476.077v-.99h.74v.155h-.581v.652l.2-.035c.068-.173.353-.786.9-.786a.43.43 0 01.352.148c.282.32.2 1.057.197 1.092l-.042.067z" fill="#484152"/><path d="M25.393 25.288s.218-.493.377.053l-.377-.053z" fill="#DEDEDF"/><path d="M25.696 25.366c-.056-.19-.106-.205-.106-.205s-.088.07-.127.159l-.14-.064c0-.046.123-.26.278-.25.155.01.208.183.246.314l-.151.046z" fill="#484152"/><path d="M29.33 27.321c-1.125 0-2.468-.12-3.768-.246a25.294 25.294 0 00-.822-.078c-1.364-.106-7.2-.099-8.264-.035-.452.028-1.872.05-3.525.074-2.386.039-5.357.084-6.228.162-1.279.12-3.915.159-4.26 0-.24-.12-.318-.508-.417-.997a5.857 5.857 0 00-.176-.723c-.18-.525-.2-1.656-.225-2.753v-.655c-.036-1.202-.07-2.235-.134-2.661-.018-.265.011-.53.084-.786.106-.426.157-.865.152-1.304-.025-.641.025-1.762.585-2.09a.727.727 0 01.596-.141c.116.021.234.032.352.032.204 0 .434.017.705.039.6.055 1.205.076 1.808.063l1.833-.074c2.044-.085 4.846-.2 5.484-.152.564.043 3.2.067 7.426.067 1.134 0 5.04-.151 6.238-.215a39.066 39.066 0 014.511 0c.768.1 1.079 1.181 1.354 2.136.045.155.088.307.133.451.187.607.166 1.763.148 2.862-.029.605-.02 1.211.029 1.815.134 1.015-.219 3.955-1.283 4.797-.399.317-1.265.427-2.344.427l.007-.015zm-9.277-.69c1.903 0 3.961.024 4.705.08l.828.078c1.657.166 5.104.508 5.886-.113.923-.73 1.293-3.542 1.166-4.507-.048-.62-.06-1.243-.031-1.865 0-1.032.039-2.203-.134-2.763-.046-.144-.088-.3-.134-.455-.25-.863-.529-1.84-1.096-1.913a39.677 39.677 0 00-4.451 0c-1.199.067-5.118.218-6.256.218-4.23 0-6.877-.024-7.451-.07-.575-.046-3.524.074-5.449.155l-1.836.07a15.693 15.693 0 01-1.84-.063 8.887 8.887 0 00-.676-.039 2.413 2.413 0 01-.413-.032c-.144-.02-.173-.028-.391.099-.303.18-.465.853-.434 1.812.01.464-.043.927-.155 1.378a2.171 2.171 0 00-.084.673c.07.447.106 1.487.137 2.703 0 .208 0 .43.018.655.021 1.023.046 2.179.208 2.658.077.25.14.504.187.761.06.293.148.73.25.783.225.102 2.516.13 4.092 0 .88-.081 3.736-.127 6.252-.162 1.639-.029 3.052-.05 3.5-.074.447-.025 1.988-.05 3.602-.05" fill="#2A1F2E"/><path d="M16.297 14.99s.271 3.802.236 5.603c.01 1.621-.07 3.241-.236 4.854a3.84 3.84 0 01-.578 1.596c.417.095.85.095 1.269 0 .497-.17.62-2.957.736-4.853.17-2.82-.204-7.37-.204-7.37l-1.223.17z" fill="#6D96C4"/><path opacity=".64" d="M17.497 14.82l-.705.095c.05.663.352 4.692.194 7.275-.113 1.896-.236 4.684-.733 4.853a1.265 1.265 0 01-.23.053c.31.047.625.029.927-.053.497-.17.62-2.957.733-4.853.17-2.82-.204-7.37-.204-7.37" fill="#ABD1F2"/><path d="M16.452 27.276a4.062 4.062 0 01-.751-.078l-.236-.053.144-.194c.291-.464.479-.986.55-1.53.161-1.561.239-3.13.233-4.701v-.13c.035-1.763-.233-5.551-.236-5.59v-.145l1.533-.215v.166c0 .046.373 4.582.204 7.401l-.024.444c-.177 3.017-.335 4.388-.815 4.55a1.89 1.89 0 01-.602.085v-.01zm-.462-.342c.32.054.647.042.962-.036.353-.123.525-2.925.603-4.271l.028-.444a65.686 65.686 0 00-.19-7.183l-.913.127c.046.705.257 3.877.225 5.47v.134a43.174 43.174 0 01-.236 4.743 4.482 4.482 0 01-.476 1.46" fill="#2A1F2E"/><path d="M20.79 9.664c.846.194 1.058 1.237 1.41 2.425.352 1.188.765 2.974 0 3.584-.765.61-4.081.307-4.712 0-.631-.306-.268-4.606.606-5.354a2.904 2.904 0 012.682-.655" fill="#FBFBF2"/><path d="M19.96 11.645c-.93-.17-1.959 1.41-2.689 2.861.029-1.473.142-3.647.84-4.317.824-.793 1.761-.627 2.681-.525.85.091 1.058 1.107 1.41 2.294.272.906.571 2.154.353 2.968-.666-1.442-1.66-3.105-2.619-3.281" fill="#DFDFE0"/><path d="M17.434 15.814c-.186-.092-.285-.353-.313-.814-.06-1.096-.183-3.088.465-4.283.176-.313.416-.586.705-.8.087-.067.177-.13.271-.186.61-.353 1.466-.23 2.245-.141.78.088 1.117.824 1.41 1.864.053.197.106.398.166.592.602 2.013.585 3.24-.053 3.75-.353.286-1.188.388-2.072.388-1.16 0-2.411-.18-2.82-.37h-.004zm3.345-5.992c-.79-.088-2.217.036-2.583.705-.367.67-.857 2.763-.758 4.466.025.408.106.535.137.55.578.278 3.846.581 4.55 0 .353-.286.638-1.11-.052-3.416-.06-.194-.113-.398-.17-.599-.267-.98-.521-1.65-1.124-1.716" fill="#2A1F2E"/><path d="M8.539 11.387c-.352.05-1.614 1.953-1.036 3.056.578 1.103 1.357.839 1.762.166.405-.673.543-3.39-.73-3.222" fill="#FBFBF2"/><path d="M8.539 11.387c-.352.05-1.614 1.953-1.036 3.056.578 1.103 1.357.839 1.762.166.405-.673.543-3.39-.73-3.222" fill="#CDCCCD"/><path d="M8.422 15.349h-.028c-.275 0-.677-.159-1.029-.832-.412-.79.039-1.836.254-2.248.246-.473.63-1.001.898-1.037a.85.85 0 01.864.413c.532.81.352 2.516.021 3.045a1.216 1.216 0 01-.98.659zm.138-3.806c-.356.3-.627.687-.786 1.124-.173.402-.423 1.152-.134 1.706.225.426.49.655.765.662a.895.895 0 00.73-.507c.264-.437.43-2.034 0-2.71a.542.542 0 00-.561-.275" fill="#2A1F2E"/><path d="M10.762 9.467c-.74 0-1.632 1.882-1.886 3.171-.253 1.29.152 2.447 1.17 2.524 1.019.078 1.636.025 2.193-.395.556-.42.352-2.076 0-3.094-.353-1.019-.353-2.22-1.477-2.213" fill="#FBFBF2"/><path d="M12.24 11.592c-.353-1.019-.353-2.22-1.481-2.214-.737 0-1.628 1.883-1.882 3.172a3.877 3.877 0 00-.074.652c.373-1.18 1.089-2.467 1.702-2.467 1.12 0 1.12 1.195 1.48 2.214a6.42 6.42 0 01.353 1.656c.454-.518.26-2.051-.081-3.017" fill="#DFDFE0"/><path d="M10.728 15.37c-.212 0-.44 0-.705-.028a1.343 1.343 0 01-.987-.532 2.759 2.759 0 01-.328-2.175c.226-1.152 1.124-3.299 2.037-3.306.984 0 1.206.832 1.41 1.643.06.222.12.454.197.673.353 1.029.6 2.78-.053 3.27a2.467 2.467 0 01-1.571.455zm.035-5.73c-.585 0-1.473 1.726-1.734 3.055A2.499 2.499 0 009.3 14.62a1.011 1.011 0 00.761.398c.97.074 1.558.039 2.087-.353.44-.331.352-1.815-.053-2.918a8.077 8.077 0 01-.204-.705c-.233-.87-.41-1.41-1.117-1.41" fill="#2A1F2E"/><path d="M13.92 9.403c-.85.092-1.057 1.49-1.427 2.682-.37 1.191-.761 2.971 0 3.58.761.61 4.085.307 4.716 0 .63-.306.285-4.873-.589-5.617-.874-.744-1.783-.747-2.7-.645z" fill="#FBFBF2"/><path d="M14.751 11.638c.93-.17 1.96 1.41 2.69 2.862-.029-1.473-.124-3.916-.822-4.582-.824-.793-1.783-.747-2.7-.645-.849.095-1.057 1.494-1.41 2.682-.27.906-.57 2.153-.352 2.968.666-1.442 1.66-3.105 2.619-3.282" fill="#DFDFE0"/><path d="M14.47 16.177c-.884 0-1.716-.102-2.072-.388-.638-.51-.655-1.737-.053-3.75.057-.194.113-.394.166-.592.286-1.036.578-2.114 1.392-2.202.814-.089 1.428-.145 2.14.165.14.067.274.145.401.233.293.258.532.57.705.92.649 1.194.508 3.334.444 4.43-.024.465-.123.705-.31.814-.398.19-1.65.352-2.82.352l.008.018zm-.539-6.636c-.602.067-.856.99-1.124 1.97-.056.2-.11.405-.17.599-.704 2.305-.408 3.13-.052 3.415.705.564 3.972.264 4.55-.018.032 0 .113-.14.138-.55.095-1.702-.268-4.127-.74-4.733-.473-.606-1.812-.772-2.602-.683z" fill="#2A1F2E"/><path d="M6.636 16.205l-.31-.042c.028-.215.74-5.255 3.21-7.049 1.84-1.328 4.184-.839 6.25-.409.729.17 1.466.297 2.21.381 5.522.493 9.163 2.77 10.813 6.764l-.29.12c-1.603-3.878-5.156-6.09-10.552-6.574a19.858 19.858 0 01-2.245-.384c-2.114-.437-4.271-.892-5.991.353-2.362 1.705-3.077 6.78-3.084 6.83" fill="#2A1F2E"/></svg>