<svg width="174" height="38" fill="none" xmlns="http://www.w3.org/2000/svg"><path d="M17.057 37.398c-5.991 0-9.417-3.109-11.222-5.713A15.6 15.6 0 014.27 28.83c-1.9 0-2.223-.148-2.467-.278-.905-.455-1.092-1.385-1.23-2.066-.042-.197-.084-.405-.123-.528-.24-.705-.278-1.681-.31-3.214v-.642c-.021-.79-.06-2.115-.116-2.467a3.525 3.525 0 01.102-1.34c.078-.303.117-.616.116-.93-.046-1.328.208-2.322.75-2.964-.507-2.897-1.057-8.078.836-10.76C4.33.117 8.345-.429 11.263.258c1.218.345 2.393.83 3.5 1.445.807.408 2.153 1.085 2.576 1.057 1.427-.24 6.415-.761 10.447 2.612 3.566 2.981 4.581 5.825 4.934 8.48.828.676 1.166 1.853 1.41 2.713l.123.423c.26.842.24 2.055.215 3.341a15.48 15.48 0 000 1.586c.162 1.22-.148 4.85-1.847 6.196-.398.299-.86.5-1.35.589a17.736 17.736 0 01-2.217 3.299c-2.086 2.435-5.833 5.357-11.831 5.413l-.166-.014zM6.385 25.718l.353 1.057c.388 1.123.924 2.19 1.593 3.172 1.41 2.006 4.032 4.395 8.712 4.395h.145a12.336 12.336 0 009.533-4.345 14.652 14.652 0 002.115-3.345l.373-.814.889-.074c.213-.01.424-.044.63-.099.353-.43.807-2.393.68-3.359-.06-.68-.074-1.364-.042-2.047 0-.8.035-2.01-.077-2.38a24.778 24.778 0 01-.138-.461 8.601 8.601 0 00-.37-1.103l-.937-.134-.117-1.195c-.27-2.738-1.008-4.81-3.965-7.285-3.03-2.534-6.876-2.114-7.979-1.942-1.367.23-2.869-.525-4.458-1.329a14.39 14.39 0 00-2.82-1.201c-1.949-.459-4.613-.127-6.242 2.174-1.1 1.558-.849 5.946-.148 9.365l.303 1.476-1.145.25a4.28 4.28 0 00-.035.762 6.644 6.644 0 01-.183 1.677c-.022.1-.05.23-.06.3.067.483.098 1.3.14 2.784v.666c-.01.768.038 1.535.145 2.295a5.9 5.9 0 01.201.79h1.713l1.191-.05z" fill="#fff"/><path d="M2.836 15.293s-1.681-7.73.352-10.595c2.034-2.865 5.354-3.26 7.662-2.72 2.309.539 5.118 2.784 6.736 2.512 1.617-.271 5.762-.543 9.09 2.242 3.326 2.784 4.229 5.286 4.482 8.557.254 3.27-27.49 1.903-27.49 1.903l-.832-1.9z" fill="#B63847"/><path d="M28.896 16.643c-1.533-5.833-8.35-6.986-10.926-7.401-2.576-.416-5.907-1.763-8.353 0-2.446 1.762-3.239 7.605-3.239 7.605l9.918 2.513 12.6-2.717z" fill="#872446"/><path d="M26.175 11.395c.352.049 1.614 1.952 1.036 3.055-.578 1.103-1.36.836-1.762.166-.402-.67-.543-3.39.73-3.221" fill="#FBFBF2"/><path d="M26.175 11.395c.352.049 1.614 1.952 1.036 3.055-.578 1.103-1.36.836-1.762.166-.402-.67-.543-3.39.73-3.221" fill="#CDCCCD"/><path d="M25.311 14.697c-.32-.528-.51-2.234.021-3.045a.85.85 0 01.864-.412c.264.035.652.56.899 1.036.211.412.666 1.459.254 2.248-.353.67-.755.822-1.033.832h-.025a1.216 1.216 0 01-.98-.659zm.282-2.876c-.444.68-.278 2.277 0 2.714a.902.902 0 00.73.508c.275 0 .54-.24.761-.663.29-.553.043-1.308-.134-1.706a2.607 2.607 0 00-.786-1.124.543.543 0 00-.557.271" fill="#2A1F2E"/><path d="M23.961 9.474c.74 0 1.632 1.878 1.886 3.172.254 1.293-.152 2.446-1.17 2.52-1.019.074-1.636.028-2.196-.391-.56-.42-.352-2.08 0-3.098.353-1.019.353-2.22 1.48-2.21" fill="#FBFBF2"/><path d="M22.474 11.6c.352-1.02.352-2.221 1.477-2.214.74 0 1.631 1.882 1.885 3.172.044.216.068.435.07.655-.37-1.18-1.088-2.467-1.698-2.467-1.124 0-1.12 1.195-1.48 2.214a6.575 6.575 0 00-.353 1.656c-.45-.518-.257-2.051.085-3.017" fill="#DFDFE0"/><path d="M22.38 14.905c-.653-.49-.417-2.241-.054-3.27.074-.22.138-.452.194-.677.215-.807.434-1.643 1.41-1.643.916 0 1.811 2.157 2.037 3.306.173.885.056 1.674-.328 2.175a1.326 1.326 0 01-.983.536c-.25.017-.48.028-.705.028a2.466 2.466 0 01-1.607-.455h.035zm1.536-5.287c-.705 0-.885.536-1.117 1.41a9.72 9.72 0 01-.205.705c-.388 1.103-.493 2.587-.053 2.918.529.402 1.117.437 2.087.353a1.03 1.03 0 00.761-.41 2.485 2.485 0 00.268-1.923c-.261-1.333-1.146-3.053-1.73-3.056" fill="#2A1F2E"/><path d="M26.731 6.792c-3.327-2.784-7.471-2.513-9.09-2.242-1.617.272-4.426-1.966-6.72-2.513-2.295-.546-5.64-.165-7.673 2.718-2.033 2.883-.352 10.594-.352 10.594l.817 1.903s.906.043 2.39.099c.085-.416.176-.81.264-1.191h-.113c.029-.215.74-5.259 3.211-7.05 1.84-1.328 4.18-.838 6.245-.408.73.167 1.47.295 2.214.38 5.523.494 9.163 2.77 10.813 6.764.12.271.216.553.285.843 1.41-.321 2.263-.755 2.214-1.336-.272-3.26-1.156-5.773-4.483-8.558" fill="#B63847"/><path opacity=".38" d="M3.315 15.444s-2.08-7.732.423-10.594C5.5 2.834 8.034 2.03 10.374 1.935c-2.28-.416-5.364.067-7.288 2.795-2.023 2.866-.352 10.595-.352 10.595l.814 1.903.705.031-.938-1.815z" fill="#872446"/><path opacity=".8" d="M6.17 14.341c-.846-.042-4.148-2.276-2.858-1.892 1.501.447 2.047 1.41 3.778.493.416-.222-1.843-.046-3.045-1.684-.183-.247 3.045 1.684 4.508.493.437-.352-1.463-.204-2.115-1.315-.652-1.11-.592-1.762-.592-1.762s1.385 1.48 2.784 1.893c1.4.412 1.89.246 1.95.038.059-.207-3-2.403-2.82-2.706.18-.303 2.893 2.379 3.443 2.114.55-.264-.61-.616-1.34-1.233-.729-.617-1.8-2.291-1.529-2.615.271-.325 1.59 2.368 2.443 2.78.852.413 1.522.705 2.068.328.547-.377-.18-.328-.546-1.41-.367-1.082-.416-2.301-.123-2.301.292 0 .352 1.808.867 2.386.514.578.839 1.11 1.265.864.426-.247-.472-2.82-.099-2.912.374-.091.772 2.633 1.135 2.704.74.148-.056-2.718.303-2.795.36-.078.673 2.714.673 2.714.67.246 1.213-.596 1.259-1.252.045-.595.038-1.48.24-1.709.352-.405 0 3.242.267 3.373.398.194 1.058-.606 1.308-1.346.25-.74.3-1.28.447-1.234.254.081-.504 2.499-.165 2.594a1.995 1.995 0 002.255-.74c.61-.74 1.033-2.037 1.22-1.974.186.064-1.463 3.172-.977 3.394.487.222 1.22-.187 1.89-.927.67-.74.662-1.1.852-.987.19.113-1.585 2.305-1.096 2.633.49.328 1.706.042 2.193-.493.486-.536.923-1.269 1.096-1.153.172.117-1.763 1.893-1.463 2.263.3.37 1.364-.49 1.463-.412.098.077-1.096.704-.793 1.029.303.324.793.444 2.009.236.352-.06 1.057-.374 1.113-.208.057.166-1.762.507-1.762.878 0 .37.804.704.79.82-.015.117-6.76-.204-6.76-.204l-8.417 1.956-7.119-.719z" fill="#872446"/><path d="M3.227 9.523c.388.145-.123-1.762 1.58-4.078A4.13 4.13 0 018.83 3.683c1.135.205 1.882-.409 1.544-.747-.339-.338-3.007.155-4.008.68A5.96 5.96 0 003.65 6.168c-.543 1.011-1.17 3.087-.423 3.359m8.399-6.203c.528-.237 1.223 1.103 2.513 1.29.683.098.948.27.743.475-.204.205-1.304.053-2.164-.476-.68-.422-1.706-1.018-1.092-1.29zm6.629 1.984c-.148-.353 1.833-.5 3.123-.282 1.29.218 2.249.92 2.037 1.142-.352.352-1.494-.684-2.57-.705-.704-.025-2.385.373-2.59-.138m5.907 1.258c-.127.332.628.205 1.036.705.194.237.303-.352-.102-.662-.303-.24-.79-.406-.934-.032" fill="#CE9DAD"/><path d="M5.828 8.674c.1.232.218.456.353.67a4.3 4.3 0 00.45.599c.166.186.353.351.558.493l.155.106.166.091c.109.07.229.103.352.162a2.517 2.517 0 01-.705-.306 2.927 2.927 0 01-.581-.5 3.877 3.877 0 01-.448-.61 3.387 3.387 0 01-.3-.705m2.408-3.091c.105.268.218.532.33.793.114.26.237.518.374.772.134.25.28.492.441.726.166.231.35.45.55.652a2.89 2.89 0 01-.649-.578 4.843 4.843 0 01-.475-.73 5.527 5.527 0 01-.564-1.635m-.67 1.924c.23.296.448.585.705.857.12.134.25.257.384.38.138.12.284.232.437.332a1.663 1.663 0 01-.514-.237 2.361 2.361 0 01-.423-.373 2.992 2.992 0 01-.335-.451 2.23 2.23 0 01-.24-.508m4.557-1.924c.025.204.05.409.07.61.022.2.046.405.078.606.025.199.06.396.106.592.044.198.109.39.194.574a1.497 1.497 0 01-.31-.539 2.82 2.82 0 01-.145-.606 4.157 4.157 0 010-1.237m2.083.194c.106.39.176.782.25 1.173l.106.585c.031.198.075.393.13.585a2.059 2.059 0 01-.25-.553 4.932 4.932 0 01-.14-.589 5.97 5.97 0 01-.096-1.201zm1.35-.194a6.713 6.713 0 01.42 2.076 2.65 2.65 0 01-.05.705c0-.233-.042-.465-.07-.705-.029-.24-.068-.462-.103-.705-.067-.462-.14-.923-.183-1.41m2.111-.201a6.986 6.986 0 01.102 2.404c-.034.268-.105.53-.211.778.044-.26.075-.524.091-.789 0-.264.021-.529.025-.793.003-.264 0-.532 0-.796v-.804m1.678 1.146c.046.401.046.807 0 1.208a4.8 4.8 0 01-.113.596 1.975 1.975 0 01-.23.564c.047-.193.084-.388.11-.585.028-.197.053-.395.078-.592.049-.395.091-.793.169-1.191m3.408 0a9.494 9.494 0 01-.56 1.47 7.67 7.67 0 01-.37.704 2.56 2.56 0 01-.494.617c.147-.213.276-.438.384-.673l.353-.705c.225-.469.447-.938.705-1.41m1.818 1.385a6.907 6.907 0 01-.254.571c-.091.187-.197.353-.303.547-.107.178-.225.35-.352.514a1.76 1.76 0 01-.462.42c.159-.132.298-.287.412-.459.12-.165.236-.352.353-.514.222-.353.416-.705.623-1.079m2.249.98c-.112.187-.236.353-.352.54-.116.186-.26.352-.398.514a6.248 6.248 0 01-.437.48c-.15.156-.321.293-.508.405a4 4 0 00.465-.448c.145-.159.286-.32.42-.486.282-.332.543-.67.821-1.005m.116 1.931a2.35 2.35 0 01-.514.437 1.64 1.64 0 01-.631.25 4.5 4.5 0 00.589-.317c.186-.116.37-.243.556-.352m2.569.909a7.29 7.29 0 01-1.18.518c-.204.07-.413.128-.624.173-.21.05-.425.073-.641.067.212-.023.422-.064.627-.123.21-.057.414-.12.613-.19.205-.064.402-.142.603-.216l.603-.229zM3.872 10.99c.219.172.444.327.673.475.228.146.463.279.705.398a4.09 4.09 0 001.569.444 3.073 3.073 0 01-.821-.088 4.433 4.433 0 01-.783-.285 5.58 5.58 0 01-.705-.42 4.798 4.798 0 01-.638-.525" fill="#1A1219"/><g opacity=".34" fill="#872446"><path opacity=".34" d="M5.427 6.175c.014.28.073.554.176.814.218.599.6 1.124 1.103 1.516a.2.2 0 00.275 0 .197.197 0 000-.279A3.038 3.038 0 015.85 6.344a.18.18 0 010-.045c0-.04 0 .049 0 0a.388.388 0 010-.064.286.286 0 010-.056c0-.25-.399-.25-.392 0m-.754.694c.068.15.143.295.226.437.139.267.326.507.553.705a.197.197 0 00.319-.063.19.19 0 00-.044-.212 1.368 1.368 0 01-.148-.138l-.074-.088-.032-.038-.017-.022a3.96 3.96 0 01-.451-.779.194.194 0 00-.268-.07.208.208 0 00-.07.268m5.039-2.108c-.01.304.004.608.042.91.038.546.224 1.071.54 1.519a.197.197 0 10.278-.275 2.633 2.633 0 01-.437-1.322 5.464 5.464 0 01-.032-.832c0-.25-.38-.25-.39 0m11.214 1.361a5.562 5.562 0 01-.176.673c-.058.188-.13.372-.215.55a1.81 1.81 0 01-.321.48c-.173.179.102.457.278.278.291-.337.503-.734.62-1.163.08-.23.143-.466.19-.705a.2.2 0 00-.136-.24.197.197 0 00-.24.137m2.115.934c0 .057 0-.053 0 0v.12a3.07 3.07 0 01-.078.353c-.032.105-.035.14-.056.211l-.04.113v.039s-.027.07 0 .02c-.025.062-.055.12-.09.177l-.029.042c-.018.029.032-.031 0 0l-.064.06a.198.198 0 00.016.26.197.197 0 00.26.019.92.92 0 00.243-.353c.07-.151.124-.31.162-.472.051-.2.089-.402.113-.606a.198.198 0 00-.194-.194.201.201 0 00-.198.194"/><path opacity=".34" d="M23.609 7.574a7.81 7.81 0 01-.493.857c-.046.067-.092.137-.141.204l-.04.053-.08.099a2.035 2.035 0 01-.254.253c.032-.024 0 0 0 0a.2.2 0 01-.046.029.202.202 0 10.198.352c.271-.184.5-.424.67-.705.168-.25.324-.51.468-.779.028-.056.06-.112.088-.172a.204.204 0 00-.07-.268.197.197 0 00-.268.07m2.435.212a5.115 5.115 0 01-.447.768l-.042.06-.025.032c-.028.038-.06.074-.092.112-.06.073-.127.141-.197.205l-.053.046-.025.02a1.002 1.002 0 01-.109.075.201.201 0 00-.07.268.198.198 0 00.268.07c.267-.178.495-.409.673-.677a4.85 4.85 0 00.39-.645l.082-.144a.205.205 0 00-.07-.268.197.197 0 00-.268.07m2.66 2.697a1.623 1.623 0 01-.137.134l-.148.133-.092.075-.042.031-.032.025c-.149.11-.307.209-.472.293a1.32 1.32 0 01-.229.088l-.13.031h-.04c.022 0 .022 0 0 0h-.07a.198.198 0 000 .391 2.026 2.026 0 001.125-.461c.196-.14.38-.297.55-.469.172-.183-.103-.458-.279-.278m1.025 2.249c-.13.041-.26.08-.395.112l-.18.039h-.147c-.021 0 .028 0 0 0-.135.014-.27.014-.406 0a.198.198 0 00-.197.194.208.208 0 00.197.197c.28.011.558-.019.829-.088a3.29 3.29 0 00.412-.12.197.197 0 00.134-.24.193.193 0 00-.24-.133m-.007 1.357l-.126.024-.141.025c.024 0 .031 0 0 0h-.131a2.24 2.24 0 01-.377 0h-.134l-.077-.021h-.035c-.053 0 .02 0 0 0a.2.2 0 00-.268.07.198.198 0 00.07.268 1.6 1.6 0 00.825.095c.173-.015.345-.04.515-.077a.193.193 0 00.133-.24.197.197 0 00-.24-.137M4.225 15.212c.13.031.254.084.38.12.252.067.51.108.769.123a.197.197 0 00.197-.194.204.204 0 00-.197-.197h-.36a3.155 3.155 0 01-.317-.07c-.123-.036-.243-.085-.352-.117a.197.197 0 00-.244.134.204.204 0 00.138.243"/></g><path opacity=".38" d="M31.158 15.264c-.271-3.26-1.156-5.773-4.483-8.557a10.841 10.841 0 00-6.893-2.404 12.96 12.96 0 016.245 2.82c3.327 2.784 4.211 5.287 4.483 8.557a.65.65 0 01-.219.515c.582-.254.896-.56.867-.92" fill="#872446"/><path d="M15.598 17.545c-5.992 0-11.48-.261-11.955-.286h-.095l-.864-2.02c-.07-.32-1.674-7.83.353-10.717 2.026-2.886 5.417-3.355 7.849-2.784 1.103.321 2.167.766 3.172 1.325 1.36.684 2.643 1.332 3.524 1.188 1.269-.215 5.685-.68 9.213 2.273 3.415 2.858 4.268 5.435 4.54 8.666a.782.782 0 01-.25.62c-1.35 1.41-8.71 1.735-15.466 1.735h-.021zm-11.821-.592c1.702.077 24.717 1.092 27.085-1.357a.47.47 0 00.159-.38c-.261-3.152-1.093-5.665-4.427-8.46-3.426-2.868-7.726-2.414-8.96-2.206-.972.162-2.3-.507-3.707-1.216a15.1 15.1 0 00-3.09-1.297c-2.337-.55-5.538-.14-7.511 2.654-1.921 2.718-.399 10.08-.317 10.457l.768 1.805z" fill="#2A1F2E"/><path d="M5.021 25.609S6.833 35.756 17.22 35.657c10.387-.099 13.34-9.576 13.34-9.576l-10.777-2.548-14.76 2.076z" fill="#B63847"/><path opacity=".23" d="M28.966 25.795c.236.726.218 1.311-.11 1.597a1.083 1.083 0 01-1.028.106c.574 1.124.704 2.083.257 2.467-.353.317-1.03.204-1.812-.222.106.532.043.955-.218 1.184-.261.23-.832.226-1.463-.053.409.966.518 1.688.23 1.882-.29.194-.758-.088-1.375-.641.116 1.188-.099 2.076-.642 2.276-.458.17-1.057-.186-1.653-.891-.063.627-.225 1.029-.476 1.078-.352.074-.817-.56-1.237-1.593-.112 1.058-.352 1.763-.704 1.79-.353.029-.769-.704-1.058-1.825-.3 1.17-.705 1.924-1.082 1.893-.377-.032-.61-.73-.705-1.794-.42 1.036-.877 1.67-1.233 1.596-.254-.053-.416-.45-.48-1.078-.592.705-1.194 1.057-1.652.888-.543-.201-.755-1.086-.642-2.273-.613.553-1.12.81-1.374.641-.254-.169-.18-.916.229-1.882-.628.279-1.153.317-1.46.05-.306-.268-.327-.65-.222-1.185-.782.43-1.448.54-1.811.226-.451-.391-.314-1.35.26-2.467a1.095 1.095 0 01-1.032-.106c-.38-.331-.352-1.057.025-1.96l-1.435.201s1.812 10.147 12.198 10.048c10.387-.098 13.34-9.579 13.34-9.579l-1.635-.374z" fill="#872446"/><path opacity=".58" d="M5.69 25.796c.706-.307 1.217-.385 1.41-.166.194.218.043.588-.289 1.114.78-.631 1.47-.889 1.914-.631.444.257.575 1.018.398 2.051.987-1.695 1.918-2.735 2.369-2.534.51.229.247 1.998-.571 4.265 1.18-1.33 2.319-2.013 2.957-1.646.508.296.592 1.201.324 2.414.557-.38 1.1-.522 1.572-.353.472.17.853.674 1.057 1.389.497-1.73 1.09-2.848 1.551-2.774.353.057.564.807.617 1.97.423-1.41 1.008-2.287 1.653-2.287.532 0 1.022.592 1.41 1.59.095-.07.201-.123.313-.159.26-.08.537-.08.797 0-.317-1.41-.24-2.407.31-2.72.55-.315 1.41.105 2.442 1.028-.215-.98-.137-1.713.293-1.995.43-.282 1.17-.056 2.012.564-.73-1.117-1.198-2.076-1.304-2.675l-4.391-1.036-16.618 2.337-.208.257" fill="#872446"/><path d="M10.54 25.979s2.002.863 2.665 1.057c.662.194 2.146.155 2.932.307 1.124.127 2.26.127 3.383 0 .917-.102 3.197-.208 4.096-.642.899-.433 1.737-1.907 1.737-1.907L8.877 24.4s.944 1.272 1.663 1.579z" fill="#4B2435"/><path d="M17.596 27.607a8.34 8.34 0 01-1.487-.102 12.137 12.137 0 00-1.315-.12 8.374 8.374 0 01-1.635-.187c-.663-.204-2.594-1.04-2.679-1.078-.754-.318-1.691-1.576-1.73-1.629l-.19-.257 17.058.423-.127.226c-.035.063-.878 1.526-1.808 1.97-.74.352-2.369.497-3.447.592a22.81 22.81 0 00-.705.063c-.645.067-1.293.1-1.942.099h.007zm-8.399-3.045c.31.38.917 1.057 1.41 1.272.018 0 2.002.864 2.647 1.058a8.081 8.081 0 001.561.172c.455.016.908.058 1.357.127 1.108.123 2.226.123 3.334 0l.705-.067c1.058-.091 2.65-.229 3.341-.56.635-.303 1.259-1.195 1.53-1.614l-15.885-.388z" fill="#2A1F2E"/><path d="M8.7 29.15c-.264-.285 1.277-1.553 2.066-1.12.79.434-.053 4.025-.352 3.947-.3-.077.028-2.368-.332-2.393-.36-.024-.405.814-.705.638-.3-.176.23-1.223.025-1.276-.204-.052-.331.589-.705.205m3.535 2.477c-.173-.352.409-1.223 1.53-.916 1.12.307.705 1.628.585 1.935-.12.306-.409.814-.483.61-.074-.205.331-1.657-.155-1.808-.486-.152-.557 1.057-.864.94-.306-.116.025-.606-.155-.76-.18-.156-.278.352-.458 0zm8.885-2.023c-.293.085-.081 1.333-.229 1.762-.148.43-.518 1.15-.3 1.248.219.099.385-1.18.78-1.131.394.05.197 1.31.479 1.3.282-.01.169-1.23.5-1.247.331-.018-.155 1.149.155 1.16.31.01.458-1.978.127-1.953-.331.024-1.184.352-1.255.02-.07-.33.138-1.275-.257-1.159m3.799-2.132c-.112-.137.353 2.238.822 2.34.468.103.705-.493-.822-2.34z" fill="#CE9DAD"/><path d="M16.987 28.816c.031.606.031 1.209.046 1.812 0 .3 0 .599.024.898.025.3.025.603.057.903a4.755 4.755 0 01-.18-.892 9.87 9.87 0 01-.057-.91c-.014-.605.022-1.211.11-1.81m-1.202-.17c-.081.405-.183.8-.275 1.195l-.137.595-.124.6c-.034-.414.003-.83.11-1.23.092-.404.235-.793.426-1.16m-1.621-.395c-.117.165-.222.335-.328.5-.106.166-.205.353-.296.515a5.736 5.736 0 00-.254.532 7.2 7.2 0 00-.215.56 2.32 2.32 0 01.099-.602c.178-.588.524-1.11.994-1.505m-1.534 0c-.183.352-.352.684-.532 1.032-.08.173-.162.353-.236.526a4.185 4.185 0 00-.183.55 2.44 2.44 0 01.127-.572 5.49 5.49 0 01.5-1.05 4.52 4.52 0 01.325-.486m-1.156-.782c-.264.215-.517.443-.758.683a3.22 3.22 0 00-.61.815c.05-.168.126-.326.226-.47.096-.142.206-.275.328-.398a3.586 3.586 0 01.814-.641m-1.368-.81a7.79 7.79 0 00-.762.334 2.546 2.546 0 00-.67.48c.077-.12.173-.225.283-.314a2.284 2.284 0 01.74-.398c.133-.046.27-.08.409-.102m8.293 2.167c.08.172.142.352.187.536.044.183.078.37.102.557.048.378.02.761-.085 1.128 0-.19 0-.374-.024-.557-.025-.184-.025-.37-.05-.554-.035-.352-.091-.733-.13-1.11m1.015.151c.086.088.157.191.208.303.053.113.093.231.12.353.054.245.037.5-.05.736 0-.126-.028-.243-.046-.352-.017-.11-.035-.233-.06-.352a7.356 7.356 0 00-.172-.688m1.55-.514c.052.085.108.166.17.243.06.081.116.166.169.25.108.17.203.346.285.53.083.183.148.374.194.57.045.196.063.398.053.6a7.011 7.011 0 00-.17-.565c-.063-.183-.14-.352-.218-.542-.077-.19-.166-.353-.25-.536l-.127-.268-.06-.137a.497.497 0 01-.046-.145m1.512-.201c.131.083.25.184.353.3.113.113.212.24.296.377.18.269.27.588.257.912a5.225 5.225 0 00-.17-.433 4.402 4.402 0 00-.221-.399c-.159-.26-.352-.503-.532-.757m1.58-.31a2.112 2.112 0 01.732.704c.057.1.1.207.127.318a2.574 2.574 0 00-.391-.54 8.593 8.593 0 00-.469-.482zm1.455-1.149c.122.047.24.105.352.173a2.522 2.522 0 01.62.486c.089.097.163.206.22.324a3.312 3.312 0 00-.558-.532c-.204-.158-.42-.303-.634-.451z" fill="#1A1219"/><path opacity=".42" d="M16.08 30.525c-.137.309-.246.63-.324.959a3.916 3.916 0 00-.066 1.871.195.195 0 10.377-.102 3.525 3.525 0 01.074-1.698 6.26 6.26 0 01.19-.617l.074-.184c.021-.056 0 .029 0-.031a.201.201 0 00-.067-.268.194.194 0 00-.268.07m1.52-.165c.027.31.038.623.041.937a5.47 5.47 0 01-.165 1.607c-.074.24.303.353.377.106.14-.549.201-1.115.18-1.681 0-.325 0-.649-.043-.97-.02-.25-.412-.253-.39 0zm1.367 0c.028.313.046.627.06.94a5.85 5.85 0 01-.053 1.432c-.053.246.32.352.377.105a5.987 5.987 0 00.067-1.508c0-.324-.032-.649-.06-.97a.204.204 0 00-.197-.197.197.197 0 00-.194.198m4.441-.955c.109.19.207.384.303.585.095.2.144.331.208.51a4.6 4.6 0 01.084.293c0 .043.021.088.028.13v.064a.291.291 0 000 .05.198.198 0 00.194.197.2.2 0 00.198-.198 3.959 3.959 0 00-.374-1.205 8.004 8.004 0 00-.32-.624.202.202 0 10-.353.198m2.925-1.294c.039.028-.046-.039 0 0l.088.074c.091.084.177.174.258.268a.466.466 0 01.035.053 1.183 1.183 0 01.187.317c0 .021 0 .021 0 0a.13.13 0 010 .032.76.76 0 01.081.437.197.197 0 00.197.194.194.194 0 00.194-.194 1.973 1.973 0 00-.864-1.533.197.197 0 00-.267.07.205.205 0 00.07.268M8.352 26.215c-.364.192-.708.42-1.026.68a1.16 1.16 0 00-.264.293.19.19 0 00.07.264.194.194 0 00.265-.067.123.123 0 000-.028s.028-.035 0 0l.028-.028a.93.93 0 01.12-.117l.067-.056.031-.025.155-.112c.187-.13.385-.25.582-.353l.123-.07a.197.197 0 00.07-.268.2.2 0 00-.267-.07m1.008 1.349a3.55 3.55 0 00-1.018 1.057 2.345 2.345 0 00-.268.6.197.197 0 00.377.105 2.37 2.37 0 01.645-1.022 3.98 3.98 0 01.352-.303s.053-.042 0 0l.032-.021.046-.035.042-.029a.202.202 0 10-.197-.352" fill="#872446"/><path d="M16.169 30.23c-.233 0-.138 2.956.158 3.414.296.458.18-.987.286-1.762.105-.775.225-1.642-.444-1.635m-7.148-3.789c0-.166-2.572.409-2.248.99.162.3.31-.352 1.124-.567.814-.215 1.146-.11 1.124-.423zm15.931 4.007c.12-.017-.444-1.878-.857-1.607-.211.141.268.212.483.8.215.589.145.839.374.807z" fill="#CE9DAD"/><path d="M17.057 35.868c-5.336 0-8.364-2.742-9.967-5.054a14.591 14.591 0 01-2.228-5.124l-.028-.159 14.947-2.114h.029l10.943 2.586-.05.159a15.337 15.337 0 01-2.819 4.807c-1.878 2.196-5.258 4.829-10.683 4.882h-.155l.011.017zM5.204 25.795a14.468 14.468 0 002.15 4.85c2.291 3.299 5.604 4.934 9.869 4.91 5.286-.053 8.603-2.619 10.443-4.762a15.535 15.535 0 002.7-4.546l-10.574-2.5-14.588 2.049z" fill="#2A1F2E"/><path d="M2.406 15.35c-.374.22-.543.966-.507 1.95.035.983-.307 1.631-.24 2.072.067.44.102 1.494.137 2.682.036 1.188.025 2.75.233 3.363.208.613.243 1.494.514 1.628.272.134 2.718.137 4.177 0 1.46-.138 8.624-.17 9.745-.236 1.12-.067 6.96-.067 8.286.035 1.325.102 5.84.705 6.827-.07.987-.776 1.357-3.634 1.223-4.653-.134-1.018.134-3.665-.173-4.652-.307-.987-.574-2.376-1.357-2.467a39.394 39.394 0 00-4.483 0c-1.223.067-5.128.218-6.249.218-1.12 0-6.552 0-7.436-.07-.885-.07-6.076.19-7.3.225-1.222.036-1.97-.102-2.512-.102-.543 0-.476-.148-.885.088" fill="#D8E0D1"/><path d="M32.811 21.01c-.144 1.201-.528 2.632-1.184 3.15-.983.783-5.502.17-6.823.067-1.322-.102-7.165-.099-8.286-.032-1.121.067-8.286.103-9.749.237-1.462.134-3.905.137-4.176 0-.272-.138-.303-1.019-.511-1.629-.208-.61-.201-2.174-.236-3.362 0-.307 0-.603-.025-.881a2.6 2.6 0 00-.11.846c.068.44.103 1.494.135 2.682.031 1.188.024 2.752.236 3.362.211.61.24 1.495.51 1.632.272.137 2.718.134 4.177 0 1.46-.134 8.628-.17 9.749-.24 1.12-.07 6.96-.067 8.286.036 1.325.102 5.84.704 6.823-.067.983-.772 1.36-3.634 1.223-4.653a9.014 9.014 0 01-.039-1.149m0-2.611c0 .352 0 .705.021.959 0-.353 0-.663-.02-.96z" fill="#BDCBB5"/><path d="M4.69 27.318c-1.199-.296-1.389-2.114-1.537-6.171-.137-3.835.525-6.027.532-6.048l.152.046c0 .021-.663 2.189-.525 5.991.137 3.877.324 5.76 1.41 6.027l-.032.155z" fill="#484152"/><path d="M5.053 27.28c-1.484-.329-1.512-2.15-1.558-4.907 0-.49-.017-.994-.035-1.53-.11-3.601.553-5.765.56-5.786l.148.049c0 .021-.662 2.16-.55 5.73 0 .54.025 1.058.032 1.534.046 2.685.074 4.458 1.435 4.758l-.032.151zm1.899.003c-.214-.353-.352-1.562-.613-5.89-.26-4.144.353-6.206.353-6.227l.148.045c0 .022-.62 2.062-.353 6.172.265 4.197.395 5.502.592 5.819l-.127.08z" fill="#484152"/><path d="M5.69 15.27l-.124.093.886 1.182.124-.093-.886-1.182zm-.606.01l-.13.087 1.408 2.116.13-.086-1.408-2.116zm-.538.09l-.132.082 1.91 3.054.132-.082-1.91-3.054zm-.465.358l-.132.082 2.457 3.94.131-.083-2.456-3.94zm2.241 5.084l-2.62-4.127.131-.085 2.622 4.127-.133.085zM3.795 17.74l-.131.082 2.656 4.212.132-.082-2.657-4.213zm-.143 1.18l-.13.084 2.976 4.681.13-.083-2.976-4.681zm-.062 1.134l-.13.085 3.042 4.673.13-.085-3.042-4.673zm.057 1.591l-.127.09 3.195 4.48.126-.09-3.194-4.48zm-.001 1.147l-.127.09 2.327 3.276.127-.09-2.327-3.276zm2.866 4.424C5.362 26 3.629 24.167 3.54 24.093l.08-.134s.064.032 3.004 3.151l-.113.106zm-2.673-1.847l-.129.087 1.216 1.798.129-.087-1.216-1.798z" fill="#484152"/><path d="M4.707 15.35l-.893.67.093.125.893-.672-.093-.124zm1.061-.183L3.78 16.658l.093.124 1.988-1.49-.093-.125zm-2.132 2.787l-.095-.124 3.193-2.481.095.123-3.193 2.482zm0 .941l-.099-.12 2.954-2.47.102.119-2.957 2.47zm2.744-1.521L3.537 19.92l.103.116 2.845-2.545-.103-.116zm-.09 1.396l-2.752 2.241.098.12 2.753-2.24-.098-.12zm0 1.123l-2.693 1.946.09.126 2.695-1.947-.091-.125zM3.738 23.06l-.098-.12 2.65-2.128.095.12-2.647 2.129zm2.552-1.106l-2.65 2.193.099.12 2.65-2.193-.099-.12zm.206.921l-2.855 2.354.099.12 2.855-2.354-.099-.12zm-.011.839l-2.541 2.462.108.111 2.541-2.462-.108-.111zm-.001.926l-2.082 2.226.113.106 2.082-2.227-.113-.106zm.338.69l-1.366 1.875.125.092 1.367-1.876-.126-.091z" fill="#484152"/><path d="M4.845 15.345s1.086-.084 1.078-.06c-.007.025-.12.416-.33.353-.212-.063-.258-.145-.258-.145a.235.235 0 01-.219.149.674.674 0 00-.204 0 .825.825 0 00.416.098 8.48 8.48 0 00.458-.053l-.06.8H5.25l.353-.408H5.33l.057.193-.353-.024.099-.152h-.271l.215.398-.5-.067s.052-.352.101-.616c.033-.163.088-.32.162-.469" fill="#DEDEDF"/><path d="M5.229 16.597h-.148l-.589-.081v-.078s.053-.352.103-.624a2.08 2.08 0 01.169-.486l.021-.039h.042c1.103-.084 1.114-.07 1.146-.031l.024.035v.039a.954.954 0 01-.151.306h.024l-.07.966h-.582l.011-.007zm-.137-.261l.074.145.112-.131-.186-.014zm.327.085h.236l.022-.296-.194.225v.018h-.021l-.043.053zm-.75-.057l.282.039-.205-.38h.945v-.226l-.353.038a.963.963 0 01-.461-.105l-.078-.046c0 .046-.025.095-.035.148-.035.18-.074.416-.092.536l-.003-.004zm.521-.172h.092l-.028-.103-.064.103zm.162-.557a.306.306 0 01-.049.045h.109a.244.244 0 01-.06-.035v-.01zm-.454-.201a1.56 1.56 0 00-.07.18l.066-.018a.704.704 0 01.233 0c.091 0 .137-.099.14-.102l.04-.085-.41.028v-.003zm.514.06s.04.06.201.098c.078.021.152-.088.201-.215l-.444.028.042.089z" fill="#484152"/><path d="M4.577 16.428a.705.705 0 00.511.289.705.705 0 00.5-.145h.092l-.031.737s-.053.705-.603.705a.624.624 0 01-.596-.592l.127-.994z" fill="#DEDEDF"/><path d="M5.057 18.105a.683.683 0 01-.67-.666l.152-1.22.116.17a.651.651 0 00.45.253.67.67 0 00.445-.123l.021-.021h.205l-.036.818c-.02.275-.186.786-.673.786l-.01.003zm-.515-.673a.543.543 0 00.518.515c.465 0 .515-.614.515-.642l.031-.641a.864.864 0 01-.518.13.723.723 0 01-.447-.19l-.099.828z" fill="#484152"/><path d="M5.447 17.15h-.705v.155h.705v-.155z" fill="#484152"/><path d="M4.577 18.088s.06.398.416.391a.726.726 0 00.553-.331l.032 1.367s-.074.645-.585.578c-.51-.067-.585-.673-.585-.673a7.868 7.868 0 010-.797c.017-.188.074-.371.17-.535" fill="#DEDEDF"/><path d="M5.07 20.174h-.084a.828.828 0 01-.652-.74 7.311 7.311 0 010-.814 1.41 1.41 0 01.18-.571l.112-.176.032.208s.056.335.353.324a.656.656 0 00.486-.293l.137-.229.043 1.632a.92.92 0 01-.282.56.504.504 0 01-.31.103l-.015-.004zm-.493-1.882a1.191 1.191 0 00-.081.353 7.699 7.699 0 000 .785c0 .018.078.54.518.6a.354.354 0 00.268-.078.705.705 0 00.218-.44l-.028-1.153a.705.705 0 01-.476.204.458.458 0 01-.43-.264" fill="#484152"/><path d="M4.658 19.092h.737s-.176.279-.353.261c-.176-.018-.352-.26-.352-.26" fill="#DEDEDF"/><path d="M5.042 19.43h-.02a.705.705 0 01-.427-.292l-.064-.088.102-.032c.255-.017.51-.017.765 0h.141l-.077.116c-.021.032-.198.296-.42.296zm-.211-.264a.405.405 0 00.2.11.286.286 0 00.202-.106H4.83" fill="#484152"/><path d="M5.028 20.22c-.225 0-.63.247-.627.94.003.695.331.815.627.833.296.017.624-.198.589-.945-.035-.747-.282-.828-.589-.828z" fill="#DEDEDF"/><path d="M5.056 22.067h-.035c-.468-.025-.705-.325-.705-.91a1.124 1.124 0 01.286-.824.624.624 0 01.42-.194c.387 0 .634.148.669.902a1.12 1.12 0 01-.24.867.557.557 0 01-.398.162l.003-.003zm-.035-1.759a.458.458 0 00-.306.152.938.938 0 00-.24.704c0 .638.282.74.553.755a.404.404 0 00.314-.117.997.997 0 00.194-.747c-.035-.754-.29-.754-.515-.754" fill="#484152"/><path d="M5.395 21.073c0 .056-.166.106-.353.106-.187 0-.352-.05-.352-.106 0-.056.165-.106.352-.106.187 0 .353.046.353.106z" fill="#DEDEDF"/><path d="M5.025 21.256c-.074 0-.444 0-.444-.183s.352-.183.444-.183c.091 0 .447 0 .447.183s-.37.183-.447.183zm-.24-.183c.078.02.159.029.24.028a.945.945 0 00.243-.028.949.949 0 00-.243-.028.94.94 0 00-.24.028z" fill="#484152"/><path d="M4.577 21.968a.49.49 0 00.483.296.86.86 0 00.557-.296v1.206s-.286-.353-.592-.353c-.307 0-.261.127-.261.127l.458.44H4.8a.38.38 0 00.353.272.772.772 0 00.528-.204v.986a1.437 1.437 0 00-.55-.197l-.281-.025.55.494-.385.046.92.317v.45l-.902.29c.147.037.3.052.45.042.154-.024.305-.06.452-.11l.137.864a1.04 1.04 0 01-.352 0 .835.835 0 01-.194-.127s-.155.142-.208.145c-.053.003.744.102.744.102l.085.212H6l-.137-.032-.705.092s-.353-.145-.543-1.146a14.901 14.901 0 01-.113-2.64c-.005-.416.015-.833.06-1.247" fill="#DEDEDF"/><path d="M5.166 27.082h-.022c-.038-.018-.401-.19-.588-1.205-.11-.7-.15-1.408-.117-2.115v-.546a9.81 9.81 0 01.06-1.252v-.024l.237-.705-.082.73a.427.427 0 00.399.221.75.75 0 00.497-.267l.14-.173v1.579l.057-.053v1.308l-.12-.078a1.36 1.36 0 00-.514-.18h-.05l.508.451-.222.025.652.23v.563l-.631.204h.092c.148-.024.294-.06.437-.105l.088-.032.162 1.036h-.025l.134.353h-.271l-.12-.032-.701.067zm-.53-4.896c-.03.341-.043.684-.038 1.026v.557c-.032.693.005 1.387.11 2.072.15.814.415 1.037.482 1.079l.684-.092.162.035-.025-.06c-.39-.052-.585-.077-.68-.098-.084-.021-.084-.039-.08-.078v-.074h.073a.926.926 0 00.159-.123l.05-.046.052.042c.053.046.11.085.173.117a.707.707 0 00.222 0l-.11-.705a2.7 2.7 0 01-.377.084 1.437 1.437 0 01-.483-.045l-.26-.067 1.106-.353v-.352l-1.19-.413.552-.063-.599-.536.518.046c.162.02.32.067.466.141v-.705a.75.75 0 01-.459.123.455.455 0 01-.415-.33l-.025-.096h.331l-.352-.331a.137.137 0 010-.127c.046-.07.148-.106.317-.11a.8.8 0 01.514.237v-.825a.832.832 0 01-.472.19.583.583 0 01-.43-.155l.025.035zm.293 1.29a.303.303 0 00.226.117.68.68 0 00.465-.183l.042-.04-.105-.133s-.265-.353-.529-.328a.448.448 0 00-.17.028l.561.54h-.49z" fill="#484152"/><path d="M7.425 21.192H7.27v-3.369l.151.352c.103.266.255.51.448.72.173.12.705.084 1.142 0 .324-.075.486-.603.486-.61l.11-.37.042.384c.024.216.074.43.148.634.075.135.166.26.271.374l.025.021v1.269h-.085c-.602-.036-1.829-.07-2.14.046a.796.796 0 00-.443.56v-.01zm0-2.636v2.252a.839.839 0 01.388-.313c.352-.138 1.762-.078 2.114-.06v-1.058a1.761 1.761 0 01-.278-.387 1.804 1.804 0 01-.12-.41.817.817 0 01-.49.452c-.352.078-1.008.166-1.269 0a1.512 1.512 0 01-.352-.48" fill="#6F8D90"/><path d="M8.718 24.763a1.328 1.328 0 01-.525-.096 1.166 1.166 0 01-.663-.704c-.257-.705-.394-1.981.1-2.714a1.233 1.233 0 011.056-.55 1.43 1.43 0 011.41 1.29c.134 1.057.219 2.241-.486 2.573a2.15 2.15 0 01-.888.208l-.004-.007zm-.032-3.909a1.086 1.086 0 00-.937.476c-.455.68-.317 1.935-.081 2.57a1.029 1.029 0 00.585.634 1.665 1.665 0 001.286-.11c.663-.31.49-1.677.399-2.41a1.265 1.265 0 00-1.255-1.156m.243 6.076a1.487 1.487 0 01-1.17-.388 1.057 1.057 0 01-.17-1.057c.124-.254.448-.56 1.308-.571.353 0 1.266.099 1.41.634a1.27 1.27 0 010 .959.749.749 0 01-.497.317 4.203 4.203 0 01-.877.095l-.004.01zm-.028-1.861c-.613 0-1.019.176-1.167.483a.898.898 0 00.148.881c.307.384 1.195.391 1.893.236a.571.571 0 00.398-.243 1.143 1.143 0 000-.835c-.098-.353-.796-.529-1.258-.522" fill="#6F8D90"/><path d="M8.74 23.166c-.41 0-1.104-.07-1.104-.331 0-.26.705-.352 1.103-.352.399 0 1.107.07 1.107.352s-.705.331-1.107.331zm0-.51c-.575 0-.924.119-.949.183.293.147.622.207.948.172.327.036.657-.026.948-.176a1.628 1.628 0 00-.948-.18m.215 3.588c-.26 0-1.106 0-1.106-.257 0-.258.846-.258 1.106-.258.261 0 1.107.018 1.107.258 0 .24-.85.257-1.107.257zm-.913-.257a4.137 4.137 0 001.826 0 4.127 4.127 0 00-1.826 0m4.169-9.59a.485.485 0 01-.204-.046 1.387 1.387 0 01-.38-.395h-.296v.353h-.16v-.518h.526l.021.035c.09.148.21.277.353.377a.353.353 0 00.3 0 .126.126 0 00.07-.099.088.088 0 00-.032-.074.268.268 0 00-.155-.066c.01.002.021.002.032 0l-.11-.113c.057-.057.177 0 .222 0a.268.268 0 01.05.5.522.522 0 01-.243.064m.335.909l-.046-.021.035-.07-.07-.032a.462.462 0 00-.06-.297.388.388 0 00-.293-.148h-.208a.54.54 0 01.064.24.352.352 0 01-.353.324c-.13 0-.475 0-.486-.352 0-.152.092-.353.582-.353.142-.01.284-.01.426 0a.512.512 0 01.476.353c.032.106.046.292 0 .352l-.067.004zm-.779-.578h-.06c-.2 0-.44.053-.437.204.004.152.123.201.328.201a.185.185 0 00.187-.098.187.187 0 00.02-.071.374.374 0 00-.073-.212l.035-.024zm.102 1.741c-.43 0-.754-.166-.754-.388s.324-.387.754-.387.758.165.758.387-.324.388-.758.388zm0-.62c-.352 0-.599.134-.599.232 0 .099.23.233.6.233s.598-.137.598-.233c0-.095-.225-.232-.599-.232zm.063 3.39c-.423 0-.754-.2-.754-.458 0-.257.331-.462.754-.462s.758.201.758.462c0 .26-.331.458-.758.458zm0-.765c-.352 0-.599.163-.599.307 0 .145.247.303.6.303.352 0 .598-.162.598-.303s-.246-.307-.599-.307zm.307-.595a.475.475 0 01-.25-.07.887.887 0 01-.211-.297c-.071-.13-.17-.31-.254-.328l-.254-.052v.67h-.155v-.857l.091.018.353.066c.155.032.26.226.352.41a.904.904 0 00.163.239.299.299 0 00.274 0 .243.243 0 00.12-.219.353.353 0 00-.292-.352l.028-.155a.497.497 0 01.42.521.38.38 0 01-.388.395m-1.022 3.162l-.043-.152 1.132-.314-.705-.172c-.384-.095-.458-.106-.469-.11v-.063l-.028-.088c.028 0 .032 0 .525.11a92.86 92.86 0 011.005.242l.289.074-1.706.473z" fill="#6F8D90"/><path d="M11.636 22.356h-.155v.44h.155v-.44z" fill="#6F8D90"/><path d="M21.286 18.606c0 .997-1.72 1.808-3.845 1.808s-3.845-.81-3.845-1.808 1.723-1.826 3.845-1.826 3.845.81 3.845 1.811" fill="#DEDEDF"/><path d="M17.441 20.491c-2.164 0-3.922-.846-3.922-1.885 0-1.04 1.762-1.89 3.922-1.89s3.927.846 3.927 1.89c0 1.043-1.763 1.885-3.927 1.885zm0-3.62c-2.076 0-3.767.78-3.767 1.735 0 .955 1.691 1.73 3.767 1.73 2.076 0 3.768-.775 3.768-1.73s-1.688-1.734-3.768-1.734z" fill="#484152"/><path d="M21.286 18.465c0 .42-1.72.761-3.845.761s-3.845-.352-3.845-.761c0-.41 1.723-.762 3.845-.762s3.845.353 3.845.762z" fill="#DEDEDF"/><path d="M17.441 19.304c-1.9 0-3.922-.296-3.922-.843 0-.546 2.023-.839 3.922-.839 1.9 0 3.927.297 3.927.84 0 .542-2.024.842-3.927.842zm0-1.523c-2.333 0-3.767.398-3.767.68 0 .282 1.434.684 3.767.684s3.768-.398 3.768-.684c0-.285-1.431-.68-3.768-.68z" fill="#484152"/><path d="M17.37 18.229a3.345 3.345 0 01-3.39-3.289h.159a3.232 3.232 0 006.463 0h.159a3.345 3.345 0 01-3.39 3.289" fill="#6F8D90"/><path d="M17.37 17.298c-1.466 0-2.66-1.022-2.66-2.28h.155c0 1.174 1.124 2.115 2.506 2.115 1.381 0 2.506-.952 2.506-2.115h.155c0 1.258-1.195 2.28-2.661 2.28z" fill="#6F8D90"/><path d="M17.37 17.02c-1.258 0-2.28-.878-2.28-1.957h.155c0 .99.956 1.798 2.115 1.798 1.16 0 2.115-.807 2.115-1.798h.158c0 1.079-1.022 1.957-2.28 1.957" fill="#6F8D90"/><path d="M29.125 27.593l-.053-.148s.388-.155.818-1.248c.43-1.092.796-4.254.623-7.588-.162-3.196-1.19-3.577-1.201-3.58l.049-.149c.046 0 1.138.392 1.311 3.722.176 3.482-.194 6.542-.634 7.655-.469 1.177-.896 1.329-.913 1.336" fill="#484152"/><path d="M28.896 27.441l-.124-.098a6.838 6.838 0 001.17-2.524 29.54 29.54 0 00.303-6.718c-.197-2.188-1.307-3.076-1.318-3.083l.096-.124c.045.035 1.173.934 1.378 3.193a29.675 29.675 0 01-.307 6.76 7.05 7.05 0 01-1.198 2.594m-2.231-.148l-.127-.091a7.423 7.423 0 001.004-2.852 22.39 22.39 0 00.29-5.882c-.163-2.657-1.164-3.33-1.174-3.338l.084-.13c.043.028 1.079.723 1.244 3.457.167 1.977.07 3.967-.289 5.918a7.43 7.43 0 01-1.032 2.918m1.756-12.381l-.75 1.223.132.08.75-1.222-.132-.08z" fill="#484152"/><path d="M27.877 17.178l-.137-.074 1.19-2.189.138.078-1.191 2.185zm.036 1.061l-.142-.07 1.618-3.155.141.07-1.617 3.155zm1.706-2.463l-1.712 3.349.138.07 1.712-3.348-.138-.07zm.292.671l-2.003 3.85.138.07 2.003-3.848-.138-.072zm.11 1.021l-2.14 4.154.138.072 2.14-4.155-.138-.07zm.251.976l-2.533 4.868.137.072 2.533-4.868-.137-.072zm-.075 1.413l-2.57 4.832.137.073 2.57-4.832-.137-.073zm-3.173 7.003l-.134-.081 3.387-5.502.134.081-3.387 5.502zm3.223-4.346L27.294 27.4l.133.08 2.952-4.886-.133-.08zm-2.056 5.143l-.134-.078c2.069-3.648 2.115-3.672 2.115-3.687l.08.134-.041-.067.06.053c-.075.096-1.29 2.231-2.094 3.645" fill="#484152"/><path d="M28.453 14.988l-.104.115 1.579 1.429.104-.115-1.579-1.429zm-1.077-.17l-.107.112 2.893 2.742.107-.112-2.893-2.742zm-.366.402l-.11.108 3.387 3.456.11-.109-3.387-3.456zm.853 1.864l-.114.105 2.585 2.827.115-.105-2.586-2.827zm.077 1.452l-.11.11 2.508 2.492.11-.11-2.508-2.492zm2.323 3.414l-2.266-1.998.106-.116 2.266 1.998-.106.116zm-.19 1.001l-2.108-2.069.11-.109 2.107 2.069-.11.11zm-2.137-1.124l-.11.11 2.243 2.267.11-.11-2.243-2.267zm-.04 1.077l-.11.11 2.14 2.156.11-.11-2.14-2.156zm-.126.746l-.118.1 1.97 2.32.117-.101-1.969-2.319zm.003.943l-.123.094 1.57 2.051.123-.094-1.57-2.051zm.985 2.841l-1.367-2.241.134-.081 1.367 2.238-.134.084zm-1.537-1.464l-.133.08 1.072 1.798.133-.08-1.072-1.798z" fill="#484152"/><path d="M28.896 15.176a1.3 1.3 0 00.352.353c.17.085.392.169.392.169l.373 1.156-1.004-.063s-.441-.021-.543.215c-.07.192-.115.392-.134.595h-.173a9.166 9.166 0 00-.254-1.216 11.68 11.68 0 00-.458-1.212h.205s.186.352.352.373c.243.057.495.063.74.018.145-.085.162-.391.162-.391" fill="#DEDEDF"/><path d="M28.335 17.682h-.24v-.067a9.67 9.67 0 00-.257-1.187c-.129-.41-.28-.813-.454-1.206l-.05-.109h.37l.025.042c.081.152.211.325.278.332h.106c.193.038.392.038.585 0 .081-.05.116-.244.123-.328v-.23l.13.188c.087.131.198.244.329.33.162.086.38.167.384.17h.035l.42 1.304L29 16.847c-.105 0-.402 0-.465.17a2.19 2.19 0 00-.13.57v.07l-.07.025zm-.102-.155h.032a2.27 2.27 0 01.134-.55c.12-.282.599-.26.62-.26l.888.056-.328-1.011a3.611 3.611 0 01-.352-.159.986.986 0 01-.275-.24.423.423 0 01-.17.272c-.23.064-.474.064-.704 0h-.099c-.158 0-.313-.265-.377-.374h-.039c.092.212.286.705.416 1.114.107.38.19.768.247 1.16" fill="#484152"/><path d="M29.132 17.178c-.328.025-1.037.24-1.001 2.227.035 1.988-.353 3.817 1 3.906 1.354.088 1.375-2.362 1.357-3.313-.017-.952-.218-2.905-1.356-2.82z" fill="#DEDEDF"/><path d="M29.198 23.388h-.07c-1.153-.074-1.12-1.357-1.086-2.84v-1.142c-.031-1.837.564-2.267 1.058-2.305a.92.92 0 01.705.243c.637.581.733 2.047.743 2.654.029 1.603-.204 2.65-.705 3.119a.955.955 0 01-.676.271h.031zm-.091-6.132c-.8.06-.948 1.201-.93 2.146v1.149c-.04 1.621 0 2.619.94 2.679a.782.782 0 00.628-.226c.313-.3.68-1.057.645-3.006 0-.455-.081-1.981-.705-2.538a.761.761 0 00-.582-.204" fill="#484152"/><path d="M30.235 20.22c0 .233-.43.423-.966.423s-.965-.19-.965-.423c0-.233.433-.426.965-.426s.966.19.966.426z" fill="#DEDEDF"/><path d="M29.27 20.72c-.596 0-1.058-.215-1.058-.5 0-.286.448-.504 1.057-.504.61 0 1.058.215 1.058.504 0 .289-.448.5-1.058.5zm0-.85c-.522 0-.889.184-.889.353 0 .17.352.353.888.353s.888-.184.888-.353c0-.169-.352-.352-.888-.352z" fill="#484152"/><path d="M29.15 23.53c-.427 0-.9.373-1.344 1.818-.444 1.445 0 1.695 0 1.695h1.343s.543-.151.765-1.579c.222-1.427-.07-1.952-.765-1.935z" fill="#DEDEDF"/><path d="M29.16 27.12h-1.375c-.049-.031-.483-.33-.035-1.79.388-1.261.835-1.857 1.41-1.871a.807.807 0 01.662.247c.265.303.325.867.184 1.78-.226 1.458-.797 1.635-.822 1.642l-.024-.007zm-1.322-.154h1.3c.064-.025.508-.261.706-1.512.13-.85.084-1.389-.148-1.65a.655.655 0 00-.54-.197c-.493 0-.909.588-1.265 1.762-.356 1.174-.113 1.533-.05 1.597" fill="#484152"/><path d="M29.625 25.83c0 .174-.409.315-.91.315-.5 0-.909-.141-.909-.314 0-.173.41-.314.91-.314s.909.141.909.314z" fill="#DEDEDF"/><path d="M28.716 26.222c-.49 0-.987-.134-.987-.391 0-.515 1.974-.515 1.974 0 0 .257-.497.39-.987.39zm0-.628c-.536 0-.828.156-.828.237 0 .08.292.236.828.236s.832-.155.832-.236c0-.081-.296-.236-.832-.236z" fill="#484152"/><path d="M26.637 15.067h-.973c.383.456.628 1.013.705 1.604a26.63 26.63 0 01.282 1.885h.835a8.819 8.819 0 00-.187-2.14 4.888 4.888 0 00-.662-1.349z" fill="#DEDEDF"/><path d="M27.563 18.634h-.997v-.07s-.078-.776-.278-1.88a3.173 3.173 0 00-.67-1.564l-.134-.13h1.198l.025.031c.294.42.521.884.673 1.375.152.71.217 1.437.194 2.164l-.01.074zm-.856-.159h.705a8.522 8.522 0 00-.187-2.037 4.893 4.893 0 00-.63-1.293h-.762c.312.452.516.969.599 1.512.17.92.25 1.607.275 1.818z" fill="#484152"/><path d="M26.527 15.233s-.373-.032-.388.085c-.014.116.522.091.522.091" fill="#DEDEDF"/><path d="M26.53 15.49a.705.705 0 01-.436-.088.109.109 0 01-.032-.092c0-.165.303-.169.472-.155v.155a1.097 1.097 0 00-.243 0c.125.012.252.012.377 0v.159h-.134m.05.345H26.4v.155h.184v-.155zm.327 0H26.7v.155h.211v-.155z" fill="#484152"/><path d="M27.134 16.639c0 .067-.113.123-.254.123-.141 0-.254-.056-.254-.123s.113-.127.254-.127c.14 0 .254.056.254.127z" fill="#DEDEDF"/><path d="M26.873 16.84c-.194 0-.335-.084-.335-.204 0-.12.14-.205.335-.205.194 0 .331.088.331.205 0 .116-.141.204-.331.204zm0-.25a.24.24 0 00-.18.053.377.377 0 00.18.042.257.257 0 00.172-.05.286.286 0 00-.172-.045m.007.863h-.156v.35h.155v-.35zm.362 0h-.155v.35h.155v-.35zm-.109.483h-.155v.497h.155v-.497z" fill="#484152"/><path d="M24.099 15.405a1.12 1.12 0 001.057.381.648.648 0 00.529-.779" fill="#DEDEDF"/><path d="M24.927 15.892a1.162 1.162 0 01-.85-.402l-.024-.021.046-.053v-.088c.046 0 .07.018.105.053a.99.99 0 00.963.328.569.569 0 00.45-.691l.152-.032a.704.704 0 01-.585.867c-.084.02-.17.031-.257.032" fill="#484152"/><path d="M25.392 15.237l-.886.053.009.154.887-.052-.01-.155z" fill="#484152"/><path d="M24.902 15.99h-.666s-.024 1.248.776 1.259c.8.01.68-.705.705-.765.024-.06.282.035.19.278a1.41 1.41 0 01-.285.448h.641s.099-.92-.388-1.103c-.486-.183-.86-.134-.913.11-.08.352-.246.549-.303.299a.47.47 0 01.254-.522" fill="#DEDEDF"/><path d="M25.019 17.33a.685.685 0 01-.508-.215 1.83 1.83 0 01-.352-1.125v-.077h1.096-.021c.225-.016.45.022.659.11.535.204.444 1.145.44 1.183v.07h-.902l.081-.08a.86.86 0 01-.472.12l-.021.014zm-.705-1.255c0 .335.106.663.303.934a.54.54 0 00.398.17.602.602 0 00.469-.149.662.662 0 00.144-.483.416.416 0 010-.067.103.103 0 01.078-.084.23.23 0 01.208.077.3.3 0 01.056.325 1.477 1.477 0 01-.19.352h.402c0-.208 0-.818-.353-.952a.97.97 0 00-.705-.06.159.159 0 00-.088.113c-.024.11-.12.476-.3.476-.052 0-.123-.032-.154-.176a.518.518 0 01.084-.476h-.352zm1.47.49a.99.99 0 01-.057.373 1.25 1.25 0 00.099-.193.159.159 0 000-.145l-.032-.035h-.01zm-.85-.49a.384.384 0 00-.208.434.12.12 0 000 .042.833.833 0 00.134-.353.352.352 0 01.074-.14v.017z" fill="#484152"/><path d="M25.371 17.334h.955l.07 1.762h-.828l.53-.592s-1.146-.134-1.143.19c.004.324 1.498.758 1.498.758v.638s-1.466.623-1.445.923c.021.3 1.152.215 1.152.215s-.683-.44-.67-.458c.015-.018.995-.056.995-.056l-.159 3.718h-.747l.25-.41h-.705l.184.403h-.765c.032-.035.211-.353.2-3.172 0-3.088-.204-3.877-.204-3.877h.31s-.12.32.353.352c.247.027.497.007.736-.06l-.567-.334z" fill="#DEDEDF"/><path d="M26.386 24.534H24.49l-.042-.095.035-.04c0-.027.19-.352.176-3.122 0-3.03-.197-3.877-.2-3.877l-.022-.098h.522l-.04.105a.171.171 0 000 .141c.04.064.131.099.269.11.174.02.35.02.525 0l-.656-.388h1.315l.078 1.931h-.61c.19.074.401.145.606.205h.056v.747l-.046.021c-.768.328-1.41.705-1.41.846 0 0 0 .017.022.035.254.106.53.147.803.12-.482-.317-.49-.352-.496-.374v-.031l.02-.029c.029-.042.036-.052 1.058-.095h.085l-.152 3.888zm-1.149-.413c.039.088.099.212.138.3l.052.113.25-.41h-.44v-.003zm.469.261h.532l.13-3.063h-.218c-.092 0-.923.06-1.16-.144a.215.215 0 01-.074-.145c-.02-.317 1.058-.807 1.445-.98v-.524a7.263 7.263 0 01-.923-.353h-.067v-.021c-.293-.138-.529-.3-.532-.458a.216.216 0 01.07-.159c.233-.211 1.058-.12 1.156-.11h.152l-.494.607h.575l-.067-1.621h-.592l.476.282-.155.056a2.013 2.013 0 01-.772.064.482.482 0 01-.391-.184.31.31 0 01-.046-.172h-.124c.152 1.264.215 2.537.187 3.81 0 1.624-.053 2.72-.162 3.101h.529a6.114 6.114 0 01-.138-.3v-.038l.025-.036c.028-.038.039-.049.758-.035h.137l-.257.423zm-.025-3.524c.13.091.324.218.508.334l.18.117.02-.483-.704.032h-.004zm-.077-2.274a1.058 1.058 0 00-.56.1c-.018.017-.022.027-.018.041 0 .081.197.208.482.335l.416-.461h-.32" fill="#484152"/><path d="M25.262 19.797a.454.454 0 01-.3-.102.275.275 0 01-.077-.208.288.288 0 01.088-.212.472.472 0 01.303-.098h.095v.617h-.091l-.018.003zm-.05-.462a.29.29 0 00-.116.053.136.136 0 00-.039.099.127.127 0 00.032.091.22.22 0 00.123.053v-.296z" fill="#484152"/><path d="M25.502 19.317c0 .032.028.353.028.353l.271-.176-.3-.177z" fill="#DEDEDF"/><path d="M25.459 19.797v-.127c0-.053-.025-.317-.025-.352v-.134l.529.3-.504.313zm.13-.352v.067l.053-.036-.053-.031z" fill="#484152"/><path d="M26.171 22.134c-.024 0-1.223-.19-1.209.352.014.543 1.21.321 1.21.321a5.552 5.552 0 01-.607-.19l.606-.473" fill="#DEDEDF"/><path d="M25.67 22.916c-.227.02-.454-.03-.651-.145a.351.351 0 01-.134-.281.354.354 0 01.112-.275c.265-.247.917-.177 1.132-.152h.035l.352-.088-.292.226-.5.384.472.134.331.091-.352.064c-.17.027-.343.042-.515.042h.01zm.015-.733a.892.892 0 00-.592.134.2.2 0 00-.064.159.198.198 0 00.081.162c.194.105.416.147.635.12-.254-.075-.258-.096-.268-.138v-.046l.038-.032.448-.352h-.271" fill="#484152"/><path d="M25.61 23.593l.269.31.268-.31h-.536z" fill="#DEDEDF"/><path d="M25.879 24.023l-.06-.07-.265-.308-.127-.13h.889l-.437.508zm-.096-.353l.096.113.098-.113h-.194z" fill="#484152"/><path d="M24.846 23.593l.243.271.247-.271h-.49z" fill="#DEDEDF"/><path d="M25.089 23.984l-.423-.472h.839l-.416.472zm-.07-.314l.07.078.07-.078h-.14z" fill="#484152"/><path d="M22.361 15.779c.183.765.3 1.545.353 2.33.028.993.102 2.78.102 2.78s.352-.972.945-.87c.592.102.764.814.764.814s0-2.386-.102-3.204a21.114 21.114 0 00-.486-2.217l-1.576.367z" fill="#DEDEDF"/><path d="M24.589 21.51l-.155-.66s-.162-.662-.705-.753c-.543-.092-.853.81-.856.817l-.134.38-.018-.4s-.074-1.798-.102-2.782a14.043 14.043 0 00-.353-2.315v-.074l1.713-.402.021.07c.201.734.364 1.477.487 2.228.098.814.102 3.119.102 3.214v.677zm-2.136-5.671c.171.746.28 1.505.328 2.27 0 .726.063 1.889.088 2.467.162-.296.462-.705.892-.62a.983.983 0 01.67.5c0-.705-.025-2.2-.1-2.802-.116-.718-.27-1.43-.461-2.132l-1.417.317z" fill="#484152"/><path d="M23.757 15.853a2.431 2.431 0 01-.902 0c.298-.052.604-.052.902 0z" fill="#DEDEDF"/><path d="M23.306 15.973c-.529 0-.529-.053-.529-.12s0-.12.529-.12.532.053.532.12 0 .12-.532.12z" fill="#484152"/><path d="M23.197 16.64l.109.323h-.451a.853.853 0 00.705.353.605.605 0 00.556-.331h-.542l.264-.332-.641-.014z" fill="#DEDEDF"/><path d="M23.503 17.383a.933.933 0 01-.704-.374l-.089-.123h.494l-.106-.328h.895l-.267.335h.493l-.042.105a.67.67 0 01-.624.381h-.043l-.007.003zm-.458-.357a.704.704 0 00.725.138.571.571 0 00.188-.13h-.56l-.353-.008zm.268-.324l.102.31.25-.31h-.352z" fill="#484152"/><path d="M22.728 16.304s.271.307.275.293c.003-.014.31-.3.303-.293-.007.007-.578 0-.578 0z" fill="#DEDEDF"/><path d="M22.996 16.678c-.04 0-.081-.043-.328-.32l-.116-.135h.74l.176-.017-.106.144-.021.018-.275.264v.032H23l-.004.014zm-.088-.307l.098.106.102-.102h-.204" fill="#484152"/><path d="M23.86 16.611c-.033 0-.068-.028-.174-.113l-.155-.116h-.204l.173-.13a.081.081 0 01.07 0l.462.031h.05l.02.046c.021.053 0 .07-.088.17a.815.815 0 00-.077.08v.025l-.043.021h-.035v-.014zm-.05-.197l.035.024v-.02h-.053m.131 1.959c-.268 0-.413-.42-.427-.469l-.024-.074.074-.025.733.018h.105l-.035.099c0 .046-.158.447-.426.447v.004zm-.236-.416c.056.12.144.257.236.257.091 0 .183-.134.236-.243h-.472" fill="#484152"/><path d="M23.57 17.883s-.673.067-.88.353z" fill="#DEDEDF"/><path d="M22.752 18.292l-.127-.088c.237-.352.938-.398.945-.398v.158c-.102 0-.652.088-.821.328" fill="#484152"/><path d="M24.465 18.807c0 .035-.165.493-.465.447-.3-.046-.462-.733-.472-.705-.17.225-.37.424-.596.592-.211.106 0 .282 1.057.124" fill="#DEDEDF"/><path d="M23.285 19.399c-.254 0-.462-.04-.497-.155 0-.032-.021-.117.109-.184.215-.16.405-.351.564-.567l.028-.035h.05c.049 0 .06.038.084.112.127.381.257.585.388.603.218.035.352-.331.377-.384l.155.025c0 .07-.19.56-.543.518a5.626 5.626 0 01-.705.063l-.01.004zm-.314-.198c.267.053.543.053.81 0a1.49 1.49 0 01-.27-.514 2.34 2.34 0 01-.533.507" fill="#484152"/><path d="M22.802 20.826s-.11.81.222 1.15c.331.338.434.334.434.334s.215-.335.204-.331c-.01.003-.546-.085-.514-.384.031-.3 1.328-.466 1.254.024a.483.483 0 01-.588.395l-.036.282a.705.705 0 00.705-.352 1.28 1.28 0 00.127-.903s-.194-1.011-.85-1.015c-.655-.003-.824.377-.944.807" fill="#DEDEDF"/><path d="M23.458 22.391c-.053 0-.187-.05-.49-.352-.353-.353-.25-1.181-.243-1.216.123-.44.306-.87 1.022-.864.715.007.92 1.015.92 1.05.077.326.028.669-.138.96a.751.751 0 01-.705.39h-.134v-.098l.036-.286a2.579 2.579 0 01-.212.353l-.024.035h-.043l.01.028zm-.592-1.579c0 .07-.085.786.204 1.082.103.114.222.212.352.293l.113-.177a.906.906 0 01-.328-.155.325.325 0 01-.14-.296c0-.067.052-.165.243-.246a1.262 1.262 0 011.057 0 .285.285 0 01.113.282.513.513 0 01-.205.352.623.623 0 01-.394.102v.117a.592.592 0 00.532-.318c.14-.257.182-.556.116-.842 0 0-.187-.955-.772-.959-.599 0-.743.353-.86.744l-.031.021zm.846 1.036l.031.043a.05.05 0 01.018.031v-.042h.08a.518.518 0 00.353-.067.378.378 0 00.145-.26.137.137 0 00-.056-.138 1.142 1.142 0 00-.896 0c-.109.046-.148.095-.151.12a.165.165 0 00.038.12c.11.094.245.157.388.18l.05.013z" fill="#484152"/><path d="M22.809 21.672l-.12 2.689 1.847-1.075.014-.508-.825-.44-.528-.198-.388-.468z" fill="#DEDEDF"/><path d="M22.605 24.502l.133-3.038.518.603.505.186.88.47-.017.598-2.02 1.181zm.27-2.626l-.101 2.348 1.684-.984v-.416l-.771-.405-.536-.197-.275-.346z" fill="#484152"/><path d="M23.503 23.071v-.634l.613.352-.613.282zm.155-.352v.12l.117-.053-.117-.067z" fill="#484152"/><path d="M23.355 22.536s-.352.067-.314.303c.04.236.314.215.314.215v-.518z" fill="#DEDEDF"/><path d="M23.33 23.124a.353.353 0 01-.352-.29c-.02-.242.226-.352.377-.387l.092-.017v.694h-.116zm-.038-.49c-.078.028-.17.088-.159.187.011.098.092.13.159.14v-.327z" fill="#484152"/><path d="M25.17 24.59h-.659v.821l.352-.056s.258-.779.846-.779c.589 0 .455 1.153.455 1.153h-1.3l-.388-.067" fill="#DEDEDF"/><path d="M26.217 25.806h-1.371l-.402-.067.028-.155.388.067h1.216a1.438 1.438 0 00-.166-.899.275.275 0 00-.215-.098c-.521 0-.765.704-.768.726v.046l-.476.077v-.99h.74v.155h-.581v.652l.2-.035c.068-.173.353-.786.9-.786a.43.43 0 01.352.148c.282.32.2 1.057.197 1.092l-.042.067z" fill="#484152"/><path d="M25.393 25.288s.218-.493.377.053z" fill="#DEDEDF"/><path d="M25.695 25.365c-.056-.19-.106-.204-.106-.204s-.088.07-.127.159l-.14-.064c0-.046.123-.26.278-.25.155.01.208.183.247.314l-.152.045z" fill="#484152"/><path d="M29.33 27.321c-1.125 0-2.468-.12-3.768-.246a25.248 25.248 0 00-.822-.078c-1.363-.106-7.2-.099-8.264-.035-.451.028-1.872.05-3.525.074-2.386.039-5.357.084-6.227.162-1.28.12-3.916.159-4.261 0-.24-.12-.318-.508-.416-.997a5.858 5.858 0 00-.177-.723c-.18-.525-.2-1.657-.225-2.753v-.655c-.035-1.202-.07-2.235-.134-2.661-.017-.265.011-.53.085-.786.105-.427.156-.865.151-1.304-.025-.642.025-1.762.585-2.09a.726.726 0 01.596-.141c.116.021.234.032.352.032.205 0 .434.017.705.039a16 16 0 001.808.063l1.833-.074c2.044-.085 4.846-.201 5.484-.152.564.043 3.2.067 7.426.067 1.135 0 5.04-.151 6.238-.215a39.066 39.066 0 014.511 0c.769.099 1.079 1.181 1.354 2.136.046.155.088.307.134.451.186.607.165 1.763.148 2.862-.03.605-.02 1.211.028 1.815.134 1.015-.219 3.955-1.283 4.797-.398.317-1.265.426-2.344.426l.007-.014zm-9.277-.69c1.903 0 3.962.024 4.705.08l.828.078c1.657.166 5.104.508 5.886-.113.924-.73 1.294-3.542 1.167-4.507-.05-.62-.06-1.243-.032-1.865 0-1.032.039-2.203-.134-2.763-.046-.145-.088-.3-.134-.455-.25-.863-.528-1.84-1.096-1.913a39.628 39.628 0 00-4.451 0c-1.199.066-5.118.218-6.256.218-4.23 0-6.876-.025-7.45-.07-.575-.046-3.525.074-5.45.155l-1.836.07a15.715 15.715 0 01-1.84-.063 8.933 8.933 0 00-.676-.039 2.413 2.413 0 01-.413-.032c-.144-.02-.172-.028-.39.099-.304.18-.466.853-.434 1.812.009.464-.044.927-.155 1.378a2.171 2.171 0 00-.085.673c.07.447.106 1.487.137 2.703 0 .208 0 .43.018.655.021 1.023.046 2.179.208 2.658.078.25.14.504.187.761.06.293.148.73.25.783.226.102 2.517.13 4.092 0 .881-.082 3.736-.127 6.252-.163 1.64-.028 3.052-.049 3.5-.073.448-.025 1.988-.05 3.602-.05" fill="#2A1F2E"/><path d="M16.296 14.99s.271 3.802.236 5.603c.01 1.621-.07 3.241-.236 4.854a3.836 3.836 0 01-.578 1.596 2.86 2.86 0 001.269 0c.497-.169.62-2.957.736-4.853.17-2.82-.204-7.37-.204-7.37l-1.223.17z" fill="#6D96C4"/><path opacity=".64" d="M17.498 14.82l-.705.096c.05.662.352 4.69.194 7.274-.113 1.896-.236 4.684-.733 4.853a1.266 1.266 0 01-.23.053c.31.047.626.029.928-.053.496-.169.62-2.957.733-4.853.169-2.82-.205-7.37-.205-7.37" fill="#ABD1F2"/><path d="M16.451 27.275a4.062 4.062 0 01-.75-.077l-.237-.053.145-.194c.29-.464.478-.986.55-1.53.16-1.561.238-3.13.232-4.701v-.13c.035-1.763-.233-5.551-.236-5.59v-.145l1.533-.215v.166c0 .046.374 4.582.204 7.401l-.024.444c-.176 3.017-.335 4.388-.814 4.55-.195.061-.399.09-.603.085v-.01zm-.462-.341c.32.054.648.042.962-.036.353-.123.526-2.925.603-4.271l.028-.444a65.712 65.712 0 00-.19-7.183l-.913.127c.046.705.257 3.877.226 5.47v.134a43.196 43.196 0 01-.236 4.743 4.484 4.484 0 01-.476 1.46" fill="#2A1F2E"/><path d="M20.79 9.664c.846.194 1.057 1.237 1.41 2.425.352 1.187.764 2.974 0 3.584-.765.61-4.082.307-4.713 0-.63-.307-.267-4.606.607-5.354a2.905 2.905 0 012.682-.655" fill="#FBFBF2"/><path d="M19.961 11.645c-.93-.17-1.96 1.41-2.689 2.862.028-1.474.141-3.648.839-4.318.825-.793 1.762-.627 2.682-.525.85.092 1.058 1.107 1.41 2.294.271.906.57 2.154.352 2.968-.666-1.442-1.66-3.105-2.618-3.281" fill="#DFDFE0"/><path d="M17.434 15.814c-.186-.092-.285-.353-.313-.814-.06-1.096-.183-3.088.465-4.282a2.53 2.53 0 01.705-.8c.087-.068.177-.13.271-.187.61-.353 1.466-.23 2.245-.141.78.088 1.117.825 1.41 1.864.053.198.106.398.166.592.602 2.013.585 3.24-.053 3.75-.353.286-1.188.388-2.072.388-1.16 0-2.411-.18-2.82-.37h-.004zm3.345-5.992c-.79-.088-2.217.036-2.583.705-.367.67-.857 2.763-.758 4.466.025.409.106.535.137.55.578.278 3.846.581 4.55 0 .353-.286.638-1.11-.052-3.416-.06-.194-.113-.398-.17-.599-.267-.98-.521-1.65-1.124-1.716" fill="#2A1F2E"/><path d="M8.539 11.387c-.353.05-1.614 1.953-1.036 3.056.578 1.103 1.357.839 1.762.166.405-.674.543-3.39-.73-3.222" fill="#FBFBF2"/><path d="M8.539 11.387c-.353.05-1.614 1.953-1.036 3.056.578 1.103 1.357.839 1.762.166.405-.674.543-3.39-.73-3.222" fill="#CDCCCD"/><path d="M8.422 15.349h-.028c-.275 0-.677-.159-1.029-.832-.412-.79.039-1.836.254-2.249.246-.472.63-1 .898-1.036a.849.849 0 01.864.413c.532.81.352 2.516.021 3.045a1.216 1.216 0 01-.98.659zm.138-3.807c-.356.3-.627.688-.786 1.125-.173.401-.423 1.152-.134 1.706.225.426.49.655.765.662a.896.896 0 00.73-.508c.264-.436.43-2.033 0-2.71a.543.543 0 00-.561-.275" fill="#2A1F2E"/><path d="M10.763 9.466c-.74 0-1.632 1.883-1.886 3.172-.253 1.29.152 2.446 1.17 2.524 1.019.077 1.636.025 2.193-.395.556-.42.352-2.076 0-3.094-.353-1.019-.353-2.22-1.477-2.214" fill="#FBFBF2"/><path d="M12.24 11.592c-.353-1.019-.353-2.22-1.481-2.214-.737 0-1.628 1.882-1.882 3.172a3.878 3.878 0 00-.074.652c.374-1.18 1.089-2.467 1.702-2.467 1.121 0 1.121 1.195 1.48 2.214.19.534.31 1.09.353 1.656.455-.518.26-2.051-.081-3.017" fill="#DFDFE0"/><path d="M10.727 15.37c-.211 0-.44 0-.704-.028a1.343 1.343 0 01-.987-.532 2.76 2.76 0 01-.328-2.175c.225-1.152 1.124-3.299 2.037-3.306.983 0 1.205.832 1.41 1.643.06.222.12.454.197.673.353 1.029.6 2.78-.053 3.27a2.467 2.467 0 01-1.572.455zm.036-5.73c-.585 0-1.474 1.726-1.734 3.055A2.5 2.5 0 009.3 14.62a1.01 1.01 0 00.761.398c.97.074 1.558.038 2.087-.353.44-.331.352-1.815-.053-2.918a8.052 8.052 0 01-.205-.705c-.232-.87-.408-1.41-1.117-1.41" fill="#2A1F2E"/><path d="M13.92 9.403c-.849.092-1.057 1.49-1.427 2.682-.37 1.191-.761 2.971 0 3.58.761.61 4.085.308 4.716 0 .63-.306.285-4.873-.589-5.617-.874-.744-1.783-.747-2.7-.645" fill="#FBFBF2"/><path d="M14.752 11.638c.93-.17 1.96 1.41 2.69 2.862-.029-1.474-.124-3.916-.822-4.582-.825-.793-1.783-.747-2.7-.645-.849.095-1.057 1.494-1.41 2.682-.27.906-.57 2.153-.352 2.967.666-1.441 1.66-3.104 2.619-3.28" fill="#DFDFE0"/><path d="M14.47 16.177c-.884 0-1.716-.102-2.072-.388-.638-.51-.655-1.737-.053-3.75.057-.194.113-.394.166-.592.285-1.036.578-2.114 1.392-2.202.814-.089 1.427-.145 2.14.165.14.067.274.145.401.233.292.258.532.57.705.92.648 1.194.508 3.334.444 4.43-.025.465-.123.705-.31.814-.398.19-1.65.353-2.82.353l.007.017zm-.539-6.636c-.602.067-.856.99-1.124 1.97-.056.2-.11.405-.17.599-.704 2.305-.408 3.13-.052 3.415.705.564 3.972.264 4.55-.018.032 0 .113-.14.137-.55.096-1.702-.267-4.127-.74-4.733-.472-.606-1.811-.772-2.6-.683" fill="#2A1F2E"/><path d="M6.636 16.205l-.31-.042c.028-.215.74-5.255 3.21-7.049 1.84-1.328 4.184-.839 6.25-.409.728.17 1.466.297 2.21.381 5.522.493 9.163 2.77 10.812 6.763l-.289.12c-1.604-3.877-5.156-6.09-10.552-6.573a19.858 19.858 0 01-2.245-.384c-2.115-.437-4.272-.892-5.992.352-2.361 1.706-3.077 6.781-3.084 6.83" fill="#2A1F2E"/></svg>