<svg width="93" height="100" fill="none" xmlns="http://www.w3.org/2000/svg"><g filter="url(#filter0_d)" fill="#CB3B48"><path d="M58.165 34.835c-6.447-6.446-16.882-6.447-23.33 0-6.446 6.447-6.447 16.882 0 23.33l10.793 10.792a1.233 1.233 0 001.744 0l10.793-10.792c6.446-6.447 6.447-16.882 0-23.33zM56.42 56.421l-9.921 9.92-9.92-9.92c-5.471-5.47-5.471-14.371 0-19.842 5.47-5.47 14.37-5.47 19.84 0 5.471 5.47 5.471 14.371 0 19.842z"/><path d="M46.5 39.126a7.37 7.37 0 00-7.374 7.374 7.37 7.37 0 007.374 7.374 7.37 7.37 0 007.374-7.374 7.37 7.37 0 00-7.374-7.374zm3.47 10.845c-.047 0-1.209 1.437-3.47 1.437a4.906 4.906 0 01-4.908-4.908 4.906 4.906 0 014.908-4.908c4.407 0 6.525 5.325 3.47 8.379z"/></g><defs><filter id="filter0_d" x="0" y="0" width="93" height="99.319" filterUnits="userSpaceOnUse" color-interpolation-filters="sRGB"><feFlood flood-opacity="0" result="BackgroundImageFix"/><feColorMatrix in="SourceAlpha" values="0 0 0 0 0 0 0 0 0 0 0 0 0 0 0 0 0 0 127 0"/><feOffset/><feGaussianBlur stdDeviation="15"/><feColorMatrix values="0 0 0 0 0.741176 0 0 0 0 0.176471 0 0 0 0 0.262745 0 0 0 1 0"/><feBlend in2="BackgroundImageFix" result="effect1_dropShadow"/><feBlend in="SourceGraphic" in2="effect1_dropShadow" result="shape"/></filter></defs></svg>