<svg width="320" height="364" fill="none" xmlns="http://www.w3.org/2000/svg"><g filter="url(#filter0_d)"><path d="M159.473 280.171c-31.429 0-49.398-16.306-58.864-29.968a81.811 81.811 0 01-8.208-14.974c-9.965 0-11.666-.777-12.942-1.461-4.75-2.385-5.73-7.266-6.452-10.834-.222-1.035-.443-2.126-.647-2.773-1.257-3.697-1.46-8.818-1.627-16.86v-3.365c-.11-4.141-.314-11.092-.61-12.941a18.484 18.484 0 01.536-7.025 19.4 19.4 0 00.61-4.881c-.24-6.97 1.091-12.183 3.938-15.548-2.662-15.197-5.546-42.373 4.382-56.442 13.126-18.487 34.183-21.353 49.491-17.748a86.159 86.159 0 0118.358 7.58c4.233 2.144 11.295 5.694 13.514 5.546 7.487-1.257 33.647-3.993 54.797 13.699 18.709 15.641 24.033 30.56 25.882 44.481 4.345 3.55 6.119 9.724 7.395 14.235l.647 2.219c1.368 4.418 1.257 10.778 1.128 17.526a81.28 81.28 0 000 8.319c.85 6.397-.777 25.439-9.688 32.501a16.769 16.769 0 01-7.08 3.087 93.055 93.055 0 01-11.629 17.305c-10.944 12.774-30.597 28.101-62.062 28.396l-.869-.074zm-55.98-61.267l1.849 5.546a70.64 70.64 0 008.356 16.639c7.395 10.519 21.15 23.054 45.701 23.054h.758a64.698 64.698 0 0050.008-22.795 76.856 76.856 0 0011.093-17.545l1.96-4.27 4.658-.389a15.902 15.902 0 003.31-.517c1.848-2.256 4.233-12.553 3.568-17.619a79.892 79.892 0 01-.222-10.741c0-4.197.185-10.538-.407-12.479-.24-.776-.481-1.59-.721-2.422a45.178 45.178 0 00-1.941-5.786l-4.918-.703-.61-6.267c-1.423-14.365-5.287-25.235-20.798-38.214-15.899-13.292-36.069-11.092-41.856-10.186-7.173 1.202-15.048-2.755-23.386-6.97a75.63 75.63 0 00-14.79-6.304c-10.224-2.403-24.2-.666-32.741 11.407-5.768 8.171-4.456 31.188-.777 49.121l1.59 7.746-6.008 1.313a22.437 22.437 0 00-.185 3.993 34.855 34.855 0 01-.962 8.8c-.11.518-.258 1.202-.314 1.571.351 2.533.518 6.822.74 14.605v3.494a77.65 77.65 0 00.758 12.036 30.932 30.932 0 011.053 4.141h8.985l6.249-.259z" fill="#fff"/><path d="M84.876 164.218s-8.819-40.543 1.848-55.573c10.667-15.03 28.083-17.1 40.192-14.272 12.109 2.828 26.844 14.605 35.329 13.181 8.486-1.423 30.227-2.847 47.679 11.758 17.452 14.605 22.185 27.731 23.516 44.888 1.331 17.156-144.202 9.983-144.202 9.983l-4.362-9.965z" fill="#B63847"/><path d="M221.573 171.3c-8.042-30.597-43.797-36.642-57.311-38.824-13.515-2.182-30.985-9.244-43.816 0-12.83 9.244-16.989 39.896-16.989 39.896l52.023 13.181 66.093-14.253z" fill="#872446"/><path d="M207.299 143.772c1.848.258 8.467 10.242 5.435 16.028-3.032 5.787-7.136 4.382-9.244.869-2.107-3.512-2.847-17.785 3.827-16.897" fill="#FBFBF2"/><path d="M207.299 143.772c1.848.258 8.467 10.242 5.435 16.028-3.032 5.787-7.136 4.382-9.244.869-2.107-3.512-2.847-17.785 3.827-16.897" fill="#CDCCCD"/><path d="M202.771 161.094c-1.683-2.773-2.681-11.721.111-15.973a4.456 4.456 0 014.529-2.164c1.387.185 3.42 2.94 4.714 5.436 1.11 2.163 3.494 7.654 1.331 11.795-1.848 3.512-3.956 4.307-5.416 4.363h-.13a6.372 6.372 0 01-5.139-3.457zm1.479-15.086c-2.33 3.568-1.461 11.943 0 14.235a4.722 4.722 0 001.563 1.835c.67.467 1.45.752 2.264.827 1.442 0 2.828-1.257 3.993-3.475 1.516-2.903.222-6.859-.703-8.948a13.675 13.675 0 00-4.122-5.898 2.852 2.852 0 00-2.921 1.424" fill="#2A1F2E"/><path d="M195.691 133.696c3.882 0 8.559 9.854 9.89 16.639 1.332 6.784-.795 12.83-6.137 13.218-5.343.388-8.579.148-11.518-2.052-2.94-2.2-1.849-10.908 0-16.251 1.849-5.342 1.849-11.647 7.765-11.591" fill="#FBFBF2"/><path d="M187.887 144.844c1.849-5.343 1.849-11.647 7.747-11.61 3.882 0 8.559 9.872 9.89 16.638a18.75 18.75 0 01.37 3.439c-1.941-6.193-5.712-12.941-8.911-12.941-5.897 0-5.879 6.267-7.764 11.61a34.446 34.446 0 00-1.849 8.689c-2.367-2.718-1.35-10.76.444-15.825" fill="#DFDFE0"/><path d="M187.39 162.185c-3.42-2.57-2.182-11.758-.277-17.156a45.78 45.78 0 001.016-3.55c1.128-4.233 2.274-8.615 7.395-8.615 4.807 0 9.503 11.314 10.686 17.341.906 4.641.296 8.782-1.719 11.407a6.961 6.961 0 01-5.158 2.81 52.598 52.598 0 01-3.698.148 12.941 12.941 0 01-8.43-2.385h.185zm8.061-27.731c-3.698 0-4.641 2.81-5.861 7.395-.314 1.202-.647 2.459-1.072 3.697-2.034 5.787-2.589 13.57-.278 15.308 2.774 2.108 5.861 2.292 10.945 1.849a5.39 5.39 0 003.993-2.145 13.033 13.033 0 001.405-10.094c-1.368-6.988-6.008-16.01-9.077-16.029" fill="#2A1F2E"/><path d="M210.22 119.627c-17.452-14.605-39.193-13.182-47.679-11.758-8.485 1.423-23.22-10.316-35.255-13.182-12.036-2.865-29.58-.869-40.247 14.254-10.668 15.123-1.85 55.573-1.85 55.573l4.29 9.983s4.751.222 12.534.518c.444-2.182.925-4.252 1.387-6.249h-.592c.148-1.128 3.883-27.583 16.842-36.975 9.651-6.969 21.927-4.4 32.76-2.144 3.831.878 7.707 1.544 11.61 1.996 28.97 2.589 48.068 14.532 56.72 35.478a25.398 25.398 0 011.497 4.418c7.395-1.682 11.869-3.956 11.61-7.006-1.423-17.101-6.064-30.283-23.516-44.888" fill="#B63847"/><path opacity=".38" d="M87.39 165.013s-10.907-40.561 2.22-55.573c9.243-10.575 22.535-14.79 34.811-15.289-11.962-2.182-28.138.351-38.232 14.66-10.612 15.031-1.849 55.574-1.849 55.574l4.27 9.983 3.698.166-4.917-9.521z" fill="#872446"/><path opacity=".8" d="M102.365 159.227c-4.437-.222-21.76-11.943-14.994-9.927 7.876 2.348 10.742 7.395 19.819 2.588 2.181-1.165-9.67-.241-15.973-8.837-.962-1.294 15.973 8.837 23.645 2.588 2.293-1.849-7.672-1.072-11.092-6.896-3.421-5.823-3.106-9.243-3.106-9.243s7.265 7.764 14.605 9.927c7.339 2.163 9.909 1.294 10.223.204.315-1.091-15.732-12.609-14.79-14.199.943-1.59 15.179 12.479 18.063 11.093 2.884-1.387-3.199-3.236-7.026-6.471s-9.447-12.017-8.023-13.717c1.423-1.701 8.338 12.423 12.812 14.586 4.474 2.163 7.986 3.698 10.852 1.719 2.865-1.978-.943-1.719-2.866-7.395-1.922-5.675-2.181-12.072-.647-12.072 1.535 0 1.849 9.484 4.548 12.516s4.4 5.824 6.637 4.53c2.237-1.295-2.477-14.79-.518-15.271 1.96-.481 4.049 13.81 5.953 14.18 3.883.776-.295-14.254 1.59-14.661 1.886-.406 3.531 14.236 3.531 14.236 3.513 1.294 6.36-3.125 6.6-6.563.241-3.125.204-7.765 1.257-8.967 1.849-2.126 0 17.009 1.406 17.693 2.089 1.016 5.546-3.18 6.858-7.063 1.313-3.882 1.572-6.71 2.348-6.47 1.331.425-2.643 13.107-.869 13.607a10.465 10.465 0 0011.832-3.883c3.199-3.882 5.417-10.685 6.397-10.353.98.333-7.672 16.639-5.121 17.804 2.551 1.164 6.397-.98 9.909-4.863 3.513-3.882 3.476-5.768 4.474-5.176.998.592-8.319 12.091-5.749 13.81 2.569 1.719 8.947.222 11.499-2.588 2.551-2.81 4.843-6.656 5.749-6.046.906.611-9.243 9.928-7.672 11.869 1.571 1.942 7.155-2.569 7.672-2.163.518.407-5.749 3.698-4.159 5.399 1.59 1.701 4.159 2.329 10.537 1.238 1.849-.314 5.547-1.959 5.842-1.09.296.869-9.243 2.662-9.243 4.603 0 1.941 4.215 3.697 4.141 4.308-.074.61-35.459-1.073-35.459-1.073l-44.148 10.261-37.344-3.772z" fill="#872446"/><path d="M86.928 133.954c2.033.758-.647-9.244 8.282-21.39a21.666 21.666 0 0121.113-9.244c5.953 1.073 9.872-2.144 8.097-3.919-1.774-1.775-15.769.814-21.02 3.568a31.264 31.264 0 00-14.254 13.385c-2.847 5.306-6.138 16.195-2.218 17.619m44.055-32.538c2.774-1.239 6.416 5.786 13.182 6.766 3.587.518 4.973 1.424 3.901 2.496s-6.841.277-11.351-2.496c-3.569-2.219-8.948-5.343-5.732-6.766zm34.776 10.408c-.777-1.848 9.613-2.625 16.38-1.479 6.766 1.147 11.794 4.826 10.685 5.99-1.849 1.849-7.838-3.586-13.477-3.697-3.698-.13-12.516 1.96-13.588-.721m30.985 6.599c-.665 1.738 3.291 1.073 5.436 3.698 1.017 1.239 1.59-1.849-.536-3.476-1.59-1.257-4.142-2.126-4.9-.166" fill="#CE9DAD"/><path d="M100.572 129.499a25.46 25.46 0 001.849 3.513 21.784 21.784 0 002.366 3.142 16.426 16.426 0 002.921 2.589l.814.554.869.481c.573.37 1.201.536 1.848.85a13.226 13.226 0 01-3.697-1.608 15.389 15.389 0 01-3.051-2.625 20.33 20.33 0 01-2.348-3.199 17.79 17.79 0 01-1.571-3.697zm12.627-16.213a139.985 139.985 0 001.738 4.16 51.016 51.016 0 001.96 4.048 39.886 39.886 0 002.311 3.809 27.938 27.938 0 002.884 3.42 15.17 15.17 0 01-3.402-3.032 25.393 25.393 0 01-2.496-3.827 29 29 0 01-2.958-8.578m-3.513 10.093c1.201 1.553 2.348 3.069 3.697 4.493.629.702 1.313 1.349 2.015 1.996a20.168 20.168 0 002.293 1.738 8.732 8.732 0 01-2.699-1.239 12.388 12.388 0 01-2.219-1.959 15.736 15.736 0 01-1.756-2.367 11.661 11.661 0 01-1.257-2.662m23.904-10.093c.129 1.072.259 2.145.37 3.198.111 1.054.24 2.126.406 3.18.13 1.045.315 2.081.555 3.106.23 1.038.571 2.048 1.017 3.013a7.85 7.85 0 01-1.627-2.828 14.791 14.791 0 01-.758-3.18 21.848 21.848 0 010-6.489m10.927 1.016c.555 2.052.925 4.104 1.313 6.157l.554 3.068a25.47 25.47 0 00.684 3.069 10.79 10.79 0 01-1.312-2.902 25.735 25.735 0 01-.74-3.088 31.344 31.344 0 01-.499-6.304zm7.08-1.017a38.618 38.618 0 011.849 7.192c.182 1.225.299 2.46.351 3.697a13.742 13.742 0 01-.259 3.698c0-1.22-.222-2.441-.369-3.698-.148-1.257-.352-2.422-.537-3.697-.351-2.422-.739-4.844-.961-7.395m11.075-1.054c.605 2.756.891 5.572.85 8.393a29.282 29.282 0 01-.314 4.215 15.4 15.4 0 01-1.109 4.086c.234-1.371.394-2.753.48-4.141 0-1.387.111-2.773.13-4.16.018-1.386 0-2.791 0-4.178v-4.215m8.799 6.009c.24 2.107.24 4.234 0 6.341a25.294 25.294 0 01-.592 3.124 10.354 10.354 0 01-1.202 2.958c.245-1.012.436-2.036.573-3.069.148-1.035.278-2.07.407-3.105.259-2.071.481-4.16.888-6.249m17.877 0a49.77 49.77 0 01-2.94 7.709 40.01 40.01 0 01-1.941 3.697 13.292 13.292 0 01-2.588 3.236 23.886 23.886 0 002.015-3.531l1.849-3.698c1.183-2.459 2.348-4.917 3.697-7.395m9.54 7.266a35.966 35.966 0 01-1.331 2.995c-.48.979-1.035 1.848-1.59 2.865a26.981 26.981 0 01-1.848 2.699 9.222 9.222 0 01-2.422 2.2 11.118 11.118 0 002.163-2.403c.628-.869 1.239-1.849 1.849-2.699 1.164-1.849 2.181-3.698 3.272-5.657m11.795 5.139c-.592.98-1.239 1.849-1.849 2.829-.61.979-1.368 1.848-2.089 2.699a32.658 32.658 0 01-2.293 2.514 12.793 12.793 0 01-2.662 2.126 20.822 20.822 0 002.44-2.348 56.83 56.83 0 002.2-2.551c1.479-1.738 2.848-3.513 4.308-5.269m.611 10.131a12.317 12.317 0 01-2.7 2.292 8.696 8.696 0 01-3.309 1.313 23.78 23.78 0 003.088-1.664c.979-.61 1.941-1.276 2.921-1.849m13.476 4.77c-.979.555-2.015 1.036-3.031 1.498-1.017.462-2.09.85-3.162 1.22a28.51 28.51 0 01-3.272.906 12.919 12.919 0 01-3.365.351 19.487 19.487 0 003.291-.647 44.403 44.403 0 003.217-.998c1.072-.333 2.107-.74 3.161-1.128l3.161-1.202zm-134.956-3.808a45.114 45.114 0 003.53 2.495 37.448 37.448 0 003.698 2.09 25.685 25.685 0 003.993 1.571c1.383.391 2.801.645 4.234.758-1.45.04-2.899-.115-4.308-.462a23.217 23.217 0 01-4.104-1.498 29.21 29.21 0 01-3.697-2.2 25.199 25.199 0 01-3.347-2.754z" fill="#1A1219"/><g opacity=".34" fill="#872446"><path opacity=".34" d="M98.466 116.391c.074 1.464.386 2.907.924 4.27a17.83 17.83 0 005.787 7.95 1.054 1.054 0 001.442 0 1.034 1.034 0 000-1.46 15.944 15.944 0 01-5.214-7.137 14.266 14.266 0 01-.721-2.736.964.964 0 010-.24c0-.203 0 .259 0 0a2.057 2.057 0 010-.333 1.626 1.626 0 010-.296c0-1.312-2.089-1.312-2.052 0m-3.957 3.642c.354.785.749 1.55 1.183 2.293a12.63 12.63 0 002.903 3.697 1.033 1.033 0 001.442 0 .997.997 0 000-1.442 7.18 7.18 0 01-.777-.721l-.388-.462-.166-.203-.093-.111a20.826 20.826 0 01-1.22-1.849 19.675 19.675 0 01-1.146-2.237 1.007 1.007 0 00-.625-.48 1.006 1.006 0 00-.78.11 1.092 1.092 0 00-.37 1.405m26.437-11.055a29.482 29.482 0 00.222 4.77 15.717 15.717 0 002.829 7.968 1.042 1.042 0 00.751.409 1.046 1.046 0 00.803-.296 1.055 1.055 0 00.306-.799 1.034 1.034 0 00-.4-.756 13.812 13.812 0 01-2.292-6.933 28.647 28.647 0 01-.167-4.363c0-1.313-1.996-1.313-2.052 0zm58.827 7.136a29.046 29.046 0 01-.925 3.531c-.303.988-.68 1.952-1.127 2.884a9.492 9.492 0 01-1.683 2.515c-.906.942.536 2.403 1.461 1.46a15.593 15.593 0 003.253-6.101 28.66 28.66 0 00.999-3.697 1.055 1.055 0 00-.721-1.257 1.032 1.032 0 00-1.257.721m11.093 4.899c0 .296 0-.278 0 0v.628a16.256 16.256 0 01-.407 1.849c-.166.555-.185.74-.296 1.109l-.203.592v.203s-.148.37 0 .111c-.134.321-.295.63-.481.925l-.148.221c-.092.148.167-.166 0 0l-.332.315a1.034 1.034 0 001.442 1.46 4.832 4.832 0 001.275-1.849 13.06 13.06 0 00.851-2.477c.27-1.045.467-2.107.591-3.18a1.034 1.034 0 00-1.017-1.017 1.056 1.056 0 00-1.035 1.017"/><path opacity=".34" d="M193.841 123.73a40.54 40.54 0 01-2.588 4.493c-.241.351-.481.721-.74 1.072l-.203.277-.425.518c-.277.332-.573.647-.888.943-.138.14-.286.269-.443.388.166-.129 0 0 0 0-.074.06-.154.11-.241.148a1.06 1.06 0 001.036 1.849 11.912 11.912 0 003.512-3.698 47.606 47.606 0 002.459-4.086c.148-.295.314-.591.462-.905a1.075 1.075 0 00-.37-1.405 1.037 1.037 0 00-1.405.369m12.777 1.109c-.465.986-.99 1.943-1.571 2.866-.238.402-.497.791-.777 1.164l-.222.315-.129.166c-.148.203-.314.388-.481.592-.321.379-.667.738-1.035 1.072l-.277.24-.13.111a5.145 5.145 0 01-.573.388 1.055 1.055 0 00-.37 1.405 1.035 1.035 0 001.405.37 12.654 12.654 0 003.531-3.549 26.197 26.197 0 002.053-3.384l.425-.758c.126-.237.158-.514.089-.774a1.068 1.068 0 00-.459-.631 1.036 1.036 0 00-1.405.37m13.957 14.143a8.544 8.544 0 01-.721.703l-.776.703-.481.388-.222.166-.166.13c-.781.58-1.61 1.093-2.477 1.534a6.84 6.84 0 01-1.202.462l-.684.167h-.204c.111 0 .111 0 0 0h-.369a1.031 1.031 0 00-.898 1.026 1.036 1.036 0 00.898 1.026 10.636 10.636 0 005.897-2.422 21.544 21.544 0 002.884-2.459c.906-.961-.536-2.403-1.46-1.461m5.379 11.796c-.684.222-1.368.425-2.071.591l-.943.204h-.776c-.111 0 .148 0 0 0-.707.073-1.419.073-2.126 0a1.036 1.036 0 00-1.036 1.016 1.093 1.093 0 001.036 1.036 15 15 0 004.344-.462 18.205 18.205 0 002.163-.629 1.034 1.034 0 00.703-1.257 1.008 1.008 0 00-.483-.612 1.013 1.013 0 00-.774-.091m-.036 7.117l-.666.13-.74.129c.13 0 .167 0 0 0h-.684c-.658.056-1.32.056-1.978 0h-.702l-.407-.111h-.185c-.277 0 .111 0 0 0a1.055 1.055 0 00-1.405.37 1.036 1.036 0 00.37 1.405 8.395 8.395 0 004.326.499 22.33 22.33 0 002.699-.406 1.025 1.025 0 00.735-.861 1.04 1.04 0 00-1.29-1.118M92.16 163.792c.685.167 1.332.444 1.998.629a19.92 19.92 0 004.03.647 1.032 1.032 0 001.035-1.017 1.076 1.076 0 00-1.035-1.035h-1.886a16.6 16.6 0 01-1.664-.37c-.647-.185-1.276-.444-1.849-.61a1.036 1.036 0 00-1.276.703 1.072 1.072 0 00.722 1.275"/></g><path opacity=".38" d="M233.442 164.07c-1.424-17.1-6.064-30.282-23.516-44.887a56.867 56.867 0 00-36.162-12.608 67.982 67.982 0 0132.76 14.789c17.452 14.605 22.092 27.732 23.516 44.888a3.409 3.409 0 01-1.146 2.699c3.05-1.331 4.695-2.939 4.548-4.825" fill="#872446"/><path d="M151.819 176.031c-31.429 0-60.214-1.368-62.71-1.497h-.499l-4.53-10.593c-.369-1.683-8.78-41.079 1.85-56.221 10.63-15.14 28.415-17.6 41.171-14.605a80.607 80.607 0 0116.639 6.952c7.136 3.586 13.865 6.988 18.487 6.23 6.656-1.128 29.82-3.568 48.326 11.924 17.914 14.994 22.388 28.508 23.812 45.461a4.107 4.107 0 01-1.313 3.254c-7.08 7.395-45.682 9.095-81.122 9.095h-.111zm-62.007-3.105c8.93.406 129.652 5.731 142.076-7.118a2.462 2.462 0 00.832-1.997c-1.368-16.527-5.732-29.709-23.221-44.37-17.969-15.048-40.524-12.663-46.995-11.573-5.102.851-12.072-2.662-19.448-6.378a79.242 79.242 0 00-16.214-6.803c-12.257-2.884-29.043-.74-39.397 13.921-10.075 14.254-2.089 52.874-1.663 54.852l4.03 9.466z" fill="#2A1F2E"/><path d="M96.338 218.331s9.502 53.225 63.985 52.708c54.482-.518 69.974-50.231 69.974-50.231l-56.534-13.366-77.425 10.889z" fill="#B63847"/><path opacity=".23" d="M221.941 219.31c1.239 3.809 1.146 6.877-.573 8.375a5.677 5.677 0 01-5.398.555c3.013 5.897 3.697 10.926 1.349 12.941-1.849 1.664-5.398 1.072-9.502-1.165.554 2.792.221 5.01-1.147 6.212-1.368 1.201-4.363 1.183-7.672-.278 2.145 5.066 2.718 8.856 1.202 9.873-1.516 1.017-3.975-.462-7.21-3.365.61 6.23-.518 10.889-3.365 11.943-2.403.887-5.546-.98-8.671-4.677-.332 3.29-1.183 5.398-2.495 5.657-1.849.388-4.29-2.94-6.49-8.357-.591 5.547-1.848 9.244-3.697 9.392-1.849.148-4.03-3.697-5.546-9.576-1.572 6.137-3.698 10.094-5.676 9.927-1.978-.166-3.198-3.827-3.697-9.41-2.2 5.436-4.604 8.763-6.471 8.375-1.331-.277-2.181-2.366-2.514-5.657-3.106 3.697-6.267 5.546-8.671 4.659-2.847-1.054-3.956-5.694-3.365-11.925-3.216 2.903-5.879 4.252-7.21 3.365-1.331-.887-.942-4.807 1.202-9.872-3.291 1.46-6.045 1.664-7.654.259-1.608-1.405-1.719-3.402-1.164-6.212-4.105 2.255-7.599 2.828-9.503 1.183-2.366-2.052-1.645-7.081 1.368-12.941a5.75 5.75 0 01-5.417-.555c-1.996-1.738-1.848-5.546.13-10.279l-7.525 1.054s9.503 53.225 63.985 52.708c54.483-.518 69.975-50.249 69.975-50.249l-8.578-1.96z" fill="#872446"/><path opacity=".58" d="M99.85 219.311c3.698-1.609 6.378-2.015 7.395-.869 1.017 1.146.222 3.087-1.516 5.842 4.086-3.309 7.709-4.659 10.039-3.309 2.329 1.349 3.013 5.342 2.089 10.759 5.176-8.892 10.057-14.346 12.423-13.292 2.681 1.201 1.294 10.482-2.995 22.37 6.194-6.97 12.165-10.557 15.511-8.634 2.663 1.553 3.106 6.304 1.701 12.664 2.921-1.997 5.768-2.736 8.246-1.849 2.477.887 4.474 3.531 5.546 7.284 2.607-9.077 5.712-14.938 8.134-14.55 1.849.296 2.958 4.234 3.236 10.335 2.218-7.395 5.287-11.998 8.67-11.998 2.792 0 5.361 3.106 7.395 8.337a6.01 6.01 0 011.645-.832 7.17 7.17 0 014.179 0c-1.664-7.394-1.257-12.626 1.627-14.272 2.884-1.645 7.395.555 12.811 5.399-1.127-5.14-.721-8.985 1.535-10.464 2.255-1.479 6.138-.296 10.556 2.958-3.827-5.861-6.286-10.889-6.84-14.032l-23.036-5.436-87.168 12.258-1.09 1.349" fill="#872446"/><path d="M125.288 220.272s10.501 4.53 13.976 5.547c3.476 1.016 11.259.813 15.382 1.608a79.076 79.076 0 0017.748 0c4.806-.536 16.768-1.091 21.482-3.365 4.714-2.274 9.114-10.001 9.114-10.001l-86.428-2.071s4.954 6.674 8.726 8.282z" fill="#4B2435"/><path d="M162.301 228.814a43.832 43.832 0 01-7.802-.536 63.443 63.443 0 00-6.895-.629 43.891 43.891 0 01-8.579-.98c-3.475-1.072-13.606-5.454-14.05-5.657-3.956-1.664-8.874-8.264-9.077-8.541l-.999-1.35 89.479 2.219-.665 1.183c-.185.333-4.603 8.005-9.484 10.334-3.882 1.849-12.424 2.607-18.081 3.106a119.59 119.59 0 00-3.697.333c-3.385.348-6.785.52-10.187.518h.037zm-44.055-15.973c1.627 1.996 4.806 5.546 7.395 6.674.092 0 10.5 4.529 13.884 5.546 2.694.567 5.437.87 8.19.906 2.383.081 4.76.303 7.117.665a79.033 79.033 0 0017.489 0l3.698-.351c5.546-.481 13.902-1.202 17.526-2.94 3.328-1.59 6.6-6.267 8.023-8.467l-83.322-2.033z" fill="#2A1F2E"/><path d="M115.639 236.911c-1.387-1.498 6.692-8.153 10.833-5.879 4.141 2.274-.277 21.112-1.849 20.706-1.571-.407.148-12.424-1.737-12.553-1.886-.13-2.126 4.27-3.698 3.346-1.571-.924 1.202-6.415.13-6.692-1.073-.278-1.738 3.087-3.698 1.072m18.542 12.996c-.906-1.849 2.144-6.415 8.023-4.807 5.879 1.609 3.698 8.542 3.069 10.15-.628 1.608-2.144 4.271-2.533 3.198-.388-1.072 1.738-8.689-.813-9.484-2.551-.795-2.921 5.546-4.529 4.936-1.609-.61.129-3.179-.814-3.993-.943-.813-1.46 1.849-2.403 0zm46.606-10.611c-1.534.443-.425 6.988-1.201 9.243-.777 2.256-2.718 6.027-1.572 6.545 1.147.517 2.015-6.193 4.086-5.935 2.071.259 1.035 6.878 2.514 6.822 1.479-.055.888-6.452 2.626-6.544 1.737-.093-.814 6.027.813 6.082 1.627.056 2.403-10.371.666-10.242-1.738.129-6.212 1.849-6.582.111-.37-1.738.721-6.693-1.35-6.082zm19.931-11.185c-.592-.721 1.849 11.739 4.308 12.276 2.458.536 3.697-2.589-4.308-12.276z" fill="#CE9DAD"/><path d="M159.102 235.154c.166 3.18.166 6.341.24 9.503 0 1.571 0 3.142.13 4.714.129 1.571.129 3.161.296 4.733a24.949 24.949 0 01-.943-4.678c-.185-1.59-.259-3.18-.296-4.769a56.47 56.47 0 01.573-9.503zm-6.305-.886c-.425 2.126-.961 4.196-1.442 6.267l-.721 3.124-.647 3.143a19.04 19.04 0 01.573-6.452 25.604 25.604 0 012.237-6.082zm-8.503-2.072c-.61.869-1.165 1.756-1.72 2.625-.554.869-1.072 1.849-1.553 2.7-.48.85-.924 1.848-1.331 2.791a38.138 38.138 0 00-1.128 2.94c.033-1.072.207-2.135.518-3.162a16.648 16.648 0 015.214-7.894zm-8.043 0c-.962 1.849-1.849 3.587-2.792 5.417-.425.906-.85 1.849-1.239 2.755a22.114 22.114 0 00-.961 2.884c.101-1.022.324-2.027.666-2.995.33-.966.719-1.91 1.164-2.829a28.84 28.84 0 011.461-2.681 23.613 23.613 0 011.701-2.551zm-6.063-4.104a52.946 52.946 0 00-3.974 3.587 16.877 16.877 0 00-3.199 4.27 8.634 8.634 0 011.184-2.459 14.336 14.336 0 011.719-2.089 18.644 18.644 0 012.034-1.848 16.36 16.36 0 012.236-1.516m-7.174-4.252a40.963 40.963 0 00-3.993 1.756c-.647.333-1.257.721-1.849 1.109-.591.423-1.148.893-1.663 1.405a6.96 6.96 0 011.479-1.645 10.46 10.46 0 011.848-1.22 11.58 11.58 0 012.034-.869 12.571 12.571 0 012.144-.536zm43.501 11.369c.417.903.745 1.844.98 2.81.234.963.413 1.938.536 2.921a14.792 14.792 0 01-.444 5.916c0-.998 0-1.96-.129-2.921-.129-.961-.129-1.941-.259-2.902-.185-1.849-.481-3.846-.684-5.824zm5.326.795a5.58 5.58 0 011.091 1.59c.28.59.491 1.21.628 1.849a6.871 6.871 0 01-.259 3.864c0-.666-.148-1.276-.24-1.849s-.185-1.22-.314-1.849c-.222-1.201-.555-2.366-.906-3.605zm8.134-2.699c.268.444.565.87.888 1.276.314.425.61.869.887 1.312a21.057 21.057 0 011.498 2.773c.432.965.772 1.967 1.016 2.995.239 1.03.333 2.088.278 3.143a36.69 36.69 0 00-.888-2.958c-.332-.961-.739-1.849-1.146-2.847-.407-.998-.869-1.849-1.312-2.81l-.666-1.405-.314-.721a2.59 2.59 0 01-.241-.758zm7.93-1.054a8.8 8.8 0 011.849 1.572c.593.596 1.114 1.26 1.553 1.978a8.06 8.06 0 011.35 4.788 27.897 27.897 0 00-.888-2.274 23.16 23.16 0 00-1.164-2.089c-.832-1.368-1.849-2.644-2.792-3.975m8.284-1.627a11.24 11.24 0 011.479 1.017c.462.379.895.793 1.294 1.239.398.449.757.931 1.072 1.442a6.41 6.41 0 01.666 1.664 13.537 13.537 0 00-2.052-2.829c-.777-.887-1.609-1.701-2.459-2.533zm7.634-6.026c.642.245 1.261.548 1.849.906.602.336 1.177.72 1.719 1.146.555.419 1.069.889 1.534 1.405.463.508.85 1.081 1.147 1.701a17.39 17.39 0 00-2.921-2.792c-1.073-.832-2.2-1.59-3.328-2.366z" fill="#1A1219"/><path opacity=".42" d="M154.35 244.12a28.302 28.302 0 00-1.701 5.029 20.54 20.54 0 00-.351 9.817 1.037 1.037 0 00.479.62 1.026 1.026 0 001.399-.379 1.014 1.014 0 00.1-.778c-.6-2.957-.466-6.016.388-8.911a32.75 32.75 0 01.999-3.235l.388-.961c.111-.296 0 .148 0-.167a1.055 1.055 0 00-.351-1.405 1.022 1.022 0 00-1.405.37m7.968-.869c.148 1.627.204 3.273.222 4.918a28.707 28.707 0 01-.869 8.43c-.388 1.258 1.59 1.849 1.978.555a30.795 30.795 0 00.943-8.818c0-1.701 0-3.402-.222-5.085-.111-1.312-2.163-1.331-2.052 0zm7.175.001c.148 1.646.24 3.291.314 4.936a30.722 30.722 0 01-.277 7.506c-.278 1.294 1.682 1.849 1.978.555.45-2.612.568-5.271.351-7.913 0-1.701-.166-3.401-.314-5.084a1.07 1.07 0 00-1.035-1.035 1.037 1.037 0 00-1.017 1.035zm23.293-5.01a43.555 43.555 0 011.59 3.069 24.928 24.928 0 011.091 2.681c.166.517.314 1.016.444 1.534 0 .222.11.462.147.684v.333a1.6 1.6 0 000 .259 1.035 1.035 0 001.017 1.035 1.055 1.055 0 001.036-1.035 20.768 20.768 0 00-1.96-6.323 42.198 42.198 0 00-1.682-3.272 1.063 1.063 0 00-1.443-.407 1.06 1.06 0 00-.406 1.442m15.344-6.785c.204.148-.24-.203 0 0l.462.388c.478.441.929.91 1.35 1.405.068.088.13.181.185.278.127.152.245.313.351.48.235.381.445.776.629 1.184 0 .11 0 .11 0 0a.659.659 0 010 .166c.036.084.067.171.092.259.087.24.155.488.204.739.113.422.157.859.129 1.294a1.037 1.037 0 001.035 1.017 1.014 1.014 0 001.017-1.017 10.357 10.357 0 00-4.529-8.042 1.039 1.039 0 00-1.405.37 1.076 1.076 0 00-.09.775c.069.26.233.485.459.63m-93.989-9.872a31.944 31.944 0 00-5.38 3.568 6.07 6.07 0 00-1.386 1.534 1.003 1.003 0 00.068 1.128.989.989 0 00.302.259 1.014 1.014 0 001.386-.352.61.61 0 000-.148s.148-.184 0 0c-.148.185 0 0 0 0l.148-.147c.191-.222.401-.426.629-.61l.351-.296.166-.13.814-.591a27.373 27.373 0 013.05-1.849l.647-.37a1.035 1.035 0 00.37-1.405 1.055 1.055 0 00-1.405-.37m5.286 7.081a18.663 18.663 0 00-5.343 5.546 12.335 12.335 0 00-1.405 3.143 1.039 1.039 0 00.745 1.15 1.033 1.033 0 001.233-.595 12.399 12.399 0 013.383-5.362 21.048 21.048 0 011.849-1.59s.277-.222 0 0l.167-.111.24-.184.222-.148a1.057 1.057 0 00.138-1.757 1.06 1.06 0 00-1.174-.092" fill="#872446"/><path d="M154.814 242.568c-1.221 0-.721 15.511.832 17.914 1.552 2.403.942-5.177 1.497-9.244.555-4.067 1.183-8.615-2.329-8.578m-37.494-19.874c0-.869-13.496 2.144-11.795 5.195.85 1.571 1.627-1.849 5.897-2.977 4.271-1.127 6.009-.573 5.898-2.218zm83.564 21.02c.629-.093-2.329-9.854-4.492-8.43-1.109.739 1.405 1.109 2.533 4.196 1.127 3.088.758 4.4 1.959 4.234z" fill="#CE9DAD"/><path d="M159.474 272.148c-27.99 0-43.871-14.383-52.283-26.511a76.541 76.541 0 01-11.684-26.881l-.148-.832 78.405-11.092h.148l57.404 13.57-.259.831a80.417 80.417 0 01-14.79 25.217c-9.854 11.518-27.583 25.328-56.035 25.605h-.814l.056.093zm-62.173-52.837a75.887 75.887 0 0011.277 25.438c12.017 17.305 29.395 25.883 51.765 25.753 27.731-.277 45.127-13.736 54.778-24.976a81.498 81.498 0 0014.161-23.849L173.82 208.57 97.3 219.311z" fill="#2A1F2E"/><path d="M82.62 164.517c-1.959 1.146-2.846 5.066-2.661 10.224.184 5.157-1.609 8.559-1.258 10.87.352 2.311.537 7.839.722 14.069.184 6.23.129 14.42 1.22 17.637 1.09 3.217 1.275 7.839 2.699 8.541 1.423.703 14.254.721 21.907 0 7.654-.721 45.239-.887 51.118-1.238 5.879-.352 36.513-.352 43.464.184 6.951.537 30.634 3.698 35.81-.369 5.177-4.068 7.118-19.061 6.415-24.404-.702-5.343.703-19.227-.906-24.403-1.608-5.177-3.013-12.461-7.117-12.941a206.82 206.82 0 00-23.516 0c-6.415.351-26.899 1.146-32.778 1.146-5.879 0-34.369 0-39.009-.37-4.64-.37-31.872.998-38.287 1.183-6.415.185-10.335-.536-13.182-.536-2.847 0-2.496-.776-4.64.462" fill="#D8E0D1"/><path d="M242.111 194.205c-.758 6.305-2.773 13.81-6.211 16.528-5.158 4.104-28.859.888-35.792.351-6.933-.536-37.585-.517-43.464-.166-5.879.351-43.464.536-51.136 1.239-7.672.702-20.484.721-21.908 0-1.423-.721-1.59-5.343-2.68-8.542-1.091-3.198-1.054-11.406-1.239-17.637 0-1.608 0-3.161-.13-4.621a13.64 13.64 0 00-.573 4.437c.352 2.311.537 7.838.703 14.069.166 6.23.13 14.438 1.239 17.637 1.109 3.198 1.257 7.838 2.68 8.559 1.424.721 14.254.703 21.908 0 7.654-.702 45.257-.887 51.136-1.257 5.879-.37 36.513-.351 43.464.185 6.951.536 30.634 3.697 35.792-.351 5.158-4.049 7.136-19.061 6.415-24.404a47.365 47.365 0 01-.204-6.027zm.001-13.699c0 1.848 0 3.697.111 5.028 0-1.848 0-3.475-.111-5.028z" fill="#BDCBB5"/><path d="M94.6 227.298c-6.286-1.553-7.285-11.093-8.061-32.372-.721-20.114 2.754-31.613 2.791-31.724l.795.24c0 .111-3.475 11.481-2.754 31.429.72 20.336 1.7 30.208 7.395 31.613l-.167.814z" fill="#484152"/><path d="M96.504 227.094c-7.783-1.719-7.93-11.277-8.171-25.734 0-2.57-.093-5.213-.185-8.024-.573-18.894 2.903-30.245 2.94-30.356l.776.259c0 .111-3.476 11.333-2.884 30.06 0 2.829.13 5.547.166 8.042.24 14.088.389 23.387 7.525 24.958l-.167.795zm9.965.018c-1.128-1.848-1.849-8.189-3.217-30.892-1.368-21.741 1.849-32.556 1.849-32.667l.776.24c0 .111-3.253 10.815-1.848 32.371 1.386 22.019 2.07 28.859 3.105 30.523l-.665.425z" fill="#484152"/><path d="M99.85 164.101l-.65.488 4.644 6.199.651-.487-4.644-6.2zm-3.181.055l-.677.451 7.382 11.098.677-.45-7.382-11.099zm-2.824.469l-.69.431 10.022 16.018.689-.431-10.02-16.018zm-2.439 1.877l-.69.431 12.884 20.664.691-.431-12.885-20.664zm11.755 26.668l-13.736-21.649.684-.444 13.755 21.649-.703.444zm-13.253-16.118l-.688.434 13.936 22.095.688-.434-13.936-22.095zm-.75 6.197l-.687.437 15.614 24.555.686-.436-15.613-24.556zm-.324 5.947l-.682.444 15.955 24.512.682-.444-15.955-24.512zm.294 8.346l-.662.472 16.758 23.495.662-.472-16.758-23.495zm-.004 6.015l-.664.471 12.206 17.182.663-.471-12.205-17.182zm15.034 23.204c-6.027-6.378-15.123-15.992-15.585-16.38l.425-.702s.333.166 15.751 16.527l-.591.555zm-14.02-9.689l-.674.456 6.377 9.436.674-.456-6.377-9.436z" fill="#484152"/><path d="M94.691 164.516l-4.685 3.521.489.65 4.685-3.52-.489-.651zm5.563-.955l-10.427 7.82.489.651 10.426-7.82-.488-.651zm-11.182 14.616l-.5-.647 16.75-13.015.5.647-16.75 13.015zm0 4.936l-.518-.628 15.493-12.96.536.629-15.511 12.959zm14.396-7.975l-14.923 13.348.542.607 14.924-13.348-.543-.607zm-.473 7.323l-14.437 11.754.514.631 14.437-11.754-.514-.631zm.006 5.886l-14.133 10.208.477.66 14.132-10.208-.476-.66zm-13.393 16.618l-.518-.628 13.903-11.166.499.628-13.884 11.166zm13.387-5.803l-13.901 11.504.519.627 13.901-11.504-.519-.627zm1.081 4.829L89.1 216.341l.517.628 14.977-12.35-.518-.628zm-.056 4.401l-13.331 12.914.566.585 13.331-12.915-.566-.584zm-.01 4.854l-10.922 11.68.594.556 10.923-11.68-.595-.556zm1.777 3.623l-7.167 9.838.66.48 7.166-9.838-.659-.48z" fill="#484152"/><path d="M95.414 164.496s5.694-.443 5.657-.314c-.037.129-.628 2.181-1.737 1.849-1.11-.333-1.35-.758-1.35-.758a1.236 1.236 0 01-1.146.776 3.568 3.568 0 00-1.072 0 4.33 4.33 0 002.181.518 48.848 48.848 0 002.403-.278l-.314 4.197H97.54l1.85-2.144h-1.424l.295 1.016-1.848-.129.517-.795h-1.423l1.127 2.089-2.625-.351s.278-1.849.536-3.235a9.762 9.762 0 01.85-2.459" fill="#DEDEDF"/><path d="M97.43 171.059h-.777l-3.088-.425v-.407s.278-1.848.537-3.272a10.87 10.87 0 01.887-2.551l.11-.204h.223c5.786-.443 5.842-.369 6.008-.166l.13.185v.203a5.042 5.042 0 01-.795 1.609h.129l-.37 5.065h-3.05l.055-.037zm-.722-1.368l.389.758.591-.684-.98-.074zm1.72.444h1.238l.111-1.553-1.017 1.183v.093h-.11l-.222.277zm-3.938-.296l1.479.203-1.072-1.996h4.953v-1.183l-1.849.203a5.043 5.043 0 01-2.421-.555l-.407-.24c0 .24-.13.499-.185.777a70.046 70.046 0 00-.48 2.81l-.02-.019zm2.736-.906h.48l-.147-.536-.333.536zm.85-2.921c-.077.09-.163.17-.258.241h.572a1.313 1.313 0 01-.315-.185v-.056zm-2.384-1.054a8.474 8.474 0 00-.37.943l.351-.092a3.675 3.675 0 011.22 0c.48 0 .721-.518.74-.536l.203-.444-2.144.148v-.019zm2.699.315s.203.314 1.053.517c.407.111.795-.462 1.054-1.127l-2.33.148.223.462z" fill="#484152"/><path d="M94.01 170.172a3.695 3.695 0 002.68 1.516 3.7 3.7 0 002.625-.758h.48l-.166 3.864s-.277 3.697-3.161 3.697a3.275 3.275 0 01-3.124-3.106l.665-5.213z" fill="#DEDEDF"/><path d="M96.524 178.972a3.587 3.587 0 01-3.513-3.494l.795-6.397.61.888a3.428 3.428 0 002.367 1.331 3.52 3.52 0 002.33-.647l.11-.111h1.072l-.185 4.289c-.11 1.442-.98 4.122-3.53 4.122l-.056.019zm-2.7-3.531a2.848 2.848 0 002.718 2.699c2.44 0 2.7-3.217 2.7-3.365l.166-3.364a4.534 4.534 0 01-2.718.684 3.795 3.795 0 01-2.348-.999l-.517 4.345z" fill="#484152"/><path d="M98.575 173.962h-3.697v.813h3.697v-.813z" fill="#484152"/><path d="M94.01 178.879s.314 2.089 2.18 2.052a3.802 3.802 0 002.903-1.738l.167 7.174s-.388 3.383-3.07 3.032c-2.68-.352-3.068-3.532-3.068-3.532a41.234 41.234 0 010-4.178 6.83 6.83 0 01.887-2.81z" fill="#DEDEDF"/><path d="M96.598 189.824h-.444a4.345 4.345 0 01-3.42-3.882 38.368 38.368 0 010-4.271 7.395 7.395 0 01.943-2.995l.591-.924.167 1.091s.295 1.756 1.848 1.7a3.443 3.443 0 002.552-1.534l.72-1.202.222 8.56a4.823 4.823 0 01-1.478 2.939 2.645 2.645 0 01-1.627.537l-.074-.019zm-2.589-9.872a6.245 6.245 0 00-.425 1.848 40.5 40.5 0 000 4.123c0 .093.407 2.829 2.718 3.143a1.848 1.848 0 001.405-.407 3.695 3.695 0 001.146-2.311l-.148-6.045a3.698 3.698 0 01-2.496 1.072 2.407 2.407 0 01-2.255-1.386" fill="#484152"/><path d="M94.435 184.148h3.863s-.924 1.461-1.848 1.368c-.925-.092-1.849-1.368-1.849-1.368" fill="#DEDEDF"/><path d="M96.45 185.923h-.112a3.696 3.696 0 01-2.236-1.534l-.333-.462.536-.167a30.865 30.865 0 014.012 0h.74l-.407.61c-.111.167-1.036 1.553-2.2 1.553zm-1.11-1.386c.29.288.655.487 1.054.573a1.501 1.501 0 001.054-.555H95.34" fill="#484152"/><path d="M96.375 190.064c-1.183 0-3.31 1.294-3.29 4.936.018 3.642 1.737 4.271 3.29 4.363 1.553.093 3.272-1.035 3.088-4.954-.185-3.92-1.48-4.345-3.088-4.345z" fill="#DEDEDF"/><path d="M96.522 199.752h-.185c-2.459-.13-3.697-1.701-3.697-4.77a5.895 5.895 0 011.497-4.326 3.273 3.273 0 012.2-1.017c2.034 0 3.328.776 3.513 4.733a5.877 5.877 0 01-1.257 4.548 2.923 2.923 0 01-2.09.85l.02-.018zm-.185-9.226a2.409 2.409 0 00-1.608.795 4.92 4.92 0 00-1.257 3.698c0 3.346 1.479 3.882 2.902 3.956a2.134 2.134 0 001.646-.61 5.229 5.229 0 001.016-3.919c-.184-3.957-1.516-3.957-2.699-3.957" fill="#484152"/><path d="M98.297 194.538c0 .296-.869.555-1.848.555-.98 0-1.85-.259-1.85-.555 0-.295.87-.554 1.85-.554.98 0 1.848.24 1.848.554z" fill="#DEDEDF"/><path d="M96.356 195.499c-.388 0-2.33 0-2.33-.961s1.85-.961 2.33-.961 2.348 0 2.348.961-1.941.961-2.348.961zm-1.257-.961c.41.103.833.153 1.257.148.43.006.858-.044 1.275-.148a4.985 4.985 0 00-1.275-.148 4.932 4.932 0 00-1.257.148z" fill="#484152"/><path d="M94.008 199.234a2.573 2.573 0 002.533 1.553 4.51 4.51 0 002.921-1.553v6.323s-1.497-1.849-3.106-1.849c-1.608 0-1.368.666-1.368.666l2.404 2.31h-2.219a1.992 1.992 0 001.849 1.424 4.05 4.05 0 002.773-1.072v5.176a7.537 7.537 0 00-2.884-1.035l-1.479-.13 2.884 2.589-2.015.24 4.825 1.664v2.366l-4.733 1.516a7.641 7.641 0 002.367.222 15.138 15.138 0 002.366-.573l.721 4.529a5.515 5.515 0 01-1.848 0 4.36 4.36 0 01-1.017-.665s-.814.739-1.091.758c-.277.018 3.901.536 3.901.536l.443 1.109h-.758l-.721-.166-3.697.481s-1.849-.758-2.847-6.009a78.168 78.168 0 01-.592-13.847 53.9 53.9 0 01.315-6.545" fill="#DEDEDF"/><path d="M97.096 226.059h-.111c-.203-.092-2.108-.998-3.087-6.323a54.538 54.538 0 01-.61-11.092v-2.866c-.036-2.192.07-4.384.314-6.563v-.129l1.238-3.698-.425 3.827a2.235 2.235 0 002.09 1.165 3.935 3.935 0 002.606-1.405l.74-.906v8.282l.295-.277v6.859l-.628-.407a7.139 7.139 0 00-2.7-.943h-.258l2.662 2.367-1.165.129 3.42 1.202v2.958l-3.309 1.072h.48a16.7 16.7 0 002.293-.555l.462-.166.851 5.435h-.13l.703 1.849h-1.424l-.628-.166-3.68.351zm-2.773-25.679a50.29 50.29 0 00-.204 5.38v2.921a55.333 55.333 0 00.573 10.87c.796 4.271 2.182 5.436 2.533 5.658l3.587-.481.85.185-.129-.314c-2.052-.278-3.069-.407-3.568-.518-.444-.111-.444-.203-.425-.407v-.388h.388c.3-.185.579-.402.832-.647l.259-.24.277.221c.278.238.581.442.906.61.386.062.779.062 1.164 0l-.573-3.697c-.648.194-1.309.342-1.978.444a7.513 7.513 0 01-2.533-.241l-1.368-.351 5.805-1.849v-1.848l-6.248-2.163 2.902-.333-3.143-2.81 2.718.24c.85.103 1.676.354 2.44.74v-3.698c-.71.47-1.553.697-2.403.647a2.384 2.384 0 01-2.181-1.738l-.13-.499h1.738l-1.849-1.738a.718.718 0 010-.665c.24-.37.777-.555 1.664-.573 1.02.07 1.98.51 2.7 1.238v-4.326a4.364 4.364 0 01-2.478.999 3.061 3.061 0 01-2.256-.814l.13.185zm1.534 6.766a1.576 1.576 0 001.183.61 3.566 3.566 0 002.44-.961l.223-.203-.555-.703s-1.387-1.848-2.773-1.719a2.356 2.356 0 00-.888.148l2.94 2.828h-2.57z" fill="#484152"/><path d="M108.947 195.166h-.814v-17.674l.795 1.849a11.985 11.985 0 002.348 3.772c.906.628 3.698.443 5.99 0 1.701-.389 2.551-3.162 2.551-3.199l.573-1.941.222 2.015c.13 1.136.39 2.252.777 3.328.394.708.872 1.366 1.423 1.96l.13.11v6.656h-.444c-3.161-.185-9.595-.37-11.222.24a4.175 4.175 0 00-2.329 2.94v-.056zm0-13.828v11.813a4.392 4.392 0 012.033-1.645c1.849-.721 9.244-.407 11.093-.314v-5.547a9.245 9.245 0 01-1.461-2.033 9.496 9.496 0 01-.628-2.145 4.31 4.31 0 01-1.033 1.457 4.32 4.32 0 01-1.537.91c-1.849.406-5.287.868-6.655 0a7.919 7.919 0 01-1.849-2.515" fill="#6F8D90"/><path d="M115.731 213.894a6.966 6.966 0 01-2.755-.499 6.126 6.126 0 01-3.475-3.697c-1.35-3.698-2.071-10.39.517-14.236a6.47 6.47 0 015.547-2.884 7.509 7.509 0 017.395 6.767c.702 5.546 1.146 11.758-2.552 13.495a11.17 11.17 0 01-4.658 1.091l-.019-.037zm-.166-20.502a5.684 5.684 0 00-2.781.613 5.679 5.679 0 00-2.137 1.883c-2.385 3.568-1.664 10.149-.425 13.477a5.396 5.396 0 003.069 3.328 8.714 8.714 0 006.748-.574c3.475-1.626 2.569-8.8 2.089-12.645a6.642 6.642 0 00-6.582-6.064m1.277 31.873a7.81 7.81 0 01-6.138-2.034 5.548 5.548 0 01-.888-5.546c.648-1.331 2.348-2.939 6.859-2.995 1.849 0 6.637.518 7.395 3.328a6.65 6.65 0 010 5.028 3.916 3.916 0 01-2.606 1.664 21.997 21.997 0 01-4.604.499l-.018.056zm-.148-9.761c-3.217 0-5.343.924-6.12 2.532a4.717 4.717 0 00.777 4.622c1.608 2.015 6.267 2.052 9.928 1.239a2.999 2.999 0 002.089-1.276 5.992 5.992 0 000-4.381c-.518-1.849-4.178-2.773-6.6-2.736" fill="#6F8D90"/><path d="M115.843 205.52c-2.144 0-5.786-.37-5.786-1.738 0-1.368 3.697-1.849 5.786-1.849 2.09 0 5.805.37 5.805 1.849s-3.697 1.738-5.805 1.738zm0-2.681c-3.013 0-4.843.629-4.973.961a8.94 8.94 0 004.973.906 8.78 8.78 0 004.974-.924 8.545 8.545 0 00-4.974-.943zm1.129 18.82c-1.369 0-5.805 0-5.805-1.35 0-1.349 4.436-1.349 5.805-1.349 1.368 0 5.805.092 5.805 1.349s-4.456 1.35-5.805 1.35zm-4.789-1.35c3.152.715 6.425.715 9.577 0a21.648 21.648 0 00-9.577 0zm21.869-50.304c-.371 0-.737-.082-1.072-.24a7.266 7.266 0 01-1.997-2.07h-1.553v1.848h-.832v-2.717h2.755l.111.184a6.75 6.75 0 001.848 1.979 1.859 1.859 0 001.572 0 .678.678 0 00.251-.212.682.682 0 00.119-.306.462.462 0 00-.167-.388 1.407 1.407 0 00-.813-.352.358.358 0 00.166 0l-.573-.591c.296-.296.924 0 1.165 0a1.403 1.403 0 01.873 2.047 1.405 1.405 0 01-.614.578c-.392.213-.83.328-1.276.333m1.758 4.769l-.241-.111.185-.37-.37-.166a2.418 2.418 0 00-.314-1.553 2.022 2.022 0 00-1.534-.776h-1.091c.207.387.321.818.333 1.257a1.85 1.85 0 01-1.849 1.701c-.684 0-2.496 0-2.551-1.849 0-.795.48-1.849 3.05-1.849a15.756 15.756 0 012.237 0 2.684 2.684 0 012.496 1.849c.166.554.24 1.534 0 1.849l-.351.018zm-4.086-3.032h-.314c-1.054 0-2.311.277-2.293 1.072.019.795.647 1.054 1.719 1.054a.964.964 0 00.733-.213.987.987 0 00.358-.674 1.957 1.957 0 00-.388-1.109l.185-.13zm.535 9.133c-2.256 0-3.956-.869-3.956-2.033 0-1.165 1.7-2.034 3.956-2.034 2.255 0 3.975.869 3.975 2.034 0 1.164-1.701 2.033-3.975 2.033zm0-3.253c-1.849 0-3.143.702-3.143 1.22 0 .517 1.202 1.22 3.143 1.22 1.941 0 3.143-.721 3.143-1.22s-1.183-1.22-3.143-1.22zm.332 17.784c-2.218 0-3.956-1.053-3.956-2.403s1.738-2.422 3.956-2.422c2.219 0 3.975 1.054 3.975 2.422s-1.738 2.403-3.975 2.403zm0-4.011c-1.848 0-3.142.85-3.142 1.608 0 .758 1.294 1.59 3.142 1.59 1.849 0 3.143-.85 3.143-1.59 0-.739-1.294-1.608-3.143-1.608zm1.609-3.124a2.49 2.49 0 01-1.312-.37 4.656 4.656 0 01-1.11-1.553c-.369-.684-.887-1.627-1.331-1.719l-1.331-.277v3.512h-.813v-4.492l.48.092 1.849.351c.813.167 1.368 1.184 1.849 2.145.213.463.5.887.85 1.257a1.572 1.572 0 001.442 0 1.278 1.278 0 00.629-1.146 1.853 1.853 0 00-1.535-1.849l.148-.813a2.606 2.606 0 012.2 2.736 1.996 1.996 0 01-1.072 1.849 2.15 2.15 0 01-.961.221m-5.362 16.583l-.221-.795 5.934-1.645-3.697-.906c-2.016-.499-2.404-.555-2.459-.573v-.333l-.148-.462c.148 0 .166 0 2.755.573 2.292.536 5.268 1.276 5.268 1.276l1.516.388-8.948 2.477z" fill="#6F8D90"/><path d="M131.04 201.268h-.813v2.311h.813v-2.311z" fill="#6F8D90"/><path d="M181.659 181.597c0 5.232-9.022 9.484-20.17 9.484-11.148 0-20.17-4.252-20.17-9.484s9.04-9.577 20.17-9.577c11.129 0 20.17 4.252 20.17 9.503" fill="#DEDEDF"/><path d="M161.488 191.488c-11.352 0-20.577-4.437-20.577-9.891s9.244-9.909 20.577-9.909c11.332 0 20.595 4.436 20.595 9.909 0 5.472-9.244 9.891-20.595 9.891zm0-18.987c-10.889 0-19.763 4.086-19.763 9.096s8.874 9.077 19.763 9.077c10.889 0 19.763-4.067 19.763-9.077s-8.856-9.096-19.763-9.096z" fill="#484152"/><path d="M181.659 180.858c0 2.2-9.022 3.993-20.17 3.993-11.148 0-20.17-1.849-20.17-3.993 0-2.145 9.04-3.994 20.17-3.994 11.129 0 20.17 1.849 20.17 3.994z" fill="#DEDEDF"/><path d="M161.488 185.258c-9.965 0-20.577-1.553-20.577-4.419 0-2.865 10.612-4.4 20.577-4.4 9.964 0 20.595 1.553 20.595 4.4 0 2.847-10.612 4.419-20.595 4.419zm0-7.987c-12.239 0-19.763 2.089-19.763 3.568s7.524 3.587 19.763 3.587c12.238 0 19.763-2.089 19.763-3.587 0-1.497-7.506-3.568-19.763-3.568z" fill="#484152"/><path d="M161.118 179.619a17.548 17.548 0 01-17.785-17.249h.832a16.953 16.953 0 0033.906 0h.832a17.544 17.544 0 01-17.785 17.249z" fill="#6F8D90"/><path d="M161.118 174.738c-7.691 0-13.958-5.361-13.958-11.961h.813c0 6.156 5.898 11.093 13.145 11.093s13.144-4.992 13.144-11.093h.814c0 6.6-6.268 11.961-13.958 11.961z" fill="#6F8D90"/><path d="M161.118 173.277c-6.6 0-11.961-4.603-11.961-10.26h.813c0 5.195 5.011 9.428 11.093 9.428s11.092-4.233 11.092-9.428h.832c0 5.657-5.361 10.26-11.961 10.26" fill="#6F8D90"/><path d="M222.773 228.74l-.277-.777s2.033-.813 4.289-6.544c2.255-5.731 4.178-22.314 3.272-39.803-.85-16.769-6.249-18.765-6.304-18.784l.259-.776c.24 0 5.971 2.052 6.877 19.523.924 18.265-1.017 34.312-3.328 40.154-2.458 6.175-4.695 6.97-4.788 7.007z" fill="#484152"/><path d="M221.573 227.944l-.647-.517a35.864 35.864 0 006.137-13.237 154.922 154.922 0 001.59-35.237c-1.035-11.481-6.859-16.14-6.914-16.177l.499-.647c.24.185 6.156 4.899 7.229 16.75a155.666 155.666 0 01-1.609 35.459 36.962 36.962 0 01-6.285 13.606zm-11.703-.776l-.665-.481a38.949 38.949 0 005.269-14.956 117.32 117.32 0 001.515-30.855c-.85-13.94-6.1-17.471-6.156-17.508l.444-.684c.222.148 5.657 3.79 6.526 18.136a117.112 117.112 0 01-1.516 31.041 38.96 38.96 0 01-5.417 15.307zm9.213-64.946l-3.936 6.413.693.425 3.936-6.413-.693-.425z" fill="#484152"/><path d="M216.229 174.109l-.721-.388 6.249-11.481.721.407-6.249 11.462zm.184 5.565l-.74-.37 8.486-16.546.74.37-8.486 16.546zm8.953-12.919l-8.98 17.563.725.371 8.979-17.564-.724-.37zm1.531 3.519l-10.505 20.189.721.375 10.505-20.188-.721-.376zm.582 5.356l-11.228 21.792.723.373 11.228-21.792-.723-.373zm1.312 5.12l-13.287 25.535.722.375 13.287-25.535-.722-.375zm-.392 7.41l-13.483 25.348.718.382 13.483-25.348-.718-.382zm-16.643 36.734l-.703-.425 17.767-28.859.702.426-17.766 28.858zm16.903-22.797l-15.488 25.634.696.421 15.488-25.634-.696-.421zm-10.784 26.976l-.703-.407c10.852-19.135 11.093-19.264 11.093-19.338l.425.703-.222-.352.314.278c-.388.499-6.766 11.702-10.981 19.116" fill="#484152"/><path d="M219.253 162.62l-.546.603 8.279 7.493.546-.603-8.279-7.493zm-5.651-.893l-.56.59 15.175 14.385.56-.59-15.175-14.385zm-1.919 2.106l-.581.57 17.766 18.129.581-.569-17.766-18.13zm4.474 9.782l-.6.549 13.563 14.828.601-.549-13.564-14.828zm.404 7.615l-.573.577 13.15 13.073.574-.577-13.151-13.073zm12.184 17.912l-11.887-10.483.555-.61 11.887 10.483-.555.61zm-.999 5.25l-11.055-10.852.573-.573 11.055 10.852-.573.573zm-11.207-5.898l-.578.573 11.766 11.894.579-.572-11.767-11.895zm-.211 5.651l-.578.573 11.226 11.312.577-.573-11.225-11.312zm-.657 3.913l-.62.527 10.328 12.16.62-.526-10.328-12.161zm.013 4.943l-.646.494 8.236 10.761.646-.494-8.236-10.761zm5.167 14.907l-7.173-11.758.703-.426 7.173 11.74-.703.444zm-8.061-7.683l-.699.417 5.62 9.434.699-.416-5.62-9.435z" fill="#484152"/><path d="M221.572 163.609a6.946 6.946 0 001.849 1.848c.887.444 2.052.888 2.052.888l1.959 6.064-5.268-.333s-2.311-.111-2.848 1.128a12.54 12.54 0 00-.702 3.124h-.906a48.122 48.122 0 00-1.331-6.378 61.363 61.363 0 00-2.403-6.36h1.072s.98 1.849 1.849 1.96a9.492 9.492 0 003.882.092c.758-.443.85-2.052.85-2.052" fill="#DEDEDF"/><path d="M218.634 176.753h-1.257v-.351a50.752 50.752 0 00-1.35-6.23 61.167 61.167 0 00-2.385-6.323l-.259-.573h1.941l.13.222c.425.795 1.109 1.7 1.46 1.737h.555a7.885 7.885 0 003.069 0c.425-.258.61-1.275.647-1.719v-1.202l.684.98a6.094 6.094 0 001.719 1.738c.851.444 1.997.869 2.015.887h.185l2.2 6.841-5.86-.388c-.555 0-2.108 0-2.441.887-.36.963-.59 1.971-.684 2.995v.37l-.369.129zm-.536-.813h.166a11.93 11.93 0 01.702-2.884c.629-1.479 3.143-1.368 3.254-1.368l4.659.295-1.719-5.306c-.37-.147-1.202-.48-1.849-.831a5.155 5.155 0 01-1.442-1.258 2.22 2.22 0 01-.887 1.424 6.91 6.91 0 01-3.698 0h-.518c-.831 0-1.645-1.387-1.978-1.96h-.203a74.293 74.293 0 012.181 5.842c.561 1.998.994 4.03 1.295 6.083" fill="#484152"/><path d="M222.811 174.109c-1.719.13-5.435 1.257-5.25 11.684.185 10.427-1.849 20.022 5.25 20.484 7.099.463 7.21-12.386 7.118-17.378-.093-4.991-1.146-15.233-7.118-14.79z" fill="#DEDEDF"/><path d="M223.161 206.684h-.37c-6.045-.388-5.879-7.117-5.694-14.9v-5.99c-.166-9.632 2.958-11.888 5.546-12.091a4.826 4.826 0 013.698 1.275c3.346 3.051 3.845 10.742 3.9 13.921.148 8.412-1.072 13.903-3.697 16.362a5.008 5.008 0 01-3.55 1.423h.167zm-.481-32.168c-4.197.315-4.973 6.304-4.881 11.259v6.027c-.203 8.504 0 13.736 4.937 14.05a4.1 4.1 0 003.29-1.183c1.646-1.571 3.568-5.546 3.384-15.77 0-2.384-.426-10.389-3.698-13.31a3.99 3.99 0 00-3.05-1.073" fill="#484152"/><path d="M228.597 190.064c0 1.22-2.255 2.219-5.065 2.219-2.81 0-5.066-.999-5.066-2.219 0-1.22 2.274-2.237 5.066-2.237 2.791 0 5.065.998 5.065 2.237z" fill="#DEDEDF"/><path d="M223.531 192.689c-3.125 0-5.547-1.128-5.547-2.625 0-1.498 2.348-2.644 5.547-2.644 3.198 0 5.546 1.128 5.546 2.644 0 1.516-2.348 2.625-5.546 2.625zm0-4.455c-2.737 0-4.659.961-4.659 1.848 0 .888 1.849 1.849 4.659 1.849 2.81 0 4.658-.961 4.658-1.849 0-.887-1.848-1.848-4.658-1.848z" fill="#484152"/><path d="M222.902 207.424c-2.236 0-4.714 1.959-7.043 9.539-2.33 7.58 0 8.893 0 8.893h7.043s2.848-.795 4.012-8.283c1.165-7.487-.369-10.242-4.012-10.149z" fill="#DEDEDF"/><path d="M222.96 226.262h-7.211c-.258-.166-2.532-1.737-.184-9.391 2.033-6.619 4.381-9.743 7.395-9.817a4.242 4.242 0 013.475 1.294c1.387 1.59 1.701 4.548.962 9.336-1.184 7.654-4.179 8.578-4.308 8.615l-.129-.037zm-6.933-.813h6.822c.332-.129 2.662-1.368 3.697-7.931.684-4.456.444-7.284-.776-8.652a3.434 3.434 0 00-2.829-1.036c-2.588 0-4.77 3.088-6.637 9.244s-.592 8.042-.259 8.375" fill="#484152"/><path d="M225.399 219.496c0 .906-2.144 1.646-4.769 1.646-2.626 0-4.77-.74-4.77-1.646 0-.905 2.144-1.645 4.77-1.645 2.625 0 4.769.74 4.769 1.645z" fill="#DEDEDF"/><path d="M220.628 221.548c-2.57 0-5.176-.703-5.176-2.052 0-2.699 10.353-2.699 10.353 0 0 1.349-2.607 2.052-5.177 2.052zm0-3.291c-2.81 0-4.344.814-4.344 1.239 0 .425 1.534 1.238 4.344 1.238 2.81 0 4.363-.813 4.363-1.238 0-.425-1.553-1.239-4.363-1.239z" fill="#484152"/><path d="M209.721 163.036h-5.103a16.321 16.321 0 013.698 8.411c1.072 5.879 1.479 9.891 1.479 9.891h4.381a46.227 46.227 0 00-.979-11.222 25.643 25.643 0 00-3.476-7.08z" fill="#DEDEDF"/><path d="M214.584 181.744h-5.232v-.369s-.407-4.068-1.461-9.854a16.637 16.637 0 00-3.512-8.209l-.703-.684h6.286l.129.167a25.86 25.86 0 013.531 7.21 47.096 47.096 0 011.017 11.351l-.055.388zm-4.493-.832h3.698a44.65 44.65 0 00-.98-10.685 25.68 25.68 0 00-3.309-6.785h-3.993a19 19 0 013.142 7.931c.888 4.825 1.313 8.43 1.442 9.539z" fill="#484152"/><path d="M209.149 163.904s-1.96-.166-2.034.444c-.074.61 2.736.481 2.736.481" fill="#DEDEDF"/><path d="M209.167 165.255a3.696 3.696 0 01-2.292-.462.578.578 0 01-.167-.481c0-.869 1.59-.888 2.478-.814v.814a5.556 5.556 0 00-1.276 0c.658.061 1.32.061 1.978 0v.832h-.702m.258 1.81h-.961v.814h.961v-.814zm1.72 0h-1.11v.814h1.11v-.814z" fill="#484152"/><path d="M212.329 171.281c0 .351-.591.647-1.331.647-.739 0-1.331-.296-1.331-.647 0-.351.592-.665 1.331-.665.74 0 1.331.295 1.331.665z" fill="#DEDEDF"/><path d="M210.961 172.335c-1.017 0-1.756-.444-1.756-1.072 0-.629.739-1.072 1.756-1.072s1.738.462 1.738 1.072c0 .61-.74 1.072-1.738 1.072zm0-1.312a1.26 1.26 0 00-.943.277c.291.151.615.227.943.222.323.025.645-.067.906-.259a1.497 1.497 0 00-.906-.24zm.037 4.529h-.814v1.83h.814v-1.83zm1.905 0h-.813v1.83h.813v-1.83zm-.574 2.532h-.813v2.606h.813v-2.606z" fill="#484152"/><path d="M196.41 164.811a5.878 5.878 0 005.546 1.996 3.392 3.392 0 002.265-1.446 3.394 3.394 0 00.508-2.639" fill="#DEDEDF"/><path d="M200.757 167.362a6.103 6.103 0 01-4.456-2.108l-.129-.111.24-.277v-.462c.24 0 .37.092.555.277a5.193 5.193 0 005.047 1.72 2.982 2.982 0 002.404-2.422c.07-.399.057-.808-.038-1.202l.795-.166a3.703 3.703 0 01-.525 2.955 3.688 3.688 0 01-2.544 1.593 5.793 5.793 0 01-1.349.166" fill="#484152"/><path d="M203.197 163.928l-4.651.274.048.812 4.651-.273-.048-.813z" fill="#484152"/><path d="M200.625 167.88h-3.494s-.13 6.544 4.067 6.6c4.197.055 3.568-3.698 3.698-4.012.129-.314 1.479.185.998 1.46a7.372 7.372 0 01-1.498 2.348h3.365s.518-4.825-2.034-5.786c-2.551-.962-4.51-.703-4.788.573-.425 1.849-1.294 2.884-1.59 1.571a2.456 2.456 0 011.331-2.736" fill="#DEDEDF"/><path d="M201.236 174.904a3.592 3.592 0 01-2.662-1.127 9.596 9.596 0 01-1.849-5.898v-.407h5.75-.111a7.595 7.595 0 013.457.574c2.81 1.072 2.329 6.008 2.311 6.211v.37h-4.733l.425-.425a4.507 4.507 0 01-2.477.628l-.111.074zm-3.697-6.581a8.316 8.316 0 001.59 4.899 2.822 2.822 0 002.089.887 3.152 3.152 0 002.458-.776 3.473 3.473 0 00.758-2.533 2.285 2.285 0 010-.351.536.536 0 01.407-.444 1.205 1.205 0 011.091.407 1.568 1.568 0 01.296 1.701 7.76 7.76 0 01-.999 1.849h2.108c0-1.091 0-4.29-1.849-4.992a5.081 5.081 0 00-3.697-.314.832.832 0 00-.462.591c-.13.573-.629 2.496-1.572 2.496-.277 0-.647-.166-.813-.924a2.712 2.712 0 01.443-2.496h-1.848zm7.709 2.57a5.182 5.182 0 01-.296 1.959c.202-.323.375-.663.518-1.017a.83.83 0 000-.758l-.167-.184h-.055zm-4.456-2.57a2.018 2.018 0 00-1.09 2.274.637.637 0 000 .222 4.366 4.366 0 00.702-1.849c.072-.273.204-.526.388-.74v.093z" fill="#484152"/><path d="M203.084 174.923h5.01l.37 9.243h-4.344l2.773-3.106s-6.009-.702-5.99.999c.018 1.701 7.857 3.975 7.857 3.975v3.346s-7.691 3.272-7.58 4.843c.111 1.572 6.045 1.128 6.045 1.128s-3.586-2.311-3.512-2.403c.074-.093 5.213-.296 5.213-.296l-.832 19.504h-3.919l1.313-2.144h-3.698l.961 2.107h-4.011c.166-.185 1.109-1.848 1.053-16.638 0-16.195-1.072-20.336-1.072-20.336h1.627s-.628 1.682 1.849 1.848c1.296.141 2.607.035 3.864-.314l-2.977-1.756z" fill="#DEDEDF"/><path d="M208.409 212.693h-9.946l-.222-.5.185-.203c0-.148.998-1.849.924-16.38 0-15.899-1.035-20.336-1.054-20.336l-.111-.518h2.736l-.203.555a.904.904 0 000 .739c.203.333.684.518 1.405.574.915.109 1.84.109 2.755 0l-3.439-2.034h6.896l.407 10.131h-3.199c.999.388 2.108.758 3.18 1.072h.296v3.92l-.24.111c-4.031 1.719-7.395 3.697-7.395 4.437 0 0 0 .092.111.184a8.672 8.672 0 004.215.629c-2.533-1.664-2.57-1.849-2.607-1.96v-.166l.111-.148c.148-.222.185-.277 5.546-.499h.444l-.795 20.392zm-6.027-2.163c.203.462.518 1.109.721 1.571l.277.592 1.313-2.145h-2.311v-.018zm2.459 1.368h2.791l.684-16.066h-1.146c-.48 0-4.844.314-6.082-.758a1.123 1.123 0 01-.388-.758c-.111-1.664 5.546-4.234 7.579-5.139v-2.755a38.083 38.083 0 01-4.843-1.849h-.352v-.111c-1.534-.721-2.773-1.571-2.791-2.403a1.114 1.114 0 01.37-.832c1.22-1.109 5.546-.629 6.063-.573h.795l-2.588 3.18h3.014l-.352-8.505h-3.105l2.495 1.479-.813.296a10.524 10.524 0 01-4.049.333 2.53 2.53 0 01-2.052-.961 1.625 1.625 0 01-.24-.906h-.647a141.97 141.97 0 01.979 19.985c0 8.522-.277 14.272-.85 16.269h2.773c-.462-.98-.702-1.498-.721-1.572v-.203l.13-.185c.147-.203.203-.259 3.974-.185h.721l-1.349 2.219zm-.13-18.488a74.428 74.428 0 002.663 1.756l.942.611.111-2.533-3.697.166h-.019zm-.406-11.924a5.549 5.549 0 00-2.94.517c-.092.093-.111.148-.092.222 0 .426 1.035 1.091 2.532 1.757l2.182-2.422h-1.682" fill="#484152"/><path d="M202.511 187.846a2.39 2.39 0 01-1.572-.536 1.437 1.437 0 01-.406-1.091 1.512 1.512 0 01.462-1.109 2.475 2.475 0 011.59-.518h.499v3.235h-.481l-.092.019zm-.259-2.422c-.221.046-.43.141-.61.277a.71.71 0 00-.203.518.663.663 0 00.166.481c.183.155.409.251.647.277v-1.553z" fill="#484152"/><path d="M203.769 185.331c0 .166.147 1.849.147 1.849l1.424-.925-1.571-.924z" fill="#DEDEDF"/><path d="M203.546 187.845v-.665c0-.277-.129-1.664-.129-1.849v-.702l2.773 1.571-2.644 1.645zm.684-1.848v.351l.278-.185-.278-.166z" fill="#484152"/><path d="M207.28 200.103c-.129 0-6.415-.998-6.341 1.849.074 2.847 6.341 1.682 6.341 1.682a29.289 29.289 0 01-3.18-.998l3.18-2.477" fill="#DEDEDF"/><path d="M204.655 204.207a5.784 5.784 0 01-3.42-.758 1.846 1.846 0 01-.703-1.479 1.847 1.847 0 01.592-1.442c1.386-1.294 4.807-.925 5.934-.795h.185l1.849-.462-1.535 1.183-2.625 2.015 2.478.703 1.737.48-1.848.333c-.893.145-1.795.219-2.7.222h.056zm.074-3.846a4.68 4.68 0 00-3.106.703 1.05 1.05 0 00-.333.832 1.04 1.04 0 00.425.85 5.547 5.547 0 003.328.629c-1.331-.388-1.349-.499-1.405-.721v-.24l.203-.167 2.348-1.849h-1.423" fill="#484152"/><path d="M204.342 207.757l1.405 1.627 1.405-1.627h-2.81z" fill="#DEDEDF"/><path d="M205.747 210.012l-.314-.37-1.387-1.608-.665-.684h4.659l-2.293 2.662zm-.499-1.849l.499.592.518-.592h-1.017z" fill="#484152"/><path d="M200.329 207.757l1.276 1.424 1.294-1.424h-2.57z" fill="#DEDEDF"/><path d="M201.606 209.808l-2.219-2.477h4.4l-2.181 2.477zm-.37-1.645l.37.407.369-.407h-.739z" fill="#484152"/><path d="M187.296 166.77a74.054 74.054 0 011.849 12.22c.148 5.214.536 14.587.536 14.587s1.849-5.103 4.954-4.567c3.106.537 4.012 4.271 4.012 4.271s0-12.516-.536-16.805a110.777 110.777 0 00-2.551-11.629l-8.264 1.923z" fill="#DEDEDF"/><path d="M198.981 196.831l-.813-3.457s-.851-3.476-3.698-3.957c-2.847-.48-4.474 4.252-4.492 4.289l-.703 1.997-.092-2.107s-.389-9.429-.536-14.587a74.029 74.029 0 00-1.849-12.146v-.388l8.985-2.108.111.37a113.919 113.919 0 012.551 11.684c.518 4.27.536 16.361.536 16.86v3.55zm-11.203-29.746a73.568 73.568 0 011.719 11.906c0 3.808.333 9.909.462 12.941.851-1.553 2.422-3.698 4.678-3.254a5.161 5.161 0 013.512 2.625c0-3.697-.129-11.536-.518-14.697a109.444 109.444 0 00-2.421-11.185l-7.432 1.664z" fill="#484152"/><path d="M194.618 167.158a12.767 12.767 0 01-4.733 0 13.879 13.879 0 014.733 0z" fill="#DEDEDF"/><path d="M192.25 167.787c-2.773 0-2.773-.278-2.773-.629s0-.629 2.773-.629 2.792.278 2.792.629 0 .629-2.792.629z" fill="#484152"/><path d="M191.678 171.281l.573 1.701h-2.366a4.476 4.476 0 003.697 1.849 3.18 3.18 0 002.922-1.738h-2.848l1.387-1.738-3.365-.074z" fill="#DEDEDF"/><path d="M193.287 175.181a4.887 4.887 0 01-3.697-1.959l-.463-.647h2.589l-.555-1.72h4.696l-1.405 1.757h2.588l-.222.554a3.507 3.507 0 01-3.272 1.997h-.222l-.037.018zm-2.403-1.867a3.698 3.698 0 002.625.962 3.003 3.003 0 002.163-.925h-2.94l-1.848-.037zm1.405-1.701l.536 1.627 1.313-1.627h-1.849z" fill="#484152"/><path d="M189.22 169.525s1.423 1.608 1.442 1.534c.018-.074 1.627-1.571 1.59-1.534-.037.037-3.032 0-3.032 0z" fill="#DEDEDF"/><path d="M190.624 171.484c-.204 0-.426-.222-1.72-1.682l-.61-.703h3.883l.924-.092-.555.758-.111.092-1.442 1.387v.166h-.351l-.018.074zm-.463-1.608l.518.554.536-.536h-1.072" fill="#484152"/><path d="M195.153 171.133c-.166 0-.351-.148-.905-.591l-.814-.61h-1.072l.906-.684a.422.422 0 01.369 0l2.422.166h.259l.111.24c.111.278 0 .37-.462.888a4.302 4.302 0 00-.407.425v.129l-.222.111h-.185v-.074zm-.258-1.035l.184.129v-.111h-.277m.684 10.279c-1.405 0-2.163-2.2-2.237-2.458l-.13-.389.389-.129c.092 0 .148 0 3.845.092h.555l-.185.518c0 .24-.832 2.348-2.237 2.348v.018zm-1.239-2.181c.296.629.758 1.35 1.239 1.35.48 0 .961-.703 1.238-1.276h-2.477" fill="#484152"/><path d="M193.638 177.807s-3.531.352-4.622 1.849l4.622-1.849z" fill="#DEDEDF"/><path d="M189.347 179.951l-.665-.462c1.238-1.848 4.917-2.089 4.954-2.089v.832c-.536 0-3.42.462-4.307 1.719" fill="#484152"/><path d="M198.332 182.651c0 .184-.869 2.588-2.44 2.347-1.571-.24-2.422-3.845-2.477-3.697a15.641 15.641 0 01-3.125 3.106c-1.109.554 0 1.479 5.547.647" fill="#DEDEDF"/><path d="M192.14 185.757c-1.331 0-2.422-.204-2.607-.814 0-.166-.111-.61.573-.961a14.193 14.193 0 002.958-2.976l.148-.185h.259c.259 0 .314.203.444.591.665 1.997 1.349 3.069 2.033 3.162 1.146.185 1.849-1.738 1.978-2.015l.814.129c0 .37-.999 2.939-2.847 2.718-1.225.188-2.46.299-3.698.332l-.055.019zm-1.646-1.035c1.404.278 2.849.278 4.252 0a7.83 7.83 0 01-1.423-2.7 12.236 12.236 0 01-2.792 2.663" fill="#484152"/><path d="M189.607 193.245s-.573 4.252 1.165 6.026c1.738 1.775 2.274 1.757 2.274 1.757s1.128-1.757 1.072-1.738c-.055.018-2.865-.444-2.699-2.015.166-1.572 6.97-2.441 6.581.129a2.523 2.523 0 01-1.091 1.71 2.525 2.525 0 01-1.996.361l-.185 1.479a3.697 3.697 0 003.698-1.849 6.73 6.73 0 00.665-4.733s-1.017-5.306-4.455-5.324c-3.439-.019-4.326 1.978-4.955 4.234" fill="#DEDEDF"/><path d="M193.046 201.453c-.277 0-.979-.259-2.569-1.849-1.849-1.849-1.313-6.193-1.276-6.378.647-2.311 1.608-4.566 5.361-4.529 3.753.037 4.826 5.324 4.826 5.509a6.918 6.918 0 01-.721 5.028 3.942 3.942 0 01-3.698 2.052h-.702v-.517l.184-1.498c-.319.646-.69 1.264-1.109 1.849l-.129.185h-.222l.055.148zm-3.106-8.283c0 .37-.443 4.123 1.073 5.676a8.56 8.56 0 001.848 1.535l.592-.925a4.743 4.743 0 01-1.719-.813 1.704 1.704 0 01-.74-1.553c0-.351.278-.869 1.276-1.294a6.603 6.603 0 012.773-.609c.958 0 1.904.207 2.773.609a1.497 1.497 0 01.592 1.479 2.685 2.685 0 01-1.073 1.848 3.269 3.269 0 01-2.07.537v.61a3.11 3.11 0 002.791-1.664 6.289 6.289 0 00.611-4.419s-.98-5.01-4.049-5.028c-3.143 0-3.901 1.848-4.511 3.901l-.167.11zm4.437 5.436l.167.222a.253.253 0 01.092.166v-.222h.425a2.72 2.72 0 001.849-.351 1.978 1.978 0 00.758-1.368.716.716 0 00-.296-.721 5.994 5.994 0 00-4.695 0c-.574.24-.777.499-.795.628a.867.867 0 00.203.629 4.088 4.088 0 002.034.943l.258.074z" fill="#484152"/><path d="M189.645 197.681l-.629 14.105 9.688-5.638.074-2.662-4.326-2.311-2.773-1.036-2.034-2.458z" fill="#DEDEDF"/><path d="M188.573 212.526l.702-15.936 2.718 3.161 2.644.98 4.621 2.459-.092 3.143-10.593 6.193zm1.423-13.773l-.536 12.313 8.837-5.158v-2.182l-4.049-2.126-2.81-1.035-1.442-1.812z" fill="#484152"/><path d="M193.287 205.02v-3.327l3.217 1.848-3.217 1.479zm.814-1.848v.628l.61-.277-.61-.351z" fill="#484152"/><path d="M192.509 202.211s-1.849.351-1.645 1.59c.203 1.238 1.645 1.127 1.645 1.127v-2.717z" fill="#DEDEDF"/><path d="M192.38 205.298a1.849 1.849 0 01-1.849-1.516c-.111-1.276 1.184-1.849 1.979-2.034l.48-.092v3.642h-.61zm-.203-2.57c-.407.148-.888.462-.832.98.055.518.48.684.832.739v-1.719z" fill="#484152"/><path d="M202.03 212.989h-3.457v4.308l1.849-.296s1.35-4.086 4.437-4.086 2.385 6.045 2.385 6.045h-6.822l-2.034-.351" fill="#DEDEDF"/><path d="M207.522 219.367h-7.191l-2.108-.352.148-.813 2.034.351h6.378a7.544 7.544 0 00-.869-4.714 1.435 1.435 0 00-1.128-.518c-2.736 0-4.012 3.698-4.03 3.809v.24l-2.496.407v-5.195h3.882v.813h-3.05v3.42l1.054-.185c.351-.905 1.849-4.122 4.714-4.122.347-.022.695.037 1.016.171.32.135.605.342.833.605 1.479 1.683 1.054 5.546 1.035 5.731l-.222.352z" fill="#484152"/><path d="M203.195 216.649s1.146-2.588 1.978.278l-1.978-.278z" fill="#DEDEDF"/><path d="M204.786 217.056c-.296-.999-.555-1.073-.555-1.073s-.462.37-.665.832l-.74-.332c0-.241.647-1.369 1.461-1.313.813.055 1.091.961 1.294 1.645l-.795.241z" fill="#484152"/><path d="M223.847 227.316c-5.898 0-12.942-.628-19.763-1.294-1.757-.185-3.236-.333-4.308-.407-7.155-.554-37.77-.517-43.353-.185-2.366.148-9.817.259-18.487.389-12.516.203-28.101.443-32.668.85-6.71.629-20.54.832-22.35 0-1.258-.628-1.665-2.662-2.182-5.232a30.77 30.77 0 00-.925-3.79c-.943-2.754-1.054-8.689-1.183-14.438v-3.439c-.185-6.304-.37-11.721-.703-13.958-.09-1.39.06-2.784.444-4.123.556-2.237.823-4.535.795-6.84-.13-3.365.13-9.244 3.07-10.963a3.802 3.802 0 013.124-.74c.61.111 1.228.166 1.848.167 1.072 0 2.274.092 3.698.203a83.87 83.87 0 009.484.333l9.613-.388c10.723-.444 25.42-1.054 28.767-.795 2.958.222 16.786.351 38.953.351 5.953 0 26.437-.795 32.722-1.128a204.844 204.844 0 0123.664 0c4.03.518 5.657 6.193 7.099 11.204.241.813.463 1.608.703 2.366.98 3.18.869 9.244.776 15.012a75.067 75.067 0 00.148 9.521c.703 5.324-1.146 20.743-6.729 25.161-2.089 1.664-6.637 2.237-12.294 2.237l.037-.074zm-48.659-3.623c9.983 0 20.78.129 24.68.425l4.345.407c8.689.868 26.77 2.662 30.874-.592 4.844-3.827 6.785-18.58 6.119-23.645a79.008 79.008 0 01-.166-9.78c0-5.417.203-11.555-.703-14.494-.24-.758-.462-1.572-.702-2.385-1.313-4.53-2.773-9.651-5.75-10.039a208.088 208.088 0 00-23.349 0c-6.286.351-26.844 1.146-32.815 1.146-22.185 0-36.069-.129-39.083-.369-3.013-.241-18.487.388-28.581.813l-9.632.37a82.248 82.248 0 01-9.65-.333c-1.369-.111-2.552-.203-3.55-.203a12.74 12.74 0 01-2.163-.167c-.758-.111-.906-.148-2.052.518-1.59.943-2.44 4.474-2.274 9.502a27.826 27.826 0 01-.814 7.229 11.383 11.383 0 00-.444 3.531c.37 2.348.555 7.802.722 14.18 0 1.091 0 2.255.092 3.439.11 5.361.24 11.425 1.09 13.939.407 1.31.735 2.644.98 3.993.315 1.535.777 3.827 1.313 4.105 1.183.536 13.2.684 21.464 0 4.622-.426 19.597-.666 32.797-.851 8.596-.148 16.01-.259 18.358-.388 2.348-.13 10.427-.259 18.894-.259" fill="#2A1F2E"/><path d="M155.48 162.628s1.423 19.948 1.239 29.395c.048 8.502-.366 17-1.239 25.457a20.14 20.14 0 01-3.032 8.375c2.191.496 4.465.496 6.655 0 2.607-.887 3.254-15.511 3.864-25.457.888-14.79-1.072-38.657-1.072-38.657l-6.415.887z" fill="#6D96C4"/><path opacity=".64" d="M161.783 161.741l-3.697.499c.259 3.476 1.849 24.607 1.017 38.158-.592 9.946-1.239 24.57-3.846 25.457-.391.13-.793.222-1.201.278 1.622.246 3.278.152 4.862-.278 2.607-.887 3.254-15.511 3.845-25.457.888-14.79-1.072-38.657-1.072-38.657" fill="#ABD1F2"/><path d="M156.293 227.075a21.336 21.336 0 01-3.938-.406l-1.239-.278.758-1.017a19.987 19.987 0 002.884-8.023 231.1 231.1 0 001.22-24.662v-.684c.185-9.244-1.22-29.118-1.238-29.321v-.758l8.042-1.128v.869c0 .24 1.959 24.033 1.072 38.823l-.129 2.33c-.925 15.825-1.757 23.017-4.271 23.867a9.9 9.9 0 01-3.161.444v-.056zm-2.422-1.793c1.677.286 3.395.223 5.047-.185 1.849-.647 2.755-15.344 3.161-22.407l.148-2.329a344.51 344.51 0 00-.998-37.677l-4.788.665c.24 3.698 1.349 20.336 1.183 28.693v.702a226.53 226.53 0 01-1.239 24.884 23.514 23.514 0 01-2.496 7.654" fill="#2A1F2E"/><path d="M179.052 134.693c4.437 1.017 5.546 6.489 7.395 12.72 1.849 6.23 4.012 15.603 0 18.801-4.012 3.199-21.408 1.609-24.718 0-3.309-1.608-1.405-24.163 3.18-28.082a15.231 15.231 0 0114.069-3.439" fill="#FBFBF2"/><path d="M174.707 145.084c-4.881-.887-10.279 7.395-14.106 15.012.148-7.728.74-19.134 4.4-22.647 4.326-4.16 9.244-3.291 14.069-2.755 4.455.481 5.546 5.805 7.395 12.036 1.424 4.751 2.995 11.295 1.849 15.566-3.494-7.561-8.708-16.287-13.736-17.212" fill="#DFDFE0"/><path d="M161.452 166.954c-.979-.481-1.497-1.849-1.645-4.27-.314-5.75-.961-16.195 2.44-22.463a13.29 13.29 0 013.698-4.196c.454-.355.93-.682 1.423-.98 3.199-1.849 7.691-1.202 11.777-.74 4.086.463 5.86 4.326 7.395 9.78.277 1.035.554 2.089.869 3.106 3.161 10.556 3.069 16.99-.278 19.671-1.848 1.497-6.23 2.033-10.87 2.033-6.083 0-12.646-.943-14.79-1.941h-.019zm17.545-31.428c-4.141-.463-11.629.184-13.551 3.697-1.923 3.513-4.493 14.494-3.975 23.424.129 2.144.554 2.81.721 2.884 3.032 1.46 20.17 3.05 23.867 0 1.849-1.498 3.346-5.824-.277-17.915-.314-1.017-.592-2.089-.888-3.143-1.405-5.139-2.736-8.652-5.897-9.003" fill="#2A1F2E"/><path d="M114.788 143.734c-1.848.259-8.467 10.242-5.435 16.029 3.032 5.786 7.118 4.4 9.244.869 2.126-3.531 2.847-17.785-3.827-16.898" fill="#FBFBF2"/><path d="M114.788 143.734c-1.848.259-8.467 10.242-5.435 16.029 3.032 5.786 7.118 4.4 9.244.869 2.126-3.531 2.847-17.785-3.827-16.898" fill="#CDCCCD"/><path d="M114.18 164.514h-.148c-1.442 0-3.55-.832-5.398-4.363-2.164-4.141.203-9.632 1.331-11.795 1.294-2.477 3.309-5.25 4.714-5.435a4.456 4.456 0 014.529 2.163c2.792 4.252 1.849 13.2.111 15.973a6.372 6.372 0 01-5.139 3.457zm.721-19.966a13.968 13.968 0 00-4.123 5.897c-.906 2.108-2.218 6.046-.702 8.948 1.183 2.237 2.569 3.439 4.011 3.476a4.69 4.69 0 003.827-2.662c1.387-2.293 2.256-10.668 0-14.217a2.84 2.84 0 00-2.939-1.442" fill="#2A1F2E"/><path d="M126.455 133.659c-3.883 0-8.56 9.872-9.891 16.639-1.331 6.766.795 12.83 6.138 13.237 5.343.406 8.578.129 11.499-2.071 2.921-2.2 1.849-10.889 0-16.232s-1.849-11.647-7.746-11.61" fill="#FBFBF2"/><path d="M134.201 144.806c-1.848-5.343-1.848-11.647-7.764-11.61-3.864 0-8.542 9.872-9.873 16.639a20.366 20.366 0 00-.388 3.42c1.96-6.193 5.713-12.941 8.929-12.941 5.879 0 5.879 6.267 7.765 11.61a33.695 33.695 0 011.849 8.689c2.385-2.718 1.368-10.76-.425-15.825" fill="#DFDFE0"/><path d="M126.269 164.625c-1.109 0-2.311 0-3.697-.148a7.049 7.049 0 01-5.177-2.792 14.48 14.48 0 01-1.719-11.406c1.183-6.046 5.898-17.305 10.686-17.342 5.158 0 6.322 4.363 7.395 8.616.314 1.164.628 2.384 1.035 3.531 1.849 5.398 3.143 14.586-.277 17.156a12.942 12.942 0 01-8.246 2.385zm.185-30.061c-3.069 0-7.728 9.059-9.096 16.029a13.114 13.114 0 001.424 10.094 5.304 5.304 0 003.993 2.089c5.084.388 8.172.204 10.945-1.849 2.311-1.737 1.849-9.521-.278-15.307-.425-1.202-.758-2.459-1.072-3.698-1.22-4.566-2.144-7.395-5.86-7.395" fill="#2A1F2E"/><path d="M143.019 133.326c-4.456.481-5.546 7.82-7.488 14.069-1.941 6.249-3.993 15.585 0 18.783 3.994 3.198 21.427 1.608 24.736 0 3.31-1.608 1.498-25.568-3.087-29.469s-9.355-3.919-14.161-3.383z" fill="#FBFBF2"/><path d="M147.382 145.047c4.881-.888 10.279 7.395 14.106 15.012-.148-7.728-.647-20.54-4.308-24.034-4.326-4.16-9.354-3.919-14.161-3.383-4.455.499-5.546 7.838-7.395 14.069-1.423 4.751-2.995 11.295-1.849 15.566 3.495-7.561 8.708-16.287 13.737-17.212" fill="#DFDFE0"/><path d="M145.903 168.859c-4.641 0-9.004-.536-10.871-2.034-3.346-2.68-3.439-9.114-.277-19.67.296-1.017.591-2.071.869-3.106 1.497-5.436 3.032-11.093 7.302-11.555 4.271-.462 7.488-.758 11.222.869.734.351 1.438.759 2.108 1.22a15.8 15.8 0 013.697 4.825c3.402 6.268 2.662 17.489 2.33 23.239-.13 2.44-.647 3.698-1.627 4.271-2.089.998-8.652 1.848-14.79 1.848l.037.093zm-2.829-34.812c-3.161.351-4.492 5.195-5.897 10.334-.296 1.054-.573 2.127-.888 3.143-3.697 12.091-2.144 16.417-.277 17.915 3.697 2.958 20.835 1.386 23.867-.093.167 0 .592-.739.721-2.884.499-8.929-1.405-21.649-3.882-24.828-2.477-3.18-9.503-4.049-13.644-3.587z" fill="#2A1F2E"/><path d="M104.805 169.007l-1.627-.222c.148-1.128 3.883-27.565 16.842-36.975 9.651-6.97 21.945-4.4 32.779-2.145 3.822.887 7.692 1.554 11.591 1.997 28.97 2.588 48.068 14.531 56.72 35.477l-1.516.629c-8.412-20.336-27.047-31.946-55.352-34.479a104.339 104.339 0 01-11.776-2.015c-11.093-2.293-22.407-4.678-31.429 1.849-12.386 8.947-16.139 35.569-16.176 35.828" fill="#2A1F2E"/></g><defs><filter id="filter0_d" x="-13.39" y=".61" width="347.781" height="363.026" filterUnits="userSpaceOnUse" color-interpolation-filters="sRGB"><feFlood flood-opacity="0" result="BackgroundImageFix"/><feColorMatrix in="SourceAlpha" values="0 0 0 0 0 0 0 0 0 0 0 0 0 0 0 0 0 0 127 0"/><feOffset/><feGaussianBlur stdDeviation="41.695"/><feColorMatrix values="0 0 0 0 0.741176 0 0 0 0 0.176471 0 0 0 0 0.262745 0 0 0 1 0"/><feBlend in2="BackgroundImageFix" result="effect1_dropShadow"/><feBlend in="SourceGraphic" in2="effect1_dropShadow" result="shape"/></filter></defs></svg>