<svg width="223" height="174" fill="none" xmlns="http://www.w3.org/2000/svg"><path stroke="#444" stroke-width=".775" d="M77.926 86.454l10.786-40.255m40.058 10.899L88.515 46.312"/><circle cx="88.714" cy="46.714" r="2.714" fill="#C4C4C4"/><g filter="url(#filter0_d)"><path d="M33.877 120.411a7.756 7.756 0 012.839-10.594L66.24 92.771l36.241-20.924 36.253-20.93 29.513-17.04a7.754 7.754 0 0110.593 2.839l9.732 16.856a7.755 7.755 0 01-2.838 10.594l-131.532 75.94a7.755 7.755 0 01-10.594-2.839l-9.732-16.856z" fill="#fff"/><path d="M33.877 120.411a7.756 7.756 0 012.839-10.594L66.24 92.771l36.241-20.924 36.253-20.93 29.513-17.04a7.754 7.754 0 0110.593 2.839l9.732 16.856a7.755 7.755 0 01-2.838 10.594l-131.532 75.94a7.755 7.755 0 01-10.594-2.839l-9.732-16.856z" fill="#C93A48"/></g><path d="M66.152 121.667l-2.302 1.328-3.573-6.19a36.04 36.04 0 01-1.192-2.264l-.058.033c.246.704.402 1.224.467 1.558l1.637 8.434-1.905 1.099-6.487-5.537c-.175-.149-.561-.567-1.157-1.256l-.065.038a51.41 51.41 0 011.643 2.629l3.303 5.721-2.1 1.213-5.972-10.346 3.412-1.97 5.654 4.912a9.93 9.93 0 011.222 1.266l.043-.025c-.2-.647-.35-1.224-.45-1.73l-1.419-7.339 3.326-1.92 5.973 10.346zm13.253-7.652l-2.316 1.337-5.973-10.345 2.316-1.337 5.973 10.345zm-10.901 6.294l-5.973-10.346 2.33-1.345 2.237 3.874 1.522-.879c2.496-1.441 4.33-1.147 5.502.883.625 1.082.774 2.118.448 3.108-.326.99-1.103 1.839-2.33 2.547l-3.736 2.158zm-.39-6.057l1.695 2.937 1.054-.608c1.173-.678 1.472-1.515.898-2.51-.556-.962-1.406-1.113-2.55-.452l-1.097.633zm22.223-6.308c-1.48.855-2.966 1.071-4.454.648-1.491-.428-2.684-1.417-3.578-2.965-.944-1.636-1.234-3.232-.87-4.789.365-1.557 1.328-2.787 2.891-3.69 1.477-.852 2.949-1.057 4.416-.615 1.472.44 2.665 1.45 3.578 3.032.939 1.626 1.222 3.21.849 4.753-.368 1.539-1.312 2.748-2.832 3.626zm-4.918-8.752c-.817.472-1.289 1.155-1.414 2.048-.129.888.099 1.838.682 2.848.591 1.024 1.3 1.696 2.125 2.014.825.319 1.627.254 2.407-.196.803-.464 1.274-1.12 1.412-1.97.135-.854-.094-1.796-.689-2.825-.619-1.072-1.33-1.775-2.13-2.107-.802-.333-1.599-.27-2.393.188zm13.507-7.712l-2.95 1.704 4.877 8.448-2.338 1.35-4.877-8.448-2.936 1.695-1.096-1.898 8.225-4.748 1.095 1.897zm14.869 2.68l-2.943 1.699-5.611-2.753c-.107-.054-.308-.19-.603-.412l-.036.02 2.924 5.065-2.33 1.346-5.973-10.346 2.33-1.345 2.824 4.891.036-.02a8.833 8.833 0 01-.044-.744l.366-5.964 2.777-1.604-.758 7.018 7.041 3.149zm1.269-5.484l2.057 3.564-2.33 1.345-5.973-10.345 3.65-2.108c2.607-1.505 4.545-1.159 5.814 1.04.6 1.038.711 2.096.333 3.174-.377 1.07-1.19 1.966-2.44 2.688l-1.111.642zm-2.883-4.993l1.862 3.225.916-.529c1.241-.716 1.548-1.618.92-2.705-.613-1.063-1.541-1.236-2.782-.52l-.916.53zm22.586-1.632l-2.315 1.337-5.973-10.345 2.316-1.337 5.972 10.345zm-10.9 6.294L117.894 78l2.33-1.346 2.237 3.874 1.522-.879c2.496-1.44 4.33-1.146 5.502.883.625 1.082.774 2.118.448 3.108-.327.99-1.103 1.84-2.329 2.547l-3.737 2.158zm-.39-6.056l1.695 2.936 1.053-.608c1.174-.678 1.473-1.514.899-2.51-.556-.962-1.406-1.112-2.551-.451l-1.096.633zm22.083-6.469l-2.33 1.346-4.853-8.405-2.07 1.195c1.73 4.285 2.604 7.004 2.62 8.155.014 1.146-.474 2.005-1.465 2.577a4.694 4.694 0 01-1.372.523l-1.074-1.862c.334-.065.602-.155.804-.272a.904.904 0 00.412-.487c.081-.214.058-.643-.07-1.288-.128-.644-.445-1.698-.951-3.163a90.918 90.918 0 00-1.915-5.032l6.291-3.632 5.973 10.345zm11.68-6.743l-2.2 1.27-3.282-5.685a19.122 19.122 0 01-.895-1.715l-.043.025c.013.255.005.642-.024 1.158l-.518 8.966-2.344 1.354-5.973-10.345 2.2-1.27 3.303 5.72c.408.707.663 1.192.763 1.455l.029-.017c-.01-.072.006-.456.046-1.152l.469-8.668 2.496-1.442 5.973 10.346zm9.585-6.024c-.544.801-1.425 1.553-2.642 2.256-1.587.916-3.104 1.17-4.552.762-1.448-.409-2.62-1.39-3.517-2.943-.955-1.654-1.22-3.29-.795-4.909.431-1.62 1.461-2.901 3.091-3.843 1.01-.583 1.935-.947 2.775-1.092l1.295 2.244c-.931-.014-1.839.235-2.724.746-.972.56-1.579 1.319-1.823 2.274-.244.955-.064 1.954.538 2.998.578 1 1.32 1.636 2.227 1.908.904.267 1.833.125 2.785-.425a5.6 5.6 0 002.113-2.105l1.229 2.129zm2.016-.674l-5.973-10.345 2.33-1.346 2.237 3.874 1.522-.878c2.496-1.441 4.33-1.147 5.502.882.625 1.083.774 2.119.448 3.108-.326.99-1.103 1.84-2.329 2.548l-3.737 2.157zm-.39-6.056l1.695 2.936 1.054-.608c1.173-.678 1.473-1.514.898-2.51-.556-.962-1.406-1.112-2.55-.451l-1.097.633z" fill="#fff"/><defs><filter id="filter0_d" x="0" y="0" width="222.45" height="173.983" filterUnits="userSpaceOnUse" color-interpolation-filters="sRGB"><feFlood flood-opacity="0" result="BackgroundImageFix"/><feColorMatrix in="SourceAlpha" values="0 0 0 0 0 0 0 0 0 0 0 0 0 0 0 0 0 0 127 0"/><feOffset/><feGaussianBlur stdDeviation="15"/><feColorMatrix values="0 0 0 0 0.741176 0 0 0 0 0.176471 0 0 0 0 0.262745 0 0 0 1 0"/><feBlend in2="BackgroundImageFix" result="effect1_dropShadow"/><feBlend in="SourceGraphic" in2="effect1_dropShadow" result="shape"/></filter></defs></svg>