<svg width="31" height="30" fill="none" xmlns="http://www.w3.org/2000/svg"><circle cx="15.909" cy="15" r="15" fill="#101010"/><path d="M6.555 14.782l3.765 1.405 1.458 4.688c.093.3.46.411.704.212l2.099-1.711a.626.626 0 01.763-.022l3.786 2.749c.26.19.63.047.696-.268l2.773-13.34a.444.444 0 00-.595-.505L6.55 13.952a.444.444 0 00.005.83zm4.988.657l7.36-4.533c.132-.08.268.098.154.204l-6.074 5.645a1.259 1.259 0 00-.39.754l-.207 1.533c-.027.205-.315.225-.371.027l-.796-2.796a.741.741 0 01.324-.834z" fill="#BD2D43"/></svg>