<svg width="31" height="30" fill="none" xmlns="http://www.w3.org/2000/svg"><circle cx="15.266" cy="15" r="15" fill="#fff"/><path fill-rule="evenodd" clip-rule="evenodd" d="M20.775 9.354a7.78 7.78 0 00-5.553-2.313c-4.326 0-7.848 3.538-7.85 7.887 0 1.39.361 2.747 1.048 3.944l-1.113 4.087 4.16-1.097a7.81 7.81 0 003.752.96h.003c4.327 0 7.848-3.538 7.85-7.887a7.86 7.86 0 00-2.297-5.58zM15.222 21.49h-.002a6.492 6.492 0 01-3.321-.914l-.238-.142-2.47.651.66-2.42-.156-.247a6.564 6.564 0 01-.997-3.49c.001-3.614 2.928-6.555 6.527-6.555 1.743 0 3.38.683 4.612 1.923a6.534 6.534 0 011.91 4.638c-.002 3.615-2.929 6.556-6.525 6.556zm3.579-4.91c-.196-.099-1.16-.575-1.34-.641-.18-.066-.31-.099-.441.098a11.5 11.5 0 01-.622.773c-.114.132-.228.148-.425.05-.196-.1-.828-.307-1.577-.979a5.877 5.877 0 01-1.09-1.365c-.115-.197-.002-.294.085-.402.212-.265.425-.543.49-.675.066-.131.033-.246-.016-.345-.049-.098-.441-1.069-.605-1.463-.159-.385-.32-.333-.441-.339a7.843 7.843 0 00-.376-.006.72.72 0 00-.523.246c-.18.197-.686.674-.686 1.644 0 .97.703 1.908.8 2.04.099.13 1.384 2.122 3.351 2.975.468.204.833.325 1.118.416.47.15.898.128 1.236.078.377-.057 1.16-.477 1.324-.938.163-.46.163-.855.114-.937-.05-.082-.18-.131-.376-.23z" fill="#fff"/><path fill-rule="evenodd" clip-rule="evenodd" d="M20.775 9.354a7.78 7.78 0 00-5.553-2.313c-4.326 0-7.848 3.538-7.85 7.887 0 1.39.361 2.747 1.048 3.944l-1.113 4.087 4.16-1.097a7.81 7.81 0 003.752.96h.003c4.327 0 7.848-3.538 7.85-7.887a7.86 7.86 0 00-2.297-5.58zM15.222 21.49h-.002a6.492 6.492 0 01-3.321-.914l-.238-.142-2.47.651.66-2.42-.156-.247a6.564 6.564 0 01-.997-3.49c.001-3.614 2.928-6.555 6.527-6.555 1.743 0 3.38.683 4.612 1.923a6.534 6.534 0 011.91 4.638c-.002 3.615-2.929 6.556-6.525 6.556zm3.579-4.91c-.196-.099-1.16-.575-1.34-.641-.18-.066-.31-.099-.441.098a11.5 11.5 0 01-.622.773c-.114.132-.228.148-.425.05-.196-.1-.828-.307-1.577-.979a5.877 5.877 0 01-1.09-1.365c-.115-.197-.002-.294.085-.402.212-.265.425-.543.49-.675.066-.131.033-.246-.016-.345-.049-.098-.441-1.069-.605-1.463-.159-.385-.32-.333-.441-.339a7.843 7.843 0 00-.376-.006.72.72 0 00-.523.246c-.18.197-.686.674-.686 1.644 0 .97.703 1.908.8 2.04.099.13 1.384 2.122 3.351 2.975.468.204.833.325 1.118.416.47.15.898.128 1.236.078.377-.057 1.16-.477 1.324-.938.163-.46.163-.855.114-.937-.05-.082-.18-.131-.376-.23z" fill="#BD2D43"/></svg>