<svg width="31" height="30" fill="none" xmlns="http://www.w3.org/2000/svg"><circle cx="15.266" cy="15" r="15" fill="#101010"/><path fill-rule="evenodd" clip-rule="evenodd" d="M20.775 9.354a7.78 7.78 0 00-5.553-2.313c-4.327 0-7.848 3.538-7.85 7.887 0 1.39.361 2.747 1.048 3.944l-1.114 4.087 4.162-1.097a7.812 7.812 0 003.75.96h.004c4.326 0 7.848-3.538 7.85-7.887a7.86 7.86 0 00-2.297-5.58zM15.222 21.49h-.003a6.492 6.492 0 01-3.32-.914l-.238-.142-2.47.651.66-2.42-.156-.247a6.564 6.564 0 01-.997-3.49c.001-3.614 2.928-6.555 6.527-6.555 1.742 0 3.38.683 4.612 1.923a6.534 6.534 0 011.91 4.638c-.002 3.615-2.929 6.556-6.525 6.556zm3.579-4.91c-.196-.099-1.16-.575-1.34-.641-.18-.066-.311-.099-.442.098-.13.198-.506.642-.62.773-.115.132-.23.148-.426.05-.196-.1-.828-.307-1.577-.979-.583-.522-.977-1.168-1.091-1.365-.114-.197-.001-.294.086-.402.212-.265.425-.543.49-.675.066-.131.033-.246-.016-.345-.05-.098-.441-1.069-.605-1.463-.16-.384-.32-.332-.441-.339a7.843 7.843 0 00-.376-.006c-.13 0-.343.049-.523.246s-.687.674-.687 1.644c0 .97.703 1.908.801 2.04.098.13 1.383 2.122 3.35 2.975.469.204.834.325 1.119.416.47.15.897.128 1.235.078.377-.057 1.16-.477 1.324-.938.164-.46.164-.855.115-.937-.05-.082-.18-.131-.376-.23z" fill="#fff"/><path fill-rule="evenodd" clip-rule="evenodd" d="M20.775 9.354a7.78 7.78 0 00-5.553-2.313c-4.327 0-7.848 3.538-7.85 7.887 0 1.39.361 2.747 1.048 3.944l-1.114 4.087 4.162-1.097a7.812 7.812 0 003.75.96h.004c4.326 0 7.848-3.538 7.85-7.887a7.86 7.86 0 00-2.297-5.58zM15.222 21.49h-.003a6.492 6.492 0 01-3.32-.914l-.238-.142-2.47.651.66-2.42-.156-.247a6.564 6.564 0 01-.997-3.49c.001-3.614 2.928-6.555 6.527-6.555 1.742 0 3.38.683 4.612 1.923a6.534 6.534 0 011.91 4.638c-.002 3.615-2.929 6.556-6.525 6.556zm3.579-4.91c-.196-.099-1.16-.575-1.34-.641-.18-.066-.311-.099-.442.098-.13.198-.506.642-.62.773-.115.132-.23.148-.426.05-.196-.1-.828-.307-1.577-.979-.583-.522-.977-1.168-1.091-1.365-.114-.197-.001-.294.086-.402.212-.265.425-.543.49-.675.066-.131.033-.246-.016-.345-.05-.098-.441-1.069-.605-1.463-.16-.384-.32-.332-.441-.339a7.843 7.843 0 00-.376-.006c-.13 0-.343.049-.523.246s-.687.674-.687 1.644c0 .97.703 1.908.801 2.04.098.13 1.383 2.122 3.35 2.975.469.204.834.325 1.119.416.47.15.897.128 1.235.078.377-.057 1.16-.477 1.324-.938.164-.46.164-.855.115-.937-.05-.082-.18-.131-.376-.23z" fill="#BD2D43"/></svg>