<svg width="26" height="26" fill="none" xmlns="http://www.w3.org/2000/svg"><path d="M20.316 17.879h0c-.202.57-.677 1.037-1.176 1.375-.509.344-1.108.6-1.652.717h-.001c-.37.079-.811.15-1.544.033-.712-.112-1.687-.4-3.145-1.004-1.935-.802-3.507-2.176-4.61-3.36a19.184 19.184 0 01-1.777-2.223l-.017-.025-.034-.049-.013-.017s0 0 0 0l-.006-.009h0l-.017-.023a9.725 9.725 0 01-.836-1.353c-.366-.722-.733-1.69-.733-2.702 0-1.952.982-2.95 1.393-3.37.012-.01.022-.022.033-.032h0c.432-.441 1.087-.6 1.64-.6.154 0 .295.007.41.013a22.662 22.662 0 00.051.002c.166.007.433.018.677.178.254.166.41.436.54.747v.002l.378.916c.32.776.681 1.652.739 1.774.095.197.287.645.05 1.114-.138.295-.276.452-.44.64l-.037.043a6.982 6.982 0 01-.244.267l-.042.044a4.96 4.96 0 00-.248.28l-.008.01h0l-.003.005c-.045.053-.073.085-.096.117a.328.328 0 00-.02.032l-.001.001c.003.01.01.026.023.05.209.353.913 1.497 1.936 2.408h0c1.222 1.088 2.22 1.49 2.688 1.68l.114.046 6.028 2.273zm0 0c.165-.469.25-.907.28-1.257.015-.174.018-.334.008-.47a1.042 1.042 0 00-.11-.426h0l-.002-.004c-.118-.206-.31-.322-.439-.392a6.406 6.406 0 00-.287-.143l-.183-.09h-.002a119.32 119.32 0 00-1.266-.622c-.514-.248-1.075-.514-1.285-.588m3.286 3.992l-.958-2.335m-2.499-1.187c.339.118 2.13 1.003 2.5 1.187m-2.5-1.187l.177-.468a.1.1 0 00-.006-.002m-.17.47c-.333-.126-.65-.082-.9.273-.049.066-.096.133-.143.2-.303.426-.595.836-.838 1.098l1.88-1.571zm2.498 1.187l.212.103m-.212-.103l.212.103m-2.54-1.76a1.284 1.284 0 00-.777-.058c-.288.075-.522.258-.702.512l.408.289-.407-.29-.145.203c-.305.43-.574.807-.793 1.043l2.416-1.7zm2.54 1.76c.25.12.418.202.49.325l-.49-.325zM2.862 20.054l.082-.245-.152-.209A11.95 11.95 0 01.5 12.543C.5 5.9 5.9.5 12.54.5h.006c6.64 0 12.04 5.403 12.04 12.043s-5.4 12.043-12.04 12.043c-2.45 0-4.72-.729-6.624-1.99l-.2-.132-.228.073-3.881 1.24 1.249-3.723z" stroke="#fff"/></svg>