<svg width="1046" height="185" viewBox="0 0 1046 185" fill="none" xmlns="http://www.w3.org/2000/svg">
<path d="M86.7561 2H73.4842H26.5437H7.15283H0V82H26.5437V28.6573H73.4842V82H100V2H86.7561Z" fill="#BD2D43"/>
<path d="M891.191 2V27.974H843.781V2H817V82H843.781V54.65H891.191V82H918V2H891.191Z" fill="#BD2D43"/>
<path d="M790 21.9663V0H726.989H707.273H700V80H707.273H726.989H790V58.0337H726.989V50.9831H785.341V29.0168H726.989V21.9663H790Z" fill="#BD2D43"/>
<path d="M343 0H303.075H275.925H236V26.6573H275.925V80H303.075V26.6573H343V0Z" fill="#BD2D43"/>
<path d="M187.111 82H156.917C146.207 81.9801 135.93 77.7211 128.284 70.1339C120.637 62.5466 116.228 52.2334 116 41.3997V41.3997V40.6003C116.221 29.7642 120.628 19.4468 128.276 11.858C135.924 4.26923 146.205 0.0126154 156.917 0H187.111C197.823 0.00545355 208.105 4.2606 215.75 11.8517C223.395 19.4428 227.793 29.7645 228 40.6003V40.6003V41.3997C227.786 52.2332 223.385 62.5506 215.742 70.1402C208.098 77.7297 197.82 81.9872 187.111 82ZM141.961 41C142.064 44.9058 143.67 48.6165 146.438 51.3417C149.205 54.0669 152.914 55.5912 156.776 55.5898H186.97C188.864 55.5898 190.739 55.2125 192.488 54.4792C194.238 53.746 195.827 52.6713 197.166 51.3166C198.505 49.9618 199.567 48.3534 200.292 46.5833C201.017 44.8132 201.39 42.916 201.39 41C201.39 39.084 201.017 37.1868 200.292 35.4167C199.567 33.6466 198.505 32.0382 197.166 30.6834C195.827 29.3287 194.238 28.254 192.488 27.5208C190.739 26.7875 188.864 26.4102 186.97 26.4102H156.917C153.055 26.4088 149.346 27.9331 146.579 30.6583C143.811 33.3835 142.205 37.0942 142.102 41" fill="#BD2D43"/>
<path d="M1005.47 79.8886H975.559C964.941 79.8907 954.746 75.7435 947.162 68.3375C939.579 60.9315 935.212 50.8574 935 40.2785V40.2785V39.61C935.212 29.0408 939.571 18.975 947.142 11.5706C954.714 4.16615 964.895 0.0124606 975.503 9.22759e-07H1005.41C1016.03 -0.0022583 1026.23 4.14407 1033.82 11.5493C1041.41 18.9545 1045.78 29.0287 1046 39.61V39.61V40.39C1045.78 50.9617 1041.42 61.0275 1033.84 68.4312C1026.26 75.8349 1016.08 79.9877 1005.47 80V79.8886ZM960.744 40C960.853 43.8082 962.447 47.4244 965.186 50.0816C967.926 52.7389 971.596 54.2283 975.42 54.234H1005.33C1009.12 54.234 1012.75 52.7343 1015.43 50.065C1018.11 47.3956 1019.61 43.7751 1019.61 40C1019.61 36.2249 1018.11 32.6045 1015.43 29.9351C1012.75 27.2657 1009.12 25.766 1005.33 25.766H975.42C971.596 25.7717 967.926 27.2611 965.186 29.9184C962.447 32.5756 960.853 36.1918 960.744 40" fill="#BD2D43"/>
<path d="M457 33.882C456.845 25.3823 453.339 17.2821 447.237 11.321C441.134 5.35987 432.922 2.01331 424.362 2H362V82H388.868V66.2978H424.362C432.922 66.2845 441.134 62.9379 447.237 56.9768C453.339 51.0157 456.845 42.9155 457 34.4157V33.882V33.882ZM424.362 40.3146H388.868V27.955H424.362C426.013 27.955 427.595 28.6061 428.762 29.7651C429.929 30.924 430.584 32.4959 430.584 34.1348C430.584 35.7738 429.929 37.3457 428.762 38.5046C427.595 39.6635 426.013 40.3146 424.362 40.3146" fill="#BD2D43"/>
<path d="M490.088 80L495.184 68.0366H538.126L543.222 80H570.395L572 79.3244L538.21 0H495.212L461 80H490.088ZM516.641 17.8466L526.693 41.323H506.616L516.641 17.8466Z" fill="#BD2D43"/>
<path d="M671.663 2.0281H645.35V24.2753C644.637 27.5579 642.822 30.497 640.205 32.6029C637.589 34.7088 634.33 35.8542 630.972 35.8483H612.719C608.823 35.8484 605.086 34.3062 602.324 31.5588C599.561 28.8114 597.998 25.082 597.976 21.1854C597.976 18.545 597.976 10.6798 597.976 2H572C572 10.427 572 18.1798 572 21.1011V21.8596C572.206 32.5202 576.583 42.675 584.191 50.1433C591.799 57.6117 602.031 61.798 612.691 61.8034H630.944C635.86 61.8055 640.734 60.9008 645.322 59.1348V82H672V2.0281H671.663Z" fill="#BD2D43"/>
<path d="M765.467 120.42C765.467 125.96 765.302 131.649 765.046 137.263C764.954 139.11 764.844 141.086 764.697 143.007C764.697 143.801 764.569 144.577 764.477 145.352C764.477 145.519 764.331 146.534 764.477 145.962C764.442 146.322 764.387 146.679 764.313 147.033C764.313 147.495 764.111 147.938 764.019 148.381C763.928 148.825 764.019 148.381 764.019 148.381V148.511C764.172 148.237 764.383 148.001 764.637 147.819C764.891 147.638 765.182 147.515 765.488 147.46C765.795 147.406 766.11 147.42 766.41 147.503C766.711 147.585 766.989 147.734 767.226 147.938C767.354 148.049 767.867 149.083 767.666 148.566C767.813 148.954 767.666 149.12 767.666 148.566V147.957C767.666 147.809 767.666 147.513 767.666 148.141C767.666 147.993 767.666 147.827 767.666 147.679C768.333 144.31 769.321 141.014 770.616 137.836C771.974 134.17 773.824 130.709 776.114 127.549C777.032 126.252 778.174 125.133 779.485 124.243C779.961 123.909 780.496 123.671 781.061 123.541C781.684 123.356 780.603 123.541 781.244 123.541H781.648C781.849 123.523 782.051 123.523 782.252 123.541C781.849 123.541 782.252 123.541 782.454 123.541C782.915 123.644 783.347 123.852 783.715 124.15C784.084 124.448 784.38 124.827 784.579 125.259C785.271 126.546 785.73 127.947 785.935 129.396C786.478 133.401 786.515 137.459 786.045 141.474C786.045 142.379 785.88 143.321 785.771 144.17V144.577V144.965C785.771 144.688 785.771 144.632 785.771 144.798C785.771 144.965 785.679 145.408 785.642 145.722C785.551 146.368 785.441 147.015 785.331 147.661C785.227 148.245 785.354 148.846 785.685 149.337C786.016 149.828 786.524 150.169 787.1 150.287C787.677 150.405 788.277 150.291 788.771 149.97C789.266 149.648 789.616 149.144 789.747 148.566C791.058 142.127 791.343 135.519 790.59 128.989C790.095 125.296 788.757 121.177 785.367 119.533C781.977 117.89 777.653 119.663 774.757 122.488C771.622 125.793 769.135 129.666 767.428 133.902C765.668 137.756 764.317 141.786 763.396 145.925C763.011 147.249 762.905 148.639 763.085 150.007C763.159 150.411 763.334 150.789 763.592 151.107C763.85 151.425 764.184 151.672 764.563 151.825C764.941 151.978 765.352 152.032 765.757 151.982C766.162 151.932 766.547 151.78 766.878 151.539C767.88 150.669 768.5 149.434 768.6 148.104C768.906 146.306 769.12 144.494 769.242 142.675C769.847 135.139 769.975 127.586 770.011 120.069C770.011 117.095 765.449 117.428 765.43 120.42" fill="white"/>
<path d="M800 123.362C800 126.967 800.17 130.716 800.435 134.357C800.635 137.274 800.988 140.18 801.493 143.063C801.737 145.175 802.46 147.211 803.61 149.03C803.958 149.514 804.493 149.848 805.098 149.959C805.703 150.071 806.329 149.951 806.842 149.625C807.377 149.301 807.763 148.794 807.921 148.208C808.079 147.622 807.997 147.001 807.692 146.47C807.468 146.163 807.272 145.837 807.106 145.497C807.371 146.056 807.106 145.353 807.012 145.245C806.917 145.136 806.842 144.758 806.766 144.524C806.445 143.464 806.193 142.386 806.01 141.297C805.569 138.712 805.273 136.107 805.122 133.492C804.876 130.031 804.725 126.534 804.725 123.019C804.725 120.117 800 120.442 800 123.362" fill="white"/>
<path d="M803.597 107.308C802.91 108.233 802.286 109.199 801.728 110.201C801.196 111.152 800.746 112.143 800.382 113.164C800.254 113.556 800.154 113.956 800.083 114.36C799.972 115.065 799.972 115.781 800.083 116.485C800.156 116.757 800.288 117.01 800.472 117.229C800.656 117.448 800.887 117.626 801.149 117.752C801.435 117.895 801.749 117.978 802.071 117.996C802.393 118.015 802.716 117.968 803.018 117.86C803.612 117.65 804.109 117.245 804.42 116.717C804.716 116.167 804.802 115.536 804.663 114.932V114.932C804.663 115.128 804.663 115.324 804.756 115.521C804.719 115.23 804.719 114.937 804.756 114.646C804.756 114.842 804.756 115.039 804.663 115.235C804.788 114.568 804.988 113.915 805.261 113.289L805.018 113.843C805.729 112.238 806.619 110.712 807.672 109.29C807.998 108.749 808.085 108.107 807.915 107.505C807.835 107.234 807.698 106.981 807.511 106.763C807.325 106.545 807.093 106.366 806.831 106.237C806.544 106.098 806.229 106.018 805.906 106.003C805.584 105.987 805.263 106.037 804.962 106.148C804.386 106.378 803.896 106.77 803.56 107.273" fill="white"/>
<path d="M831.669 116C828.071 116.086 824.625 117.458 821.961 119.865C815.915 125.073 813.715 134.68 814.565 141.95C815.064 146.735 818.541 150.213 823.496 147.581C827.379 145.52 828.192 141.085 829.376 137.257C831.021 131.846 832.519 126.398 833.961 120.951L829.431 120.675C829.519 130.764 829.081 140.85 828.118 150.894C827.695 157.319 826.382 163.654 824.217 169.721C823.056 173.084 821.351 176.236 819.169 179.052C818.966 179.273 818.208 180.285 817.819 180.285C817.727 180.285 817.949 180.285 817.93 180.285C816.858 180.285 816.081 177.782 815.878 176.972C815.064 173.494 816.137 169.611 817.209 166.077C818.276 162.797 819.567 159.593 821.074 156.489C821.21 156.229 821.293 155.945 821.319 155.653C821.344 155.361 821.312 155.067 821.224 154.788C821.135 154.509 820.992 154.249 820.803 154.025C820.614 153.8 820.382 153.615 820.121 153.48C819.86 153.344 819.575 153.262 819.282 153.236C818.989 153.21 818.693 153.242 818.413 153.33C818.132 153.418 817.871 153.561 817.646 153.749C817.42 153.937 817.234 154.168 817.098 154.428C813.992 160.979 810.627 168.525 811.034 175.703C811.218 179.126 812.513 182.77 815.601 184.444C818.688 186.119 821.259 183.69 822.997 181.371C827.526 174.976 830.443 167.591 831.502 159.838C832.725 151.817 833.453 143.729 833.684 135.619C833.887 130.539 834.017 125.441 833.998 120.362C833.97 119.801 833.735 119.271 833.338 118.872C832.941 118.473 832.411 118.234 831.848 118.2C831.285 118.165 830.729 118.339 830.287 118.687C829.845 119.035 829.546 119.533 829.45 120.086C828.513 123.656 827.533 127.22 826.51 130.778C825.733 133.502 824.938 136.3 824.069 138.895C823.755 139.815 823.459 140.735 823.108 141.618C823.108 141.784 822.313 143.201 822.738 142.594C822.167 143.303 821.361 143.786 820.463 143.956C820.574 143.956 820.168 143.956 820.038 143.956C819.707 143.603 819.471 143.173 819.354 142.704C818.356 139.52 819.206 135.214 820.02 131.993C820.655 129.053 822.044 126.327 824.051 124.079C825.026 123.031 826.207 122.191 827.52 121.612C828.833 121.033 830.251 120.726 831.687 120.711C834.627 120.822 834.608 116.184 831.687 116.074" fill="white"/>
<path d="M844.446 94.3939L842.304 138.671C842.191 140.76 842.097 142.849 842.003 144.937C841.872 147.552 845.912 147.716 846.608 145.228C848.311 138.377 851.033 131.8 854.69 125.704C855.398 124.455 856.387 123.375 857.584 122.544C857.733 122.446 857.911 122.395 858.091 122.399C858.091 122.399 858.355 122.399 858.223 122.399C858.591 122.645 858.873 122.993 859.031 123.398C860.629 126.576 860.29 131.044 860.159 134.585C860.084 136.619 859.933 138.653 859.708 140.687C859.708 141.396 859.557 142.104 859.463 142.812C859.369 143.521 859.463 142.54 859.463 143.121C859.05 146.045 863.561 146.971 863.993 144.029C864.425 141.087 864.745 137.8 864.876 134.694C865.083 130.208 865.29 124.869 863.185 120.91C861.08 116.95 856.832 117.023 853.581 120.056C849.822 123.489 847.811 128.683 846.063 133.15C844.567 136.804 843.275 140.533 842.191 144.32L846.815 144.61L848.957 100.315C848.957 98.226 849.164 96.1374 849.258 94.0488C849.408 91.0885 844.71 91.4518 844.559 94.3939" fill="white"/>
<path d="M876.188 78.4181C873.531 99.9133 872.133 121.536 872 143.183C872.039 148.705 872.842 154.198 874.388 159.515C875.203 162.311 879.789 160.794 878.955 157.981C876.074 148.28 876.34 137.391 876.548 127.215C876.757 117.039 879.315 94.3306 880.338 84.3191C880.528 82.2364 880.736 80.1537 880.982 78.0527C881.324 75.0748 876.586 75.4585 876.245 78.4181" fill="white"/>
<path d="M858.829 115.93L905.585 102.436L912.325 100.464C912.908 100.304 913.403 99.9199 913.702 99.396C914.001 98.872 914.079 98.2512 913.918 97.67C913.758 97.0888 913.373 96.595 912.847 96.2971C912.322 95.9991 911.699 95.9215 911.116 96.0813L864.36 109.631L857.621 111.566C857.052 111.736 856.572 112.121 856.284 112.639C855.996 113.158 855.924 113.767 856.082 114.338C856.24 114.909 856.616 115.396 857.13 115.693C857.644 115.991 858.254 116.076 858.829 115.93" fill="white"/>
<path d="M943.557 117.294C943.001 112.414 940.907 106.607 936.142 104.702C928.542 101.672 921.313 109.039 918.236 115.589C914.906 122.68 913.501 130.492 914.157 138.27C914.732 143.713 917.531 150.971 924.52 148.504C927.511 147.296 930.309 145.67 932.824 143.677C935.327 141.905 937.655 139.906 939.776 137.707C941.77 135.763 943.446 133.529 944.744 131.085C946.041 128.327 942.056 126.258 940.74 129.016C938.237 134.314 932.546 138.687 927.634 141.717C926.493 142.469 925.311 143.16 924.093 143.786L923.389 144.058C923.259 144.058 922.481 144.312 922.888 144.24C922.679 144.257 922.468 144.257 922.258 144.24C921.832 144.24 922.536 144.24 921.999 144.24C921.461 144.24 921.721 144.24 921.164 143.931C921.443 144.113 920.59 143.405 920.59 143.405C920.59 143.405 920.089 142.625 919.904 142.262C919.484 141.256 919.173 140.21 918.977 139.141C918.105 132.855 918.825 126.456 921.072 120.506C922.796 115.516 926.355 108.639 932.454 108.639C935.123 108.639 936.736 110.926 937.644 113.049C938.099 114.153 938.453 115.294 938.701 116.46L938.923 117.585C939.053 118.311 938.923 117.331 938.923 117.585C939.257 120.488 943.891 120.198 943.557 117.258" fill="white"/>
<path d="M954.384 90.413C953.739 97.3797 953.381 104.346 953.184 111.313C952.861 122.821 952.664 134.894 955.279 145.964C956.229 149.977 957.787 154.956 961.62 156.779C964.163 158.001 966.437 153.807 963.876 152.585C962.796 152.003 961.944 151.064 961.458 149.922C960.66 148.287 960.058 146.561 959.667 144.779C958.551 139.722 957.909 134.568 957.751 129.387C957.322 118.673 957.501 107.944 958.288 97.252C958.449 94.8629 958.611 92.4738 958.843 90.0847C959.112 87.0755 954.635 87.4402 954.366 90.4312" fill="white"/>
<path d="M968.118 117.268C967.961 120.064 967.961 122.867 968.118 125.663C968.376 129.722 968.689 134.8 971.344 137.895C974.276 141.305 978.72 139.044 980.951 135.597C983.55 131.575 984.528 126.423 985.284 121.846C985.883 118.3 986.283 114.724 986.482 111.133L981.873 111.467L983.2 139.767L983.384 143.844C983.406 144.148 983.487 144.445 983.623 144.718C983.759 144.991 983.947 145.234 984.177 145.433C984.406 145.633 984.673 145.785 984.961 145.881C985.249 145.978 985.553 146.016 985.855 145.994C986.158 145.972 986.453 145.89 986.725 145.754C986.996 145.617 987.238 145.428 987.436 145.198C987.635 144.967 987.786 144.699 987.882 144.41C987.978 144.12 988.016 143.815 987.994 143.511C987.552 134.083 987.115 124.65 986.685 115.211C986.685 113.839 986.556 112.486 986.482 111.133C986.353 108.076 982.039 108.409 981.873 111.467C981.774 118.062 980.584 124.595 978.351 130.797C978.006 131.651 977.593 132.475 977.115 133.262C976.819 133.725 976.459 134.143 976.046 134.504C975.916 134.613 975.774 134.706 975.622 134.782C976.064 134.541 975.714 134.782 975.622 134.782C975.05 135.152 975.622 134.782 975.161 134.893C975.585 134.763 975.401 135.004 975.161 134.893C975.161 134.893 975.64 135.022 975.253 134.893C974.866 134.763 974.737 134.522 975.253 134.893C975.117 134.79 974.994 134.672 974.884 134.541V134.541C974.765 134.384 974.66 134.216 974.571 134.04C974.571 133.892 974.128 133.114 974.258 133.41C973.954 132.621 973.713 131.81 973.538 130.982C973.153 129.151 972.913 127.292 972.819 125.422C972.663 122.626 972.663 119.823 972.819 117.027C972.985 113.95 968.376 114.303 968.21 117.361" fill="white"/>
<path d="M1001.66 137.806C1002.38 133.681 1002.34 129.5 1003.11 125.356C1003.52 122.613 1004.31 119.945 1005.47 117.435C1005.85 116.589 1006.4 115.838 1007.09 115.234C1007.37 115.044 1007.68 114.896 1008.01 114.794C1008.12 114.794 1008.17 114.794 1007.92 114.794C1008.33 114.959 1008.44 115.106 1008.75 115.675C1009.12 116.381 1009.4 117.132 1009.59 117.912C1010.13 120.213 1010.42 122.568 1010.45 124.934C1010.7 130.393 1010.16 135.859 1008.87 141.162C1008.5 142.844 1007.85 144.45 1006.95 145.911C1006.51 146.461 1006.95 145.911 1006.51 146.332C1006.68 146.149 1006.93 146.332 1006.6 146.332C1005.45 146.092 1004.38 145.541 1003.51 144.737C1001.63 142.778 1000.19 140.426 999.283 137.843C998.995 137.128 998.779 136.376 998.509 135.661C998.24 134.946 998.509 136.486 998.509 135.808C998.923 132.837 998.851 129.757 999.013 126.805L999.931 110.302L1001.44 83.1097C1001.6 80.0659 997.106 80.4326 996.944 83.458C996.441 92.3694 995.943 101.275 995.451 110.174C995.109 116.316 994.786 122.441 994.444 128.51C994.02 131.305 993.899 134.14 994.084 136.963C994.61 139.034 995.416 141.021 996.477 142.867C997.818 145.932 1000.06 148.496 1002.9 150.201C1007.99 152.75 1011.1 148.808 1012.68 143.894C1014.44 137.954 1015.21 131.756 1014.95 125.558C1014.95 121.084 1014.72 114.556 1011.35 111.476C1010.41 110.673 1009.22 110.234 1007.99 110.234C1006.76 110.234 1005.57 110.673 1004.63 111.476C1002 113.419 1000.67 116.976 999.769 119.947C998.796 123.548 998.134 127.23 997.79 130.948C997.628 132.379 997.502 133.809 997.376 135.257L997.268 136.596C997.268 137.036 997.142 137.641 997.268 136.963C997.147 137.549 997.258 138.16 997.579 138.662C997.899 139.164 998.402 139.516 998.977 139.64C999.552 139.764 1000.15 139.65 1000.64 139.323C1001.14 138.997 1001.48 138.484 1001.6 137.898" fill="white"/>
</svg>
