<svg width="18" height="26" viewBox="0 0 18 26" fill="none" xmlns="http://www.w3.org/2000/svg">
<path d="M9.41196 20.6251H8.1821C7.31596 20.6251 6.61206 21.329 6.61206 22.1951V23.8934C6.61206 24.7595 7.31596 25.4634 8.1821 25.4634H9.41196C10.2781 25.4634 10.982 24.7595 10.982 23.8934V22.1951C10.982 21.3264 10.2781 20.6251 9.41196 20.6251Z" fill="#CB3B48"/>
<path d="M0.740019 7.47862L3.00872 7.76122C3.72832 7.85019 4.41129 7.43675 4.67035 6.75901C4.99744 5.90334 5.45275 5.22823 6.03628 4.73628C6.86319 4.04023 7.89154 3.68959 9.12141 3.68959C10.3958 3.68959 11.411 4.02453 12.1647 4.6918C12.9183 5.36168 13.2925 6.1624 13.2925 7.10181C13.2925 7.77692 13.0805 8.39447 12.6566 8.95445C12.3819 9.31033 11.5366 10.0587 10.1262 11.2022C8.7132 12.3457 7.77382 13.3767 7.30281 14.2926C6.82133 15.2294 6.65386 16.2682 6.61199 17.3097C6.57538 18.202 7.2871 18.9451 8.18203 18.9451H9.46422C10.2806 18.9451 10.9558 18.3197 11.029 17.5085C11.0814 16.925 11.1782 16.4828 11.3247 16.1819C11.5707 15.6664 12.2066 14.986 13.2271 14.1382C15.2027 12.5027 16.4901 11.2101 17.0946 10.2576C17.6965 9.30771 18 8.30027 18 7.23526C18 5.31196 17.181 3.62417 15.5403 2.1745C13.9022 0.724834 11.6937 0 8.91994 0C6.28228 0 4.15488 0.714367 2.53251 2.14572C1.15087 3.36512 0.310901 4.80955 0.0152103 6.47641C-0.0764014 6.96312 0.255924 7.41843 0.740019 7.47862Z" fill="#CB3B48"/>
</svg>
